<svg id="Layer_1" data-name="Layer 1" xmlns="http://www.w3.org/2000/svg" viewBox="0 0 156.06 30.89"><title>tribarb_text</title><path d="M190.57,105.31A2.13,2.13,0,0,1,193,103c1.52,0,2.28.85,2.28,2.56a19.23,19.23,0,0,1-.37,4.11,8.36,8.36,0,0,1-1,2.72q-1.86,2.7-6.11,2.7a8.32,8.32,0,0,1-3.38-.63,5.4,5.4,0,0,1-2.26-1.8c-.84-1.22-1.26-3.13-1.26-5.71V96.72c0-.21,0-.32-.1-.32h-1.4a2.43,2.43,0,0,1-1.7-.61,1.93,1.93,0,0,1-.68-1.5,2,2,0,0,1,.68-1.46,2.16,2.16,0,0,1,1.56-.65h1.73V87.59c0-1.5.82-2.25,2.47-2.25s2.34.75,2.34,2.25v4.54s0,.05,0,.05h4.81c1.61,0,2.42.68,2.42,2.06s-.84,2.16-2.52,2.16h-4.89a.36.36,0,0,1,.14.32v10.47q0,3.87,2.28,3.87c1.65,0,2.47-1,2.47-3Z" transform="translate(-176.94 -84.35)"/><path d="M203.35,92.09c1,0,1.63.39,1.82,1.16a8.21,8.21,0,0,1,5.46-1.93,9.83,9.83,0,0,1,3.12.47,7.35,7.35,0,0,1,2.43,1.35,6.25,6.25,0,0,1,1.59,2.09,6.42,6.42,0,0,1,.56,2.7,5.1,5.1,0,0,1-1.17,3.49,4,4,0,0,1-3.13,1.32,3.4,3.4,0,0,1-2.26-.76,2.37,2.37,0,0,1-.91-1.89,2.19,2.19,0,0,1,.77-1.62,2.49,2.49,0,0,1,1.75-.72c.06,0,.05,0,0,0l.11,0v-.22a2,2,0,0,0-.91-1.67,3.67,3.67,0,0,0-2.26-.67,3.81,3.81,0,0,0-3.92,2.61,16.53,16.53,0,0,0-.65,5.3V108a4.54,4.54,0,0,0,.05,1q.22,2,.6,2a4.17,4.17,0,0,0,.52,0,3.62,3.62,0,0,0,.46-.06,3.86,3.86,0,0,1,1.08-.18c1.43,0,2.14.64,2.14,1.93s-.85,2.11-2.56,2.11h-.14c-.25,0-.56,0-.91,0s-.77-.08-1.24-.14c-.9-.09-1.54-.13-1.91-.13l-1.54,0-1.17.07-2.52.22c-1.71,0-2.56-.7-2.56-2.11s.8-1.89,2.42-1.89l.4,0a.74.74,0,0,1,.39.07l.56.13h.38a.2.2,0,0,0,.14.05h0c.28,0,.44-.45.47-1.35,0-.36,0-.72,0-1.08s0-.72,0-1.08l-.14-9.67c-.06-1.11-.21-1.74-.46-1.89l-.47,0a4.74,4.74,0,0,1-.51,0h.09a4.91,4.91,0,0,1-1.16.14c-1.47,0-2.2-.66-2.2-2s.87-2.07,2.61-2.07a2.42,2.42,0,0,0,.56.07c.32,0,.6,0,.84.07l.73.06.53,0h.26a2.28,2.28,0,0,0,.4,0l.16,0a.62.62,0,0,1,.21,0A5.18,5.18,0,0,1,203.35,92.09Z" transform="translate(-176.94 -84.35)"/><path d="M228.54,107.1v1.64a4.93,4.93,0,0,0,.05.84q.14,1.35.42,1.35l.23-.05.7-.13,0,0,.35-.09a2.6,2.6,0,0,1,.53,0c1.62,0,2.43.66,2.43,2a1.81,1.81,0,0,1-.77,1.49,3.11,3.11,0,0,1-1.94.58c-.25,0-.56,0-.93,0l-1.31-.14-1.21-.16a7.46,7.46,0,0,0-.84-.06c-.34,0-.72,0-1.14,0s-.87.08-1.33.14l-1.43.15a7.43,7.43,0,0,1-.95.07q-2.52,0-2.52-2.07c0-1.31.76-2,2.29-2l.53,0,.72.09a2.09,2.09,0,0,0,.52.09h.28q.38,0,.51-2.16V97.89c-.09-1.41-.28-2.12-.56-2.12l-.33,0-.56.13a1.66,1.66,0,0,1-.53.11l-.49,0c-1.59,0-2.38-.66-2.38-2s.9-2,2.7-2h.84a1.75,1.75,0,0,1,.47,0l1.1.14.58,0,.4,0,.58-.07,1.21-.13c1.34,0,2,.75,2,2.24V95a1.33,1.33,0,0,0,0,.3v.15a8.82,8.82,0,0,0,0,1.26c0,.21,0,.43,0,.65s0,.46,0,.7c0,.6-.05,1.19-.05,1.78v7.3ZM225.46,91a3.25,3.25,0,0,1-2.28-.86,2.76,2.76,0,0,1-.94-2.11,2.69,2.69,0,0,1,.94-2.09,3.27,3.27,0,0,1,2.28-.83,3.35,3.35,0,0,1,2.31.83,2.64,2.64,0,0,1,1,2.09,2.71,2.71,0,0,1-1,2.11A3.32,3.32,0,0,1,225.46,91Z" transform="translate(-176.94 -84.35)"/><path d="M241.7,86.78c-.06.6-.12,1.12-.16,1.57s-.09.91-.12,1.37-.06,1-.09,1.53-.05,1.24-.05,2a6.39,6.39,0,0,1,2.52-1.57,11.16,11.16,0,0,1,3.26-.41,9.63,9.63,0,0,1,7.61,3.19,12.14,12.14,0,0,1,2.8,8.32,14.63,14.63,0,0,1-.82,5,13.69,13.69,0,0,1-2.17,4,9.15,9.15,0,0,1-3.45,2.57,11.47,11.47,0,0,1-4.53.85,8.62,8.62,0,0,1-5.73-1.8,2,2,0,0,1-2.2,1.44c-1.55,0-2.33-.91-2.33-2.74v-.59a2,2,0,0,1,0-.45v-1c0-.33,0-.66,0-1l.14-3.29c0-.59,0-1.31.05-2.13s0-1.54,0-2.14l-.1-11.37a8.46,8.46,0,0,0-.16-1.64c-.08-.29-.21-.43-.4-.43a8.65,8.65,0,0,0-1.07.18,2.42,2.42,0,0,1-.47,0h-.46c-1.49,0-2.24-.64-2.24-1.93s.84-2,2.52-2h.53a2.13,2.13,0,0,1,.49,0l.89.14a1,1,0,0,1,.23,0l.24,0a2.08,2.08,0,0,0,.39,0h.31a5.58,5.58,0,0,0,.56,0c.25,0,.51-.07.79-.13a7.2,7.2,0,0,1,1.35-.14c1.15,0,1.73.6,1.73,1.8Zm0,12.45a15.64,15.64,0,0,0-.32,3.69,16.48,16.48,0,0,0,.65,5.58,4.55,4.55,0,0,0,4.52,2.74,5,5,0,0,0,4.32-2.16,9.7,9.7,0,0,0,1.56-5.8,9.94,9.94,0,0,0-1.49-5.84,4.76,4.76,0,0,0-4.11-2.12,5.47,5.47,0,0,0-1.77.29,6.12,6.12,0,0,0-1.54.81,4.88,4.88,0,0,0-1.16,1.24A4.73,4.73,0,0,0,241.65,99.23Z" transform="translate(-176.94 -84.35)"/><path d="M280.56,115.06c-2.3,0-3.86-.75-4.66-2.25a9.38,9.38,0,0,1-6.86,2.43,9.81,9.81,0,0,1-6.3-1.86,6.43,6.43,0,0,1-1.38-8.32A7.12,7.12,0,0,1,264,102.7a9.45,9.45,0,0,1,2.2-.9,33.73,33.73,0,0,1,3.59-.54,13.36,13.36,0,0,0,4.52-1,2.27,2.27,0,0,0,.8-2A2.8,2.8,0,0,0,274,96a4.59,4.59,0,0,0-3-.86,5.88,5.88,0,0,0-3.31,1v0a1.41,1.41,0,0,0-.32.36h0a2.41,2.41,0,0,1,1,1.93,2.3,2.3,0,0,1-.86,1.84,3.28,3.28,0,0,1-2.17.72,3.42,3.42,0,0,1-2.47-.92,3,3,0,0,1-1-2.31,5.37,5.37,0,0,1,2.75-4.55,10.86,10.86,0,0,1,6.39-1.84q8.82,0,8.82,8.05V108c0,.6,0,1.1,0,1.5a7.12,7.12,0,0,0,.07.84q.24,1,.75,1c.53,0,.79-.71.79-2.12v-2.11c0-1.29.7-1.94,2.1-1.94s2.24.87,2.24,2.61V108l-.05,2.43Q285.74,115.06,280.56,115.06ZM275,104.32a4.81,4.81,0,0,0-.53.2,5.06,5.06,0,0,1-.59.2,19.35,19.35,0,0,1-4,.63q-4.39.41-4.39,3a2.52,2.52,0,0,0,1,2.09,4.33,4.33,0,0,0,2.77.79,5.77,5.77,0,0,0,4.13-1.39,5.18,5.18,0,0,0,1.52-3.83Z" transform="translate(-176.94 -84.35)"/><path d="M293.34,92.09c1,0,1.64.39,1.82,1.16a8.24,8.24,0,0,1,5.46-1.93,9.94,9.94,0,0,1,3.13.47,7.4,7.4,0,0,1,2.42,1.35,6,6,0,0,1,1.59,2.09,6.42,6.42,0,0,1,.56,2.7,5.1,5.1,0,0,1-1.17,3.49,4,4,0,0,1-3.12,1.32,3.38,3.38,0,0,1-2.26-.76,2.37,2.37,0,0,1-.91-1.89,2.15,2.15,0,0,1,.77-1.62,2.48,2.48,0,0,1,1.75-.72c.06,0,.05,0,0,0l.12,0v-.22a2,2,0,0,0-.91-1.67,3.69,3.69,0,0,0-2.26-.67,3.81,3.81,0,0,0-3.92,2.61,16.2,16.2,0,0,0-.66,5.3V108a5.43,5.43,0,0,0,0,1c.16,1.32.36,2,.61,2a4.12,4.12,0,0,0,.51,0,3.78,3.78,0,0,0,.47-.06,3.79,3.79,0,0,1,1.07-.18c1.43,0,2.15.64,2.15,1.93s-.86,2.11-2.57,2.11h-.14c-.25,0-.55,0-.91,0s-.77-.08-1.24-.14c-.9-.09-1.54-.13-1.91-.13l-1.54,0-1.17.07-2.51.22c-1.71,0-2.57-.7-2.57-2.11s.81-1.89,2.43-1.89l.39,0a.79.79,0,0,1,.4.07l.56.13h.37a.2.2,0,0,0,.14.05h.05c.28,0,.43-.45.47-1.35,0-.36,0-.72,0-1.08s.05-.72.05-1.08l-.14-9.67c-.06-1.11-.22-1.74-.47-1.89l-.46,0a4.69,4.69,0,0,1-.52,0h.1a5.06,5.06,0,0,1-1.17.14q-2.19,0-2.19-2T288.68,92a2.32,2.32,0,0,0,.56.07c.31,0,.59,0,.84.07l.72.06.54,0h.25a2.17,2.17,0,0,0,.4,0l.16,0a.62.62,0,0,1,.21,0A5.25,5.25,0,0,1,293.34,92.09Z" transform="translate(-176.94 -84.35)"/><path d="M317.23,86.78c-.06.6-.12,1.12-.16,1.57s-.09.91-.12,1.37-.06,1-.09,1.53-.05,1.24-.05,2a6.39,6.39,0,0,1,2.52-1.57,11.19,11.19,0,0,1,3.27-.41,9.62,9.62,0,0,1,7.6,3.19,12.14,12.14,0,0,1,2.8,8.32,14.63,14.63,0,0,1-.82,5,13.46,13.46,0,0,1-2.17,4,9.15,9.15,0,0,1-3.45,2.57,11.42,11.42,0,0,1-4.52.85,8.63,8.63,0,0,1-5.74-1.8,2,2,0,0,1-2.19,1.44c-1.56,0-2.34-.91-2.34-2.74v-.59a2,2,0,0,1,.05-.45v-1a8.21,8.21,0,0,1,.05-1l.14-3.29c0-.59,0-1.31,0-2.13s.05-1.54.05-2.14L312,90.2a9.07,9.07,0,0,0-.17-1.64c-.08-.29-.21-.43-.39-.43a8.38,8.38,0,0,0-1.08.18,2.38,2.38,0,0,1-.46,0h-.47c-1.49,0-2.24-.64-2.24-1.93s.84-2,2.52-2h.54a2.25,2.25,0,0,1,.49,0l.88.14a1.15,1.15,0,0,1,.24,0l.23,0a2.17,2.17,0,0,0,.4,0h.3a5.58,5.58,0,0,0,.56,0c.25,0,.51-.07.79-.13a7.22,7.22,0,0,1,1.36-.14c1.15,0,1.72.6,1.72,1.8Zm-.05,12.45a16.2,16.2,0,0,0-.32,3.69,16.74,16.74,0,0,0,.65,5.58,4.56,4.56,0,0,0,4.53,2.74,5,5,0,0,0,4.31-2.16,9.7,9.7,0,0,0,1.56-5.8,9.94,9.94,0,0,0-1.49-5.84,4.75,4.75,0,0,0-4.1-2.12,5.49,5.49,0,0,0-1.78.29,6.12,6.12,0,0,0-1.54.81,4.88,4.88,0,0,0-1.16,1.24A5,5,0,0,0,317.18,99.23Z" transform="translate(-176.94 -84.35)"/></svg>