<svg id="Layer_1" data-name="Layer 1" xmlns="http://www.w3.org/2000/svg" viewBox="0 0 62.5 63.55"><defs><style>.cls-1{fill:none;stroke-width:2.5px;}.cls-1,.cls-3{stroke:#000;}.cls-1,.cls-2,.cls-3{stroke-miterlimit:10;}.cls-2{stroke:#000217;}.cls-2,.cls-3{stroke-width:2px;}</style></defs><title>Calendar-big</title><rect class="cls-1" x="1.25" y="4.91" width="60" height="57.39" rx="8.25"/><rect class="cls-2" x="9.46" y="24.88" width="4.45" height="4.45" rx="1.73"/><line class="cls-1" x1="1.25" y1="16.67" x2="61.25" y2="16.67"/><rect class="cls-3" x="16.9" y="1" width="2.61" height="7.83" rx="1.3"/><rect class="cls-3" x="42.99" y="1" width="2.61" height="7.83" rx="1.3"/><rect class="cls-2" x="22.5" y="24.88" width="4.45" height="4.45" rx="1.73"/><rect class="cls-2" x="35.55" y="24.88" width="4.45" height="4.45" rx="1.73"/><rect class="cls-2" x="48.59" y="24.88" width="4.45" height="4.45" rx="1.73"/><rect class="cls-2" x="9.46" y="36.84" width="4.45" height="4.45" rx="1.73"/><rect class="cls-2" x="22.5" y="36.84" width="4.45" height="4.45" rx="1.73"/><rect class="cls-2" x="35.55" y="36.84" width="4.45" height="4.45" rx="1.73"/><rect class="cls-2" x="48.59" y="36.84" width="4.45" height="4.45" rx="1.73"/><rect class="cls-2" x="9.46" y="48.79" width="4.45" height="4.45" rx="1.73"/><rect class="cls-2" x="22.5" y="48.79" width="4.45" height="4.45" rx="1.73"/><rect class="cls-2" x="35.55" y="48.79" width="4.45" height="4.45" rx="1.73"/></svg>