<svg id="Layer_1" data-name="Layer 1" xmlns="http://www.w3.org/2000/svg" viewBox="0 0 26.02 24"><defs><style>.cls-1{fill:#fff;}.cls-1,.cls-2{stroke:#000;stroke-miterlimit:10;}.cls-2{fill:none;}</style></defs><title>cart</title><path class="cls-1" d="M32.5,28.5" transform="translate(-41.38 -27)"/><path class="cls-1" d="M46.5,28.5" transform="translate(-41.38 -27)"/><path class="cls-1" d="M49.5,43.5" transform="translate(-41.38 -27)"/><path class="cls-1" d="M47.5,44.5" transform="translate(-41.38 -27)"/><polyline class="cls-1" points="3.12 3.5 3.12 3.5 3.12 3.5"/><path class="cls-2" d="M45.5,28.5l3,13h15a7.91,7.91,0,0,0,3-9h-20" transform="translate(-41.38 -27)"/><path class="cls-2" d="M48.5,41.5a2.5,2.5,0,0,0,0,4h15" transform="translate(-41.38 -27)"/><path class="cls-2" d="M53.5,47.5" transform="translate(-41.38 -27)"/><circle class="cls-2" cx="8.12" cy="21.5" r="2"/><circle class="cls-2" cx="20.12" cy="21.5" r="2"/><path class="cls-2" d="M43.5,27.5" transform="translate(-41.38 -27)"/><path class="cls-2" d="M45.5,28.5" transform="translate(-41.38 -27)"/><polyline class="cls-2" points="4.12 1.5 2.12 0.5 4.12 0.5 4.12 1.5"/></svg>