<svg id="Layer_1" data-name="Layer 1" xmlns="http://www.w3.org/2000/svg" viewBox="0 0 305.45 88.37"><defs><style>.cls-1{fill:none;}.cls-2{fill:#383838;}.cls-3{fill:#4e4c4b;}.cls-4{fill:#fcc6a9;}.cls-5{fill:#a56c53;}.cls-6{fill:#9e7466;}.cls-7{fill:#e3a8a3;}.cls-8{fill:#960606;}.cls-9{fill:#fff;}.cls-10{fill:#89511f;}.cls-11{fill:#fe8b7e;}.cls-12{fill:#f8921f;}.cls-13{fill:#010000;}.cls-14{fill:#010101;}.cls-15{fill:#090611;}.cls-16{fill:#dd7a22;}.cls-17{fill:#010100;}.cls-18{fill:#070403;}.cls-19{fill:#0f0807;}.cls-20{fill:#060202;}.cls-21{fill:#0b0506;}.cls-22{fill:#fdb88a;}.cls-23{fill:#f9c29b;}.cls-24{fill:#0a0708;}.cls-25{fill:#020101;}</style></defs><title>logo+text</title><path d="M101.4,62.24q.13-3.43,3.41-3.44c2.18,0,3.28,1.26,3.28,3.77a28.81,28.81,0,0,1-.54,6,12.92,12.92,0,0,1-1.47,4q-2.67,4-8.75,4a11.71,11.71,0,0,1-4.85-.93A7.72,7.72,0,0,1,89.24,73c-1.21-1.8-1.82-4.59-1.81-8.38v-15c0-.31,0-.46-.13-.46h-2a3.48,3.48,0,0,1-2.44-.89,2.91,2.91,0,0,1-1-2.22,3,3,0,0,1,1-2.14,3.09,3.09,0,0,1,2.24-1h2.48V36.23q0-3.3,3.54-3.3,3.34,0,3.34,3.3V42.9a.06.06,0,0,0,.07.06h6.88q3.48,0,3.48,3c0,2-1.2,3.17-3.61,3.17h-7a.51.51,0,0,1,.2.46V65q0,5.67,3.28,5.67,3.54,0,3.54-4.42Z" transform="translate(0 -10.56)"/><path d="M119.72,42.83c1.47,0,2.33.57,2.6,1.72a11.56,11.56,0,0,1,7.82-2.84,13.62,13.62,0,0,1,4.48.69,10.26,10.26,0,0,1,3.48,2,9,9,0,0,1,2.27,3.07,9.63,9.63,0,0,1,.8,4,7.58,7.58,0,0,1-1.66,5.07A5.61,5.61,0,0,1,135,58.48a4.78,4.78,0,0,1-3.24-1.12,3.52,3.52,0,0,1-1.28-2.82,3.21,3.21,0,0,1,1.1-2.38,3.55,3.55,0,0,1,2.51-1c.08,0,.07,0,0-.07l.17.07v-.33a3,3,0,0,0-1.3-2.45,5.2,5.2,0,0,0-3.25-1,5.47,5.47,0,0,0-5.61,3.83,24.71,24.71,0,0,0-.94,7.79v7.2a9.12,9.12,0,0,0,.07,1.38q.33,2.91.87,2.91a4.57,4.57,0,0,0,.74,0,5,5,0,0,0,.66-.1,5.4,5.4,0,0,1,1.54-.26c2,0,3.08,1,3.08,2.84q0,3.11-3.68,3.1h-.2A9.08,9.08,0,0,1,125,76c-.51-.07-1.11-.11-1.78-.19-1.29-.14-2.2-.2-2.74-.2h-2.2c-.62,0-1.18.06-1.67.1L113,76c-2.45,0-3.67-1-3.68-3.1q0-2.77,3.48-2.77a5.42,5.42,0,0,0,.57,0,1.21,1.21,0,0,1,.56.1l.81.2h.53a.29.29,0,0,0,.2.07h.07c.4,0,.62-.66.67-2q0-.8.06-1.59c.05-.53.07-1,.07-1.58l-.2-14.19c-.09-1.63-.31-2.55-.67-2.78l-.67.07a6,6,0,0,1-.73.07h.13a7.26,7.26,0,0,1-1.67.2c-2.09,0-3.13-1-3.14-2.91s1.25-3,3.74-3a2.7,2.7,0,0,0,.8.1,10.37,10.37,0,0,1,1.21.1l1,.1h1.14a2.76,2.76,0,0,0,.57-.06h.23a.76.76,0,0,1,.3,0A8,8,0,0,1,119.72,42.83Z" transform="translate(0 -10.56)"/><path d="M155.81,64.88v2.4a8.45,8.45,0,0,0,.06,1.23c.14,1.32.34,2,.61,2,0,0,.06,0,.33-.07s.6-.11,1-.2l-.06.07a3.92,3.92,0,0,1,1.27-.2q3.47,0,3.47,2.9a2.66,2.66,0,0,1-1.1,2.18,4.39,4.39,0,0,1-2.78.86,9.69,9.69,0,0,1-1.33-.07c-.53-.07-1.16-.11-1.87-.19l-1.74-.24q-.6-.08-1.2-.09a16.31,16.31,0,0,0-1.64.06c-.64.06-1.24.11-1.91.2l-2,.23a12.44,12.44,0,0,1-1.37.1q-3.6,0-3.6-3t3.27-2.9a4.48,4.48,0,0,1,.77.07c.42.07.77.08,1,.13a2.61,2.61,0,0,0,.73.13h.4c.36,0,.6-1.06.74-3.17v-16c-.14-2.07-.4-3.11-.81-3.11a3.65,3.65,0,0,0-.46.07,3.51,3.51,0,0,0-.81.2,2.46,2.46,0,0,1-.76.16h-.71c-2.27,0-3.41-1-3.4-2.91s1.3-2.94,3.87-3H147a2.09,2.09,0,0,1,.66.07c.63.09,1.15.15,1.57.19s.71.07.84.07h.57a5.39,5.39,0,0,0,.83-.1l1.74-.2c1.92,0,2.87,1.1,2.87,3.3V47a2,2,0,0,0-.06.43v.23a11.41,11.41,0,0,0-.07,1.85v2q-.06,1.32-.06,2.61V64.86ZM151.4,41.25A4.58,4.58,0,0,1,148.12,40a4.09,4.09,0,0,1-1.34-3.1,4,4,0,0,1,1.34-3.07,4.71,4.71,0,0,1,3.28-1.22,4.79,4.79,0,0,1,3.3,1.22,3.93,3.93,0,0,1,1.37,3.07A4,4,0,0,1,154.7,40,4.69,4.69,0,0,1,151.4,41.25Z" transform="translate(0 -10.56)"/><path d="M174.66,35q-.14,1.32-.24,2.31c-.06.66-.12,1.33-.17,2s-.08,1.43-.13,2.24-.07,1.81-.07,3a9.32,9.32,0,0,1,3.61-2.31,15.74,15.74,0,0,1,4.68-.59,13.62,13.62,0,0,1,10.9,4.68q4,4.7,4,12.22a22.22,22.22,0,0,1-1.17,7.32A20.62,20.62,0,0,1,193,71.79a13.23,13.23,0,0,1-5,3.76,16.19,16.19,0,0,1-6.48,1.25,12.23,12.23,0,0,1-8.22-2.64c-.36,1.41-1.4,2.11-3.14,2.11q-3.35,0-3.34-4v-.86a3.68,3.68,0,0,1,.06-.66V69.3a14.08,14.08,0,0,1,.07-1.45l.2-4.82c0-.88,0-1.93.07-3.14s.06-2.25.06-3.13l-.13-16.7a13,13,0,0,0-.23-2.41c-.12-.42-.3-.63-.57-.63a13.41,13.41,0,0,0-1.54.27,3.79,3.79,0,0,1-.67.06h-.59c-2.13,0-3.2-.94-3.2-2.84s1.2-3,3.6-3h.77a3.35,3.35,0,0,1,.71.07l1.27.2h.66a2.78,2.78,0,0,0,.57.07h.44a7,7,0,0,0,.8-.07,6.2,6.2,0,0,0,1.13-.19,9.75,9.75,0,0,1,1.94-.2c1.65,0,2.48.88,2.48,2.64Zm-.07,18.29a23.94,23.94,0,0,0-.47,5.41c0,3.87.31,6.59.94,8.18a6.5,6.5,0,0,0,6.48,4,7.17,7.17,0,0,0,6.18-3.17c1.5-2.11,2.24-5,2.24-8.51s-.71-6.52-2.14-8.59a6.76,6.76,0,0,0-5.88-3.1,7.61,7.61,0,0,0-2.54.43,8.09,8.09,0,0,0-2.2,1.19,6.95,6.95,0,0,0-2.61,4.16Z" transform="translate(0 -10.56)"/><path d="M230.33,76.54c-3.3,0-5.52-1.1-6.68-3.3q-3.54,3.56-9.83,3.56-5.69,0-9-2.74a9.59,9.59,0,0,1-2-12.21,10.32,10.32,0,0,1,3.69-3.44,13.75,13.75,0,0,1,3.14-1.32,46.9,46.9,0,0,1,5.14-.79q5.09-.54,6.49-1.39a3.38,3.38,0,0,0,1.13-3,4.16,4.16,0,0,0-1.5-3.37,6.49,6.49,0,0,0-4.24-1.25,8.31,8.31,0,0,0-4.75,1.45v-.06a2.33,2.33,0,0,0-.47.52h.06a3.6,3.6,0,0,1,1.4,2.84,3.42,3.42,0,0,1-1.23,2.71,4.62,4.62,0,0,1-3.11,1A4.86,4.86,0,0,1,205,54.45a4.5,4.5,0,0,1-1.41-3.4q0-4,3.95-6.67a15.16,15.16,0,0,1,9.15-2.7q12.63,0,12.64,11.81V68.31a8.6,8.6,0,0,0,.15,1.23c.22,1,.58,1.45,1.07,1.45.76,0,1.13-1,1.13-3.1v-3.1c0-1.89,1-2.84,3-2.84s3.21,1.28,3.21,3.83v.33l-.06,3.56Q237.76,76.54,230.33,76.54Zm-8-15.78c-.27.09-.52.19-.77.3a6.34,6.34,0,0,1-.83.3,28,28,0,0,1-5.68.92c-4.19.4-6.28,1.87-6.29,4.42a3.74,3.74,0,0,0,1.44,3.07,6.15,6.15,0,0,0,4,1.16,8.08,8.08,0,0,0,5.91-2,7.61,7.61,0,0,0,2.17-5.61Z" transform="translate(0 -10.56)"/><path d="M248.64,42.83c1.47,0,2.34.57,2.61,1.72a11.51,11.51,0,0,1,7.82-2.84,13.62,13.62,0,0,1,4.48.69,10.12,10.12,0,0,1,3.47,2,9.06,9.06,0,0,1,2.28,3.07,9.63,9.63,0,0,1,.8,4,7.62,7.62,0,0,1-1.67,5.07A5.64,5.64,0,0,1,264,58.48a4.78,4.78,0,0,1-3.24-1.12,3.51,3.51,0,0,1-1.3-2.82,3.21,3.21,0,0,1,1.1-2.38,3.54,3.54,0,0,1,2.5-1c.09,0,.08,0,0-.07l.17.07v-.33a3,3,0,0,0-1.31-2.45,5.17,5.17,0,0,0-3.24-1A5.47,5.47,0,0,0,253,51.21a24.42,24.42,0,0,0-.94,7.79v7.2a9.12,9.12,0,0,0,.07,1.38q.33,2.91.87,2.91a4.45,4.45,0,0,0,.73,0,4.92,4.92,0,0,0,.67-.1,5.4,5.4,0,0,1,1.54-.26c2,0,3.07,1,3.07,2.84q0,3.11-3.67,3.1h-.2a9.28,9.28,0,0,1-1.31-.07c-.52-.07-1.1-.11-1.77-.19-1.29-.14-2.2-.2-2.74-.2h-2.2c-.62,0-1.18.06-1.67.1l-3.61.33q-3.68,0-3.68-3.1,0-2.77,3.48-2.77a5.23,5.23,0,0,0,.56,0,1.11,1.11,0,0,1,.57.1l.8.2h.54a.31.31,0,0,0,.2.07h.07c.4,0,.62-.66.67-2q0-.8.06-1.59c.05-.53.07-1,.07-1.58L245,51.18c-.09-1.63-.31-2.55-.67-2.78l-.67.07a6,6,0,0,1-.73.07h.13a7.26,7.26,0,0,1-1.67.2c-2.1,0-3.14-1-3.14-2.91s1.25-3,3.74-3a2.7,2.7,0,0,0,.8.1A10.37,10.37,0,0,1,244,43l1,.1h1.14a2.76,2.76,0,0,0,.57-.06h.23a.76.76,0,0,1,.3,0A6.73,6.73,0,0,1,248.64,42.83Z" transform="translate(0 -10.56)"/><path d="M282.87,35q-.14,1.32-.24,2.31c-.07.66-.12,1.33-.17,2s-.09,1.43-.13,2.24-.07,1.81-.07,3a9.32,9.32,0,0,1,3.61-2.31,15.74,15.74,0,0,1,4.68-.59,13.62,13.62,0,0,1,10.9,4.68q4,4.7,4,12.22a22.22,22.22,0,0,1-1.17,7.32,20.62,20.62,0,0,1-3.11,5.88,13.17,13.17,0,0,1-4.95,3.76,16.19,16.19,0,0,1-6.48,1.25,12.23,12.23,0,0,1-8.22-2.64c-.36,1.41-1.4,2.11-3.14,2.11-2.23,0-3.35-1.33-3.34-4v-.86a3.68,3.68,0,0,1,.06-.66V69.3a14.08,14.08,0,0,1,.07-1.45l.2-4.82c0-.88,0-1.93.07-3.14s.06-2.25.06-3.13l-.13-16.7a14,14,0,0,0-.23-2.41Q275,37,274.57,37a13.41,13.41,0,0,0-1.54.27,3.79,3.79,0,0,1-.67.06h-.67c-2.14,0-3.2-.94-3.2-2.84s1.2-3,3.6-3h.77a3.26,3.26,0,0,1,.7.07l1.27.2h.67a2.78,2.78,0,0,0,.57.07h.44a7,7,0,0,0,.8-.07,6.2,6.2,0,0,0,1.13-.19,9.75,9.75,0,0,1,1.94-.2c1.65,0,2.48.88,2.48,2.64Zm-.07,18.29a23.94,23.94,0,0,0-.47,5.41c0,3.87.31,6.59.94,8.18a6.5,6.5,0,0,0,6.48,4,7.17,7.17,0,0,0,6.18-3.17,14.53,14.53,0,0,0,2.24-8.51q0-5.49-2.14-8.59a6.76,6.76,0,0,0-5.88-3.1,7.61,7.61,0,0,0-2.54.43,8.09,8.09,0,0,0-2.2,1.19,6.84,6.84,0,0,0-2.61,4.16Z" transform="translate(0 -10.56)"/><path class="cls-1" d="M11.86,52.08l-.06,0s0,0,0,0Z" transform="translate(0 -10.56)"/><path class="cls-1" d="M49.44,32.14Z" transform="translate(0 -10.56)"/><path class="cls-1" d="M58,48.24h0Z" transform="translate(0 -10.56)"/><path class="cls-1" d="M46.13,62.41v0l0,0Z" transform="translate(0 -10.56)"/><path class="cls-1" d="M46.7,71.58a1.28,1.28,0,0,0-.34.06l.29,0Z" transform="translate(0 -10.56)"/><path class="cls-1" d="M52.9,54.45v-.06s0,0,0,.06Z" transform="translate(0 -10.56)"/><path class="cls-2" d="M65.94,81.22c-.43-2.91-.67-4.51-1.87-5.92-1.95-2.26-5.72-3.18-11.21-2.72v.86a1.23,1.23,0,0,1-.23.71.84.84,0,0,1-.19.31,13.33,13.33,0,0,1,7.43,4.63c1.33,1.75,1.63,3.24,3.22,8.94,1,3.44,1.78,6.21,2.3,8h3.72a2.63,2.63,0,0,0,.43,0A69.92,69.92,0,0,1,67,87.37C66.49,84.86,66.19,82.84,65.94,81.22Z" transform="translate(0 -10.56)"/><path class="cls-3" d="M59.87,79.09a13.33,13.33,0,0,0-7.43-4.63.88.88,0,0,1-.34.26l-.65.26A31.61,31.61,0,0,1,39.9,77.15q-1,0-2-.06v6.32H38c.14,0,.21.07.21.23v.08a1.25,1.25,0,0,1,0,.21v.17a1.34,1.34,0,0,0,0,.2,2.26,2.26,0,0,0,0,.27.74.74,0,0,1,.32-.2,1.18,1.18,0,0,1,.41-.06,1.17,1.17,0,0,1,1,.42,1.6,1.6,0,0,1,.36,1.08A2.07,2.07,0,0,1,39.8,87a1.06,1.06,0,0,1-.43.33,1.32,1.32,0,0,1-.57.11,1.12,1.12,0,0,1-.73-.23.2.2,0,0,1-.15.17v1h0v7.87h1.23c4.18,0,8.35,0,12.52-.14,4.26,0,8.53.09,12.8-.14h.93c-.52-1.75-1.34-4.52-2.3-8C61.5,82.33,61.2,80.84,59.87,79.09ZM43.75,86.48v.32c0,.41-.23.61-.66.61a.61.61,0,0,1-.59-.29,1.13,1.13,0,0,1-.86.31,1.22,1.22,0,0,1-.79-.24.78.78,0,0,1-.29-.65.89.89,0,0,1,.11-.43A1,1,0,0,1,41,85.8a1.23,1.23,0,0,1,.28-.12h0l.42-.06a1.69,1.69,0,0,0,.57-.12.34.34,0,0,0,.09-.27.32.32,0,0,0-.13-.29.53.53,0,0,0-.37-.12.74.74,0,0,0-.41.13.12.12,0,0,0,0,0h0a.34.34,0,0,1,0,.5.38.38,0,0,1-.17.08h-.11a.43.43,0,0,1-.31-.12.41.41,0,0,1-.12-.3.72.72,0,0,1,.34-.6,1.34,1.34,0,0,1,.81-.24c.74,0,1.11.36,1.11,1.06v1.31a.31.31,0,0,0,0,.11c0,.09.05.13.09.13s.1-.09.1-.28v-.27a.23.23,0,0,1,.26-.26c.19,0,.29.12.29.34Zm2.67-.85a.48.48,0,0,1-.39.18.38.38,0,0,1-.28-.11.29.29,0,0,1-.12-.24.26.26,0,0,1,.1-.21.26.26,0,0,1,.22-.09h0v0a.25.25,0,0,0-.12-.22.43.43,0,0,0-.28-.09.47.47,0,0,0-.49.34,2.05,2.05,0,0,0-.09.69v.64a.84.84,0,0,0,0,.12c0,.18,0,.26.08.26h.12l.14,0c.17,0,.26.08.26.25s-.1.27-.32.27h-.13l-.16,0-.24,0H44.4l-.31,0c-.22,0-.32-.09-.32-.27s.09-.25.3-.25h.1l.07,0h.07s0-.06.06-.18v-.14a.57.57,0,0,0,0-.13l0-1.26c0-.15,0-.23-.06-.25h-.11l-.14,0c-.19,0-.28-.09-.28-.26s.11-.27.33-.27h.46l.13,0a.22.22,0,0,1,.23.16,1,1,0,0,1,.68-.26,1,1,0,0,1,.39.07,1,1,0,0,1,.31.17,1.05,1.05,0,0,1,.2.27,1,1,0,0,1,.07.35A.65.65,0,0,1,46.42,85.63Zm3.15.83a1.67,1.67,0,0,1-.28.53,1.06,1.06,0,0,1-.43.33,1.32,1.32,0,0,1-.57.11,1.09,1.09,0,0,1-.72-.23.25.25,0,0,1-.28.19c-.19,0-.29-.12-.29-.36V87a.13.13,0,0,1,0-.06v-.25l0-.43c0-.08,0-.17,0-.28V84.17A1,1,0,0,0,47,84s0,0,0,0l-.13,0h-.12c-.19,0-.28-.08-.28-.26s.1-.26.31-.26h.13l.11,0h.32a.52.52,0,0,1,.17,0c.14,0,.22.07.22.23v.08a1.83,1.83,0,0,0,0,.21l0,.17c0,.07,0,.13,0,.2s0,.17,0,.27a.74.74,0,0,1,.32-.2,1.22,1.22,0,0,1,.41-.06,1.19,1.19,0,0,1,1,.42,1.65,1.65,0,0,1,.35,1.08A1.89,1.89,0,0,1,49.57,86.46Z" transform="translate(0 -10.56)"/><path class="cls-4" d="M55.85,46.51v.08h0A.14.14,0,0,1,55.85,46.51Z" transform="translate(0 -10.56)"/><path class="cls-4" d="M55.89,45.25l.07,0h.2a1.17,1.17,0,1,1,.79,2,1.22,1.22,0,0,1-.65-.2h-.08l-.08,0-.13,0a.4.4,0,0,0-.16.08l0,4.31a1.05,1.05,0,0,1,.31,0A3.4,3.4,0,0,0,58.33,51c1.65-1.12,1.47-4,1.38-5.57s-.18-2.45-.87-3.13a3.64,3.64,0,0,0-2.64-.85,1.4,1.4,0,0,1-.41,0l0,3.79Zm2.12,3h0Z" transform="translate(0 -10.56)"/><path class="cls-5" d="M53.56,25.35a9.31,9.31,0,0,0-1.49,2.5c-.09.21-.16.39-.24.54a4.58,4.58,0,0,1-1.48,1.67,6.45,6.45,0,0,1,3.18,3.61,6.38,6.38,0,0,1,.15,2.46,6.1,6.1,0,0,0,0,1.76A35.19,35.19,0,0,0,55.16,30a35.85,35.85,0,0,0-.1-5.86A4.63,4.63,0,0,0,53.56,25.35Z" transform="translate(0 -10.56)"/><path class="cls-5" d="M41,20.51a.84.84,0,0,1,1-.64.86.86,0,0,1,.65,1,32.53,32.53,0,0,1-2.48,7c-.28.57-.58,1.13-.89,1.68.91,0,1.77,0,2.57,0A8.69,8.69,0,0,0,44,27.49a8.54,8.54,0,0,0,1.18-2.38.85.85,0,1,1,1.63.51,10.33,10.33,0,0,1-1.42,2.86,10,10,0,0,1-.7.88,16.14,16.14,0,0,0,2.66-.54,3.64,3.64,0,0,0,2.29-1.51c.06-.12.12-.26.19-.42a11.63,11.63,0,0,1,1.86-3.12,7.31,7.31,0,0,1,2.4-1.87,1.92,1.92,0,0,0,.59-.39c.32-.71-.87-2.63-2.54-4.24a5.71,5.71,0,0,0-1.67.89,6,6,0,0,0-2,3,.87.87,0,0,1-.82.61,1,1,0,0,1-.25,0,.86.86,0,0,1-.57-1.07,7.72,7.72,0,0,1,2.63-3.85A7.55,7.55,0,0,1,50.66,16a12.44,12.44,0,0,0-3.26-1.63,6.74,6.74,0,0,0-1.31,1.07,6.88,6.88,0,0,0-1.35,2A.85.85,0,0,1,44,18a.8.8,0,0,1-.34-.07.84.84,0,0,1-.45-1.12c.1-.23.21-.46.33-.68a.21.21,0,0,1,.1-.24h0a8.92,8.92,0,0,1,1.2-1.6l0,0a.92.92,0,0,1,.29-.44,22.57,22.57,0,0,0-7.26,0V28.56c.26-.46.52-.94.76-1.43A30.61,30.61,0,0,0,41,20.51Z" transform="translate(0 -10.56)"/><path class="cls-5" d="M45.31,13.85h-.07v.07Z" transform="translate(0 -10.56)"/><path class="cls-6" d="M53.42,48.3l-.86.81L49.51,52a5.58,5.58,0,0,1-1.24.69,6.49,6.49,0,0,1-2.39.46c-1.84.06-3.64,0-4.77,0a.22.22,0,0,0,0,.08l-.08.09a.3.3,0,0,1-.08.08l-.09.08-.1.07-.09,0-.13,0-.05,0a11.44,11.44,0,0,1-2.53.49v1.9h6.2a1,1,0,0,1,1.08.86,7.93,7.93,0,0,1-1.6,5.79l-.05.05,0,0a7.54,7.54,0,0,1-.92,1,.69.69,0,0,1-.24.15.61.61,0,0,1-.19.2,6.94,6.94,0,0,1-1.14.74h0l0,0a8.07,8.07,0,0,1-3,.85V67.9l3.64-.09,1.47,0h.09l.2,0,.18,0A4.81,4.81,0,0,0,45,67.61a8,8,0,0,0,3.5-3c.21-.27.32-.43.55-.76s.56-.84,1.21-1.74l.26-.36c.47-.65.84-1.15,1.25-1.68s.76-1,1-1.22l.23-.29a4.91,4.91,0,0,0,.5-3.44v-.06s0,0,0-.07ZM46.13,62.41h0l0,0Zm1.18-3.33c0-.12.09-.12,0,0Zm.12-.16c0-.06,0,0,0,0Zm5.47-4.47h0s0,0,0-.06Zm.19,3.8,0,0,0,0Z" transform="translate(0 -10.56)"/><path class="cls-7" d="M52.56,49.11l.86-.81-.07-6.82-1.63.84,0,0,0,0-.07,0,.18.55A19.8,19.8,0,0,1,52.56,49.11Z" transform="translate(0 -10.56)"/><path class="cls-7" d="M52,36a4.78,4.78,0,0,0-.08-1.85q-.53-1.76-3.26-3.08L48.5,31l-.42.15a26.05,26.05,0,0,1-7.6.88c-.81,0-1.66,0-2.57-.06V33a51,51,0,0,0,5.58.16c3.51-.11,4.35-.51,5.27.21,1.23,1,.53,2.36,2,6.77.12.36.22.63.31.86l1.72-.89a7.34,7.34,0,0,1-.47-1A6.6,6.6,0,0,1,52,36Zm-2.53-3.86h0Z" transform="translate(0 -10.56)"/><path class="cls-8" d="M53.09,58.25l0-.08,0,0Z" transform="translate(0 -10.56)"/><path class="cls-4" d="M45.88,53.13a6.49,6.49,0,0,0,2.39-.46A5.58,5.58,0,0,0,49.51,52l3.05-2.87A19.8,19.8,0,0,0,51.77,43l-.18-.55-2.48,1.29-.25.13-.27.14a4.32,4.32,0,0,1-8.57.73l-.21.08a3.56,3.56,0,0,1-1.9,0v6.91c.32,0,.64-.09,1-.15V50.19a1.22,1.22,0,0,1,2.44,0v2.33s0,0,0,0v.13a.43.43,0,0,1,0,.11.56.56,0,0,1,0,.12.49.49,0,0,1,0,.11l-.06.1v0C42.24,53.18,44,53.19,45.88,53.13Z" transform="translate(0 -10.56)"/><path class="cls-4" d="M48.76,33.39c-.92-.72-1.76-.32-5.27-.21A51,51,0,0,1,37.91,33V43.57a3.56,3.56,0,0,1,1.9,0l.15.06a4.32,4.32,0,0,1,8.37-1.23l.1,0L51,41.08l0,0,.07,0c-.09-.23-.19-.5-.31-.86C49.29,35.75,50,34.36,48.76,33.39Zm-.59,5.17c-.19.26-.5.13-.89,0a5.15,5.15,0,0,0-1.55-.45,5.4,5.4,0,0,0-2.4.3c-1.77.59-2,.68-2,.68a1.53,1.53,0,0,1-.7.23.75.75,0,0,1-.29-.06,1.23,1.23,0,0,1-.53-.87,1.87,1.87,0,0,1-.12-1c.15-.53.63-.64,2.42-1l1.08-.24a21.4,21.4,0,0,1,2.23-.32,2,2,0,0,1,1.46.18,1.73,1.73,0,0,1,.54.82c0,.13.12.28.2.46a7,7,0,0,0,.43.78C48.19,38.18,48.31,38.37,48.17,38.56Z" transform="translate(0 -10.56)"/><path class="cls-3" d="M39.83,74.65c-.63,0-1.27,0-1.91-.06v.55a.16.16,0,0,1,.07,0,30,30,0,0,0,7.75-.52,29.58,29.58,0,0,0,4.67-1.34v-.6a28.09,28.09,0,0,1-3.22,1c-.54.14-1.12.27-1.77.4A29.75,29.75,0,0,1,39.83,74.65Z" transform="translate(0 -10.56)"/><path class="cls-4" d="M45,72.2c.61-.12,1.15-.24,1.66-.37a27,27,0,0,0,3.71-1.26V66.19a10.1,10.1,0,0,1-4.58,3.73,6.86,6.86,0,0,1-2.36.29h-.41l-1.46,0c-1.53,0-2.8.07-3.69.1v2.29H38A27.6,27.6,0,0,0,45,72.2Zm1.66-.62-.05,0-.29,0A1.28,1.28,0,0,1,46.7,71.58Z" transform="translate(0 -10.56)"/><path class="cls-9" d="M48.36,84.31a1.22,1.22,0,0,0-.41.06.74.74,0,0,0-.32.2c0-.1,0-.19,0-.27s0-.13,0-.2l0-.17a1.83,1.83,0,0,1,0-.21v-.08c0-.16-.08-.23-.22-.23a.52.52,0,0,0-.17,0H47l-.11,0h-.13c-.21,0-.31.09-.31.26s.09.26.28.26h.12l.13,0s0,0,0,0a1,1,0,0,1,0,.22v1.76c0,.11,0,.2,0,.28l0,.43v.25A.13.13,0,0,0,47,87V87c0,.24.1.36.29.36a.25.25,0,0,0,.28-.19,1.09,1.09,0,0,0,.72.23,1.32,1.32,0,0,0,.57-.11,1.06,1.06,0,0,0,.43-.33,1.67,1.67,0,0,0,.28-.53,1.89,1.89,0,0,0,.1-.65,1.65,1.65,0,0,0-.35-1.08A1.19,1.19,0,0,0,48.36,84.31Zm.47,2.32a.61.61,0,0,1-.54.28.58.58,0,0,1-.57-.36,2.31,2.31,0,0,1-.08-.72,1.93,1.93,0,0,1,0-.48.66.66,0,0,1,.08-.21.57.57,0,0,1,.15-.16.69.69,0,0,1,.19-.1.59.59,0,0,1,.23,0,.58.58,0,0,1,.51.27,1.32,1.32,0,0,1,.19.76A1.23,1.23,0,0,1,48.83,86.63Z" transform="translate(0 -10.56)"/><path class="cls-3" d="M48.33,84.84a.59.59,0,0,0-.23,0,.69.69,0,0,0-.19.1.57.57,0,0,0-.15.16.66.66,0,0,0-.08.21,1.93,1.93,0,0,0,0,.48,2.31,2.31,0,0,0,.08.72.58.58,0,0,0,.57.36.61.61,0,0,0,.54-.28,1.23,1.23,0,0,0,.2-.76,1.32,1.32,0,0,0-.19-.76A.58.58,0,0,0,48.33,84.84Z" transform="translate(0 -10.56)"/><path class="cls-5" d="M47,37c-.17-.4-.23-.52-.37-.62a.84.84,0,0,0-.53-.13l-.6,0a21.65,21.65,0,0,0-2.17.32l-1.09.24c-1.4.3-2,.43-2,.68h0a1.61,1.61,0,0,0,.12.74c.07.26.14.5.27.57s.37-.07.53-.15.89-.33,2.08-.72a5.91,5.91,0,0,1,2.62-.33,6.3,6.3,0,0,1,1.69.49l.08,0a5.9,5.9,0,0,1-.37-.7C47.1,37.23,47,37.08,47,37Z" transform="translate(0 -10.56)"/><path class="cls-8" d="M47.43,58.92s0-.06,0,0Z" transform="translate(0 -10.56)"/><path class="cls-8" d="M47.31,59.08c.09-.12,0-.12,0,0Z" transform="translate(0 -10.56)"/><path class="cls-9" d="M46.3,84.55a1,1,0,0,0-.31-.17,1,1,0,0,0-.39-.07,1,1,0,0,0-.68.26.22.22,0,0,0-.23-.16l-.13,0H44.1q-.33,0-.33.27c0,.17.09.26.28.26l.14,0h.11s.05.1.06.25l0,1.26a.57.57,0,0,1,0,.13v.14q0,.18-.06.18h-.07l-.07,0h-.1c-.21,0-.3.08-.3.25s.1.27.32.27l.31,0h.34l.24,0,.16,0h.13c.22,0,.32-.09.32-.27s-.09-.25-.26-.25l-.14,0h-.12s-.06-.08-.08-.26a.84.84,0,0,1,0-.12v-.64a2.05,2.05,0,0,1,.09-.69.47.47,0,0,1,.49-.34.43.43,0,0,1,.28.09.25.25,0,0,1,.12.22v0h0a.26.26,0,0,0-.22.09.26.26,0,0,0-.1.21.29.29,0,0,0,.12.24.38.38,0,0,0,.28.11.48.48,0,0,0,.39-.18.65.65,0,0,0,.15-.46,1,1,0,0,0-.07-.35A1.05,1.05,0,0,0,46.3,84.55Z" transform="translate(0 -10.56)"/><path class="cls-10" d="M45.25,13.91v-.07h-.07a.92.92,0,0,0-.29.44Z" transform="translate(0 -10.56)"/><path class="cls-8" d="M43.11,67.77h.38l-.18,0Z" transform="translate(0 -10.56)"/><path class="cls-10" d="M43.5,16.14l.15-.25h0A.21.21,0,0,0,43.5,16.14Z" transform="translate(0 -10.56)"/><path class="cls-9" d="M43.46,86.11a.23.23,0,0,0-.26.26v.27c0,.19,0,.28-.1.28s-.07,0-.09-.13a.31.31,0,0,1,0-.11V85.37c0-.7-.37-1.06-1.11-1.06a1.34,1.34,0,0,0-.81.24.72.72,0,0,0-.34.6.41.41,0,0,0,.12.3.43.43,0,0,0,.31.12h.11a.38.38,0,0,0,.17-.08.34.34,0,0,0,0-.5h0a.12.12,0,0,1,0,0,.74.74,0,0,1,.41-.13.53.53,0,0,1,.37.12.32.32,0,0,1,.13.29.34.34,0,0,1-.09.27,1.69,1.69,0,0,1-.57.12l-.42.06h0a1.23,1.23,0,0,0-.28.12,1,1,0,0,0-.33.31.89.89,0,0,0-.11.43.78.78,0,0,0,.29.65,1.22,1.22,0,0,0,.79.24,1.13,1.13,0,0,0,.86-.31.61.61,0,0,0,.59.29c.43,0,.65-.2.66-.61v-.35C43.75,86.23,43.65,86.11,43.46,86.11Zm-1.09.12a.64.64,0,0,1-.71.68.52.52,0,0,1-.35-.1.35.35,0,0,1-.13-.27c0-.23.19-.36.55-.4a2.06,2.06,0,0,0,.5-.08l.08,0,.06,0Z" transform="translate(0 -10.56)"/><path class="cls-9" d="M40.67,60.46h1.54a.58.58,0,0,0,.58-.58V58.79a.58.58,0,0,0-.58-.58H40.67a.58.58,0,0,0-.57.58v1.09A.58.58,0,0,0,40.67,60.46Z" transform="translate(0 -10.56)"/><path class="cls-3" d="M42.23,86.06a2.06,2.06,0,0,1-.5.08c-.36,0-.55.17-.55.4a.35.35,0,0,0,.13.27.52.52,0,0,0,.35.1.64.64,0,0,0,.71-.68V86l-.06,0Z" transform="translate(0 -10.56)"/><path class="cls-11" d="M38.32,63.37h1.31c.13-.06.27-.11.4-.18l0,0,0,0a6.17,6.17,0,0,0,.77-.48H38.31c-.2,0-.39,0-.39.36S38.11,63.37,38.32,63.37Z" transform="translate(0 -10.56)"/><path class="cls-9" d="M38.07,87.2a1.12,1.12,0,0,0,.73.23,1.32,1.32,0,0,0,.57-.11A1.06,1.06,0,0,0,39.8,87a2.07,2.07,0,0,0,.38-1.18,1.6,1.6,0,0,0-.36-1.08,1.17,1.17,0,0,0-1-.42,1.18,1.18,0,0,0-.41.06.74.74,0,0,0-.32.2,2.26,2.26,0,0,1,0-.27,1.34,1.34,0,0,1,0-.2v-.17a1.25,1.25,0,0,0,0-.21v-.08c0-.16-.07-.23-.21-.23h-.06v4A.2.2,0,0,0,38.07,87.2Zm.12-1.85a.49.49,0,0,1,.08-.21.57.57,0,0,1,.15-.16.69.69,0,0,1,.19-.1.54.54,0,0,1,.22,0,.61.61,0,0,1,.52.27,1.4,1.4,0,0,1,.19.76,1.29,1.29,0,0,1-.2.76.61.61,0,0,1-.54.28.56.56,0,0,1-.57-.36,2,2,0,0,1-.08-.72A1.93,1.93,0,0,1,38.19,85.35Z" transform="translate(0 -10.56)"/><path class="cls-9" d="M38.76,60.46h.54a.49.49,0,0,0,.49-.49V58.7a.49.49,0,0,0-.49-.49h-.54a.49.49,0,0,0-.49.49V60A.49.49,0,0,0,38.76,60.46Z" transform="translate(0 -10.56)"/><path class="cls-3" d="M38.8,86.91a.61.61,0,0,0,.54-.28,1.29,1.29,0,0,0,.2-.76,1.4,1.4,0,0,0-.19-.76.61.61,0,0,0-.52-.27.54.54,0,0,0-.22,0,.69.69,0,0,0-.19.1.57.57,0,0,0-.15.16.49.49,0,0,0-.08.21,1.93,1.93,0,0,0,0,.48,2,2,0,0,0,.08.72A.56.56,0,0,0,38.8,86.91Z" transform="translate(0 -10.56)"/><path class="cls-12" d="M32.51,76a3.2,3.2,0,0,0-.32.49,2.69,2.69,0,0,1-2.07,1.57c-1.52.09-2.32-1.31-3-2.56-.41-.72-1-1.8-1.49-1.88a.46.46,0,0,0-.22,0l-.07,0-.1.07-.13.1-.07,0-.1.08-.05,0-.16.11a.26.26,0,0,1-.08.05h0l-.07,0,0,0-.06,0-.07.06-.09.09a1.61,1.61,0,0,1-.45.3V75a1.79,1.79,0,0,1-1.23,0,1.87,1.87,0,0,1-.94-.72,8.46,8.46,0,0,1-.56-1c-.08,0-.17-.12-.25-.12H17.49v3.48H18a1.59,1.59,0,0,1,.77,1.71,17,17,0,0,0,0,2,1.39,1.39,0,0,1-1.05,1.52l-.26,0v6.74l.41-.18.57.11a1.42,1.42,0,0,1,.9,1.5c0,.7,0,1.39,0,2.09,0,1.19-.39,1.59-1.59,1.67l-.28-.12v2.59h4c.31-.43.1-.92.16-1.39a1.33,1.33,0,1,1,2.65.06c0,.44-.14.9.12,1.31,2.66.09,5.32.07,8,0h0c.29-.43.1-.93.15-1.39a1.43,1.43,0,0,1,1.31-1.32,1.35,1.35,0,0,1,1.32,1.29c0,.31,0,.63,0,.94s0,.5.34.52a.53.53,0,0,0,.2,0,.59.59,0,0,0,.19,0v-7.9h0V79.7l0,0C33.75,76.45,32.71,76.06,32.51,76ZM24,85.34a1.27,1.27,0,0,1-1.38,1,1.25,1.25,0,0,1-1.2-1.22c0-.49,0-1,0-1.46h0c0-.48,0-1,0-1.45a1.29,1.29,0,0,1,2.55-.16A13.17,13.17,0,0,1,24,85.34Zm4.85,6.11a1.31,1.31,0,0,1-1.27,1.31,1.3,1.3,0,0,1-1.35-1.31c0-.9,0-1.8,0-2.69a1.29,1.29,0,0,1,1.27-1.33,1.31,1.31,0,0,1,1.35,1.33c0,.46,0,.92,0,1.38S28.83,91,28.81,91.45ZM32,84.59a1.31,1.31,0,0,1-2.61,0c0-.25,0-.49,0-.73v-.73h0c0-.48,0-1,0-1.45a1.24,1.24,0,0,1,1.33-1.16A1.22,1.22,0,0,1,32,81.76C32,82.7,32,83.65,32,84.59Z" transform="translate(0 -10.56)"/><path class="cls-5" d="M36,54.22v0a11.67,11.67,0,0,1-2.53-.49l0,0-.12,0-.1-.06-.1-.06L33,53.41a.3.3,0,0,1-.08-.08l-.08-.09-.06-.1-.06-.1s0-.07,0-.11,0-.08,0-.12a.43.43,0,0,0,0-.11v-.13s0,0,0,0v-.19h0a15.28,15.28,0,0,0-2.79,0c-1.59.16-2.25.24-2.74.62-.15.13-.39.32-.71,1.53-.13.46-.25,1-.36,1.61a46.8,46.8,0,0,0-.54,5.4,1.22,1.22,0,0,1-1.22,1.14h-.08a1.15,1.15,0,0,1-.65-.24h0l-.13-.13-.06-.05A19.26,19.26,0,0,1,20,58.31l.29,2.17c0,.14,0,.28.06.43.8,3.28,1.79,6.52,2.83,9.74a3.86,3.86,0,0,0,.33,1A3.5,3.5,0,0,1,26,71c1.74.28,2.66,1.91,3.4,3.22.14.24.32.57.49.83a3.22,3.22,0,0,1,1.84-1.61c1.28-.36,2.62.24,4.19,1.92V73.16h0V65.8H29.29a1,1,0,0,1-1-.9,9.65,9.65,0,0,1,.31-3.26c.09-.33.2-.72.36-1.16a.37.37,0,0,1,.05-.11s0-.07,0-.1a7.29,7.29,0,0,1,1.18-2l.06-.05,0,0a6.21,6.21,0,0,1,1-.9,5,5,0,0,1,.51-.34,1,1,0,0,1,.33-.11,1,1,0,0,1,.28-.2,7.1,7.1,0,0,1,3.43-.55l.09,0Z" transform="translate(0 -10.56)"/><path class="cls-5" d="M25.72,38.54c.39.11.56.07.7-.32.26-.78.55-1.55.88-2.3a2.06,2.06,0,0,1,1.13-1.12,1.21,1.21,0,0,1,1.61.35l.1.14A8.8,8.8,0,0,0,36,38.87V13.7h-.47a17.89,17.89,0,0,0-3-.5,19.15,19.15,0,0,0-6.92,1.05,48.58,48.58,0,0,1-11.23,2.52c-.43,0-1.1-.1-1.22.11-.24.39.32.78.44,1.21A10.23,10.23,0,0,0,15,19.44a.62.62,0,0,1,.45.28,1,1,0,0,1,.73.73h0c.28,1,0,1.46-1.18,1.77L11.4,23.69a3.07,3.07,0,0,1-1.05.57,1.45,1.45,0,0,1-.72.46h0l-1.33,1a21.1,21.1,0,0,0-3.14,3,3.06,3.06,0,0,0,1.15-.05l.54,0c.77,0,1.55,0,2.32,0a1.3,1.3,0,0,1,1.34.81,1.21,1.21,0,0,1-.41,1.49,35.27,35.27,0,0,0-3,3l0,0a21.31,21.31,0,0,0-1.84,2.69,20.17,20.17,0,0,0-1.56,3.37s0,0,0,0,0,.2-.08.32a16.39,16.39,0,0,0-.72,3.07c.68-.22,1.29-.44,1.9-.62a1.4,1.4,0,0,1,2,1.44,3.56,3.56,0,0,0,.08,1.22c0,.18,0,.36,0,.54a19.11,19.11,0,0,0,2.78,8.62C11,56.87,13,58.68,14.76,60.66a17.49,17.49,0,0,1,3.41,4.76c.12.29-.06.92.45.8s.14-.68.06-1c-.93-3.22-1.78-6.45-1.5-9.85,0-.49-.19-.54-.6-.55a5.29,5.29,0,0,1-4.35-1.93A4.15,4.15,0,0,1,10.92,50a53.29,53.29,0,0,1,0-5.51A3.4,3.4,0,0,1,11.33,43a5,5,0,0,1,2.74-2.74,1.22,1.22,0,0,1,.78-.28,3.87,3.87,0,0,1,1.84-.27c.38,0,.51-.14.49-.5q0-.94,0-1.89a1.77,1.77,0,0,1,.55-1.43.39.39,0,0,1,.3-.29,2.1,2.1,0,0,1,2.84.27A14.53,14.53,0,0,0,25.72,38.54Z" transform="translate(0 -10.56)"/><path class="cls-9" d="M36,60V58.67a.5.5,0,0,0-.48-.47h-.54a.49.49,0,0,0-.49.5V60a.48.48,0,0,0,.49.49h.54A.5.5,0,0,0,36,60Z" transform="translate(0 -10.56)"/><path class="cls-11" d="M32,63.37h3.26c.19,0,.34,0,.35-.32s-.12-.41-.35-.4H32c-.2,0-.39,0-.39.36S31.81,63.37,32,63.37Z" transform="translate(0 -10.56)"/><path class="cls-9" d="M32.32,60.46h1.23a.57.57,0,0,0,.56-.56V58.77a.56.56,0,0,0-.43-.53,4,4,0,0,0-.44.17,1.05,1.05,0,0,1-.24.06.65.65,0,0,1-.18.15,2.64,2.64,0,0,0-.35.23,3.65,3.65,0,0,0-.68.61l0,0,0,0c-.1.12-.2.25-.29.38s0,.08,0,.12v.06a.36.36,0,0,0,.35.36Z" transform="translate(0 -10.56)"/><path class="cls-4" d="M22.75,45.3c0,1.2,0,2,0,2.73,0,.36.05,1.07.13,2.51a6.92,6.92,0,0,0,.22,1.78,4.6,4.6,0,0,0,.8,1.47,4.73,4.73,0,0,1,1.52-2.73c1.08-.86,2.25-1,4-1.15a17.62,17.62,0,0,1,3.08,0V45.41a.93.93,0,0,1,0-.24,1.21,1.21,0,0,1,1.19-1A1.23,1.23,0,0,1,35,45.41v6.16c.31.06.62.11.94.15V41.33a11.46,11.46,0,0,1-5.11-1.94A11.09,11.09,0,0,1,29.25,38c0,.08,0,.15,0,.22l-.09.22c-.16.43-.3.87-.48,1.29a2.31,2.31,0,0,1-2,1.6,3,3,0,0,1-1.08-.14c-.84-.25-1.66-.54-2.48-.81l-.09,0-.23.42C22.77,42.58,22.75,44.12,22.75,45.3Zm1.94-3.17a2,2,0,0,1,1.76-.65l.28,0a4.64,4.64,0,0,0,1.09-.15,4.21,4.21,0,0,0,1.29-.6,1.67,1.67,0,0,1,1.55-.35c.93.35,1.38,1.47,1.38,3.46A6,6,0,0,1,31.91,45c-.42,2.09-1.92,3.64-3.69,3.64-2.11,0-3.82-2.17-3.82-4.85C24.4,43,24.4,42.51,24.69,42.13Z" transform="translate(0 -10.56)"/><path class="cls-13" d="M30.73,80.56a1.24,1.24,0,0,0-1.33,1.16c0,.48,0,1,0,1.45h0v.73c0,.24,0,.48,0,.73a1.31,1.31,0,0,0,2.61,0c0-.94,0-1.89,0-2.83A1.22,1.22,0,0,0,30.73,80.56Z" transform="translate(0 -10.56)"/><path d="M28.22,48.67c1.77,0,3.27-1.55,3.69-3.64A6,6,0,0,0,32,43.82c0-2-.45-3.11-1.38-3.46a1.67,1.67,0,0,0-1.55.35,4.21,4.21,0,0,1-1.29.6,4.64,4.64,0,0,1-1.09.15l-.28,0a2,2,0,0,0-1.76.65c-.29.38-.29.84-.29,1.69C24.4,46.5,26.11,48.67,28.22,48.67ZM25.89,43a2.25,2.25,0,0,1,.59-.05,7.23,7.23,0,0,0,1.71-.22,5.28,5.28,0,0,0,1.71-.79l.29-.17c.12.11.38.63.38,2.06a4,4,0,0,1-1,2.78,3,3,0,0,0,.16-1c0-1.14-.56-2.06-1.25-2.06s-1.25.92-1.25,2.06a2.91,2.91,0,0,0,.36,1.45,3.53,3.53,0,0,1-1.7-3.25A7.05,7.05,0,0,1,25.89,43Z" transform="translate(0 -10.56)"/><path class="cls-9" d="M27.56,47.07a2.91,2.91,0,0,1-.36-1.45c0-1.14.56-2.06,1.25-2.06s1.25.92,1.25,2.06a3,3,0,0,1-.16,1,4,4,0,0,0,1-2.78c0-1.43-.26-2-.38-2.06l-.29.17a5.28,5.28,0,0,1-1.71.79,7.23,7.23,0,0,1-1.71.22,2.25,2.25,0,0,0-.59.05,7.05,7.05,0,0,0,0,.83A3.53,3.53,0,0,0,27.56,47.07Z" transform="translate(0 -10.56)"/><path class="cls-14" d="M28.81,88.76a1.31,1.31,0,0,0-1.35-1.33,1.29,1.29,0,0,0-1.27,1.33c0,.89,0,1.79,0,2.69a1.3,1.3,0,0,0,1.35,1.31,1.31,1.31,0,0,0,1.27-1.31c0-.44,0-.88,0-1.31S28.83,89.22,28.81,88.76Z" transform="translate(0 -10.56)"/><path class="cls-7" d="M21.19,54.94a14.79,14.79,0,0,0,2,3.3,24.48,24.48,0,0,1,.34-2.6c.13-.68.26-1.26.4-1.78a.25.25,0,0,1,0-.07,4.6,4.6,0,0,1-.8-1.47,6.92,6.92,0,0,1-.22-1.78c-.08-1.44-.12-2.15-.13-2.51,0-.7,0-1.53,0-2.73s0-2.72.09-4.54l.23-.42a22.92,22.92,0,0,1-3.15-1.9,3.31,3.31,0,0,0-.07.34c0,2.82-.27,4.54,0,9.74A22.5,22.5,0,0,0,20,50.78,15.43,15.43,0,0,0,21.19,54.94Z" transform="translate(0 -10.56)"/><path class="cls-14" d="M22.56,81.08a1.2,1.2,0,0,0-1.17,1.16c0,.49,0,1,0,1.45h0c0,.49,0,1,0,1.46a1.25,1.25,0,0,0,1.2,1.22,1.27,1.27,0,0,0,1.38-1,13.17,13.17,0,0,0,0-3.26A1.21,1.21,0,0,0,22.56,81.08Z" transform="translate(0 -10.56)"/><path class="cls-15" d="M17.73,35.87c.19.1.4.25.54,0s-.23-.1-.24-.25A.39.39,0,0,0,17.73,35.87Z" transform="translate(0 -10.56)"/><path class="cls-16" d="M16.71,92.11c0-.63,0-1.26,0-1.89A2.14,2.14,0,0,1,16.93,89a1.3,1.3,0,0,1,.56-.43V81.87c-1-.12-1.32-.57-1.33-1.65,0-.59,0-1.17,0-1.75,0-1.29.3-1.77,1.33-1.83h0V73.15H14c-.45,0-.42.28-.42.59q0,11,0,22c0,.39.09.58.52.57,1.09,0,2.18,0,3.27,0h.17V93.68A1.52,1.52,0,0,1,16.71,92.11Z" transform="translate(0 -10.56)"/><path class="cls-17" d="M16.93,89a2.14,2.14,0,0,0-.21,1.18c0,.63,0,1.26,0,1.89a1.52,1.52,0,0,0,.78,1.57l.28.12c1.2-.08,1.58-.48,1.59-1.67,0-.7,0-1.39,0-2.09a1.42,1.42,0,0,0-.9-1.5l-.57-.11-.41.18A1.3,1.3,0,0,0,16.93,89Z" transform="translate(0 -10.56)"/><path class="cls-14" d="M16.16,78.47c0,.58,0,1.16,0,1.75,0,1.08.35,1.53,1.33,1.65l.26,0a1.39,1.39,0,0,0,1.05-1.52,17,17,0,0,1,0-2A1.59,1.59,0,0,0,18,76.64h-.55C16.46,76.7,16.16,77.18,16.16,78.47Z" transform="translate(0 -10.56)"/><path class="cls-4" d="M17.1,48.61c-.17-.35-.71-.09-1.08-.19a1.27,1.27,0,0,1-1.08-1.25h0a1.23,1.23,0,0,1,1.17-1.24,3.58,3.58,0,0,1,.65,0c.33,0,.42-.13.42-.43q0-1.38,0-2.76c0-.24,0-.39-.34-.43A2.89,2.89,0,0,0,13.55,45c0,.74,0,1.48,0,2.21,0,.38,0,.76,0,1.13a4.87,4.87,0,0,0,.12,1.86c0,.15-.06.32.12.44a3,3,0,0,0,2.82,1.68c.47,0,.59-.16.57-.59,0-.6,0-1.2,0-1.81A3.17,3.17,0,0,0,17.1,48.61Z" transform="translate(0 -10.56)"/><path class="cls-18" d="M16.17,20.46c0,.36-.28.45-.61.45-.17,0-.43.1-.32.26.34.48,0,.74-.25,1.06C16.13,21.92,16.45,21.43,16.17,20.46Z" transform="translate(0 -10.56)"/><path class="cls-18" d="M15.44,19.72a.62.62,0,0,0-.45-.28c.08.21.06.58.45.28.3.19-.06,1,.73.74h0A1,1,0,0,0,15.44,19.72Z" transform="translate(0 -10.56)"/><path class="cls-19" d="M14.85,40a1.22,1.22,0,0,0-.78.28A.8.8,0,0,0,14.85,40Z" transform="translate(0 -10.56)"/><path class="cls-18" d="M13.56,18.08A1.74,1.74,0,0,0,15,19.44,10.23,10.23,0,0,1,13.56,18.08Z" transform="translate(0 -10.56)"/><path class="cls-20" d="M10.92,50a4.15,4.15,0,0,0,1.31,2.9c0-.13-.15-.34,0-.39.41-.14.23-.44.12-.56s-.31,0-.49.12h0s0,0,0,0A13.81,13.81,0,0,1,11,49.32a.43.43,0,0,1,0,0h0c.29.08.06.39.33.43,0-.42,0-.83,0-1.24-.07-1.2.2-2.41-.27-3.58-.07-.21.07-.43.08-.63s.26-.63.26-1a.58.58,0,0,0-.09-.32,3.4,3.4,0,0,0-.42,1.52A53.29,53.29,0,0,0,10.92,50Z" transform="translate(0 -10.56)"/><path class="cls-21" d="M10.24,24c-.22.05.1.17.11.28h0a3.07,3.07,0,0,0,1.05-.57C11,23.47,10.62,23.87,10.24,24Z" transform="translate(0 -10.56)"/><path class="cls-12" d="M11,49.32v0h0A.43.43,0,0,0,11,49.32Z" transform="translate(0 -10.56)"/><path class="cls-22" d="M10.86,75c0-.38,0-.77,0-1.16s-.12-.41-.43-.28a4.73,4.73,0,0,0-2.51,2.39c-.28.58-.26.83.48.85A1.23,1.23,0,0,1,9.58,78h1.28Z" transform="translate(0 -10.56)"/><path class="cls-4" d="M10.86,78H9.58a1.32,1.32,0,0,1-1.2,1.24,2.12,2.12,0,0,1-.43,0c-.31,0-.41.1-.44.41,0,.54,0,.86.7.86a1.23,1.23,0,0,1,.42,2.33c-.14.17-.35.14-.53.17s-.61,0-.59.51.1.62.54.64a.36.36,0,0,1,.38.26,1.5,1.5,0,0,1,.47.69.4.4,0,0,1,0,.59c-.13.27-.14.64-.49.73-.82.22-.61.69-.28,1.13a1.7,1.7,0,0,1-.17,2.51,1.35,1.35,0,0,0-.27.5c-.29.86-.21,1,.6,1.42A1.22,1.22,0,0,1,9,93.22a1.23,1.23,0,0,1-.82,1.17c-.2.08-.51,0-.6.28.1,0,.33-.12.23.23-.27,1.06-.12,1.21,1,1.24.37,0,.75,0,1.12,0a2.44,2.44,0,0,1,.88.13c.21-.2.1-.45.1-.68Z" transform="translate(0 -10.56)"/><path class="cls-23" d="M8.76,96.14c-1.08,0-1.23-.18-1-1.24.1-.35-.13-.18-.23-.23,0,.41,0,.82-.05,1.23,0,.26,0,.42.35.4,1,0,1.93.07,2.89-.06a2.44,2.44,0,0,0-.88-.13C9.51,96.11,9.13,96.15,8.76,96.14Z" transform="translate(0 -10.56)"/><path class="cls-21" d="M9.63,24.72a1.45,1.45,0,0,0,.72-.46h0a.6.6,0,0,0-.71.45c-.57.14-1.24.15-1.34,1l1.33-1Z" transform="translate(0 -10.56)"/><path class="cls-24" d="M8.9,85.18a.47.47,0,0,0,0,.59A.4.4,0,0,0,8.9,85.18Z" transform="translate(0 -10.56)"/><path class="cls-24" d="M8.05,84.23c-.44,0-.53-.23-.54-.64s.29-.45.59-.51.39,0,.53-.17c-1.05-.29-1.14-.18-1.23,1.59.37-.27.69-.08,1,0A.36.36,0,0,0,8.05,84.23Z" transform="translate(0 -10.56)"/><path class="cls-25" d="M36.94,11.8a1,1,0,0,1,1,1v1a22.57,22.57,0,0,1,7.26,0h.14l-.06.06-.37.36,0,0a8.92,8.92,0,0,0-1.2,1.6l-.15.25c-.12.22-.23.45-.33.68a.84.84,0,0,0,.45,1.12A.8.8,0,0,0,44,18a.85.85,0,0,0,.78-.51,6.88,6.88,0,0,1,1.35-2,6.74,6.74,0,0,1,1.31-1.07A12.44,12.44,0,0,1,50.66,16a7.55,7.55,0,0,0-1.24.77,7.72,7.72,0,0,0-2.63,3.85.86.86,0,0,0,.57,1.07,1,1,0,0,0,.25,0,.87.87,0,0,0,.82-.61,6,6,0,0,1,2-3,5.71,5.71,0,0,1,1.67-.89c1.67,1.61,2.86,3.53,2.54,4.24a1.92,1.92,0,0,1-.59.39,7.31,7.31,0,0,0-2.4,1.87,11.63,11.63,0,0,0-1.86,3.12c-.07.16-.13.3-.19.42a3.64,3.64,0,0,1-2.29,1.51,16.14,16.14,0,0,1-2.66.54,10,10,0,0,0,.7-.88,10.33,10.33,0,0,0,1.42-2.86.85.85,0,1,0-1.63-.51A8.54,8.54,0,0,1,44,27.49a8.69,8.69,0,0,1-2.12,2.07c-.8,0-1.66,0-2.57,0,.31-.55.61-1.11.89-1.68a32.53,32.53,0,0,0,2.48-7,.86.86,0,0,0-.65-1,.84.84,0,0,0-1,.64,30.61,30.61,0,0,1-2.34,6.62c-.24.49-.5,1-.76,1.43V32c.91,0,1.76.06,2.57.06a26.05,26.05,0,0,0,7.6-.88L48.5,31l.13.07q2.73,1.32,3.26,3.08A4.78,4.78,0,0,1,52,36a6.6,6.6,0,0,0,.33,3.15,7.34,7.34,0,0,0,.47,1h0l1.49-.78.28-.15a.74.74,0,0,1,.84.1,1.18,1.18,0,0,1,.5-.22,37.14,37.14,0,0,0,1.7-8.9,37.51,37.51,0,0,0-.37-8.26.9.9,0,0,0-.08-.28c.34-3-3.62-6.43-4.12-6.85-5-4.25-11.92-3.95-15.57-3.38a1.35,1.35,0,0,0-.34.11,1.13,1.13,0,0,0-.4.32A.78.78,0,0,1,36.94,11.8ZM55.16,30a35.19,35.19,0,0,1-1.45,7.88,6.1,6.1,0,0,1,0-1.76,6.38,6.38,0,0,0-.15-2.46,6.45,6.45,0,0,0-3.18-3.61,4.58,4.58,0,0,0,1.48-1.67c.08-.15.15-.33.24-.54a9.31,9.31,0,0,1,1.49-2.5,4.63,4.63,0,0,1,1.5-1.2A35.85,35.85,0,0,1,55.16,30Z" transform="translate(0 -10.56)"/><path class="cls-25" d="M54.92,52.66a1.2,1.2,0,0,1,1-1.12l0-4.31-.16.15,0,0-.45-.19.05-.09a.45.45,0,0,1,.13-.16l0,0a.6.6,0,0,1,.11-.12.65.65,0,0,1,.23-.14h0l0,0,0,0h0v-.68l-.08,0,0,0h0a.88.88,0,0,1-.27-.07l-.13-.07a.43.43,0,0,1-.16-.18l.16-.09,0,0-.23-.64.76.45h0l0-3.79a1.24,1.24,0,0,1-.81-.8h0l-1.48.78-.12.06.07,6.82.07,6.7s0,0,0,.07a1.22,1.22,0,0,1,2.42-.23.28.28,0,0,1,0,.09v-1A1.22,1.22,0,0,1,54.92,52.66Z" transform="translate(0 -10.56)"/><path d="M56.14,47.12l.08,0h.08a1.22,1.22,0,0,0,.65.2,1.17,1.17,0,1,0-.79-2H56l-.07,0-.06,0h0l-.76-.45.23.64,0,0-.16.09a.43.43,0,0,0,.16.18l.13.07a.88.88,0,0,0,.27.07h0l0,0,.08,0v.6a.14.14,0,0,0,0,.07h0l0,0,0,0h0a.65.65,0,0,0-.23.14.6.6,0,0,0-.11.12l0,0a.45.45,0,0,0-.13.16l-.05.09.45.19,0,0,.16-.15a.4.4,0,0,1,.16-.08Z" transform="translate(0 -10.56)"/><path d="M72.63,97.21a66.6,66.6,0,0,1-3.2-10.37c-.54-2.43-.83-4.4-1.07-6-.47-3.14-.77-5.21-2.44-7.15-2.46-2.86-6.86-4.06-13.06-3.58v-7.3s0,0,0-.07c.31-.42.59-.8.9-1.19.45-.6.73-.94.92-1.17L55,60a7,7,0,0,0,1-5.09.28.28,0,0,0,0-.09,1.22,1.22,0,0,0-2.42.23v.06a4.91,4.91,0,0,1-.5,3.44l-.23.29c-.2.25-.49.6-1,1.22s-.78,1-1.25,1.68l-.26.36c-.65.9-1,1.39-1.21,1.74s-.34.49-.55.76a8,8,0,0,1-3.5,3,4.81,4.81,0,0,1-1.55.16H43l-1.47,0-3.64.09V65.78a8.07,8.07,0,0,0,3-.85l0,0h0a6.94,6.94,0,0,0,1.14-.74.61.61,0,0,0,.19-.2.69.69,0,0,0,.24-.15,7.54,7.54,0,0,0,.92-1l0,0,.05-.05a7.93,7.93,0,0,0,1.6-5.79,1,1,0,0,0-1.08-.86h-6.2v-1.9a11.44,11.44,0,0,0,2.53-.49l.05,0,.13,0,.09,0,.1-.07.09-.08a.3.3,0,0,0,.08-.08l.08-.09a.22.22,0,0,1,0-.08v0l.06-.1a.49.49,0,0,0,0-.11.56.56,0,0,0,0-.12.43.43,0,0,0,0-.11v-.13s0,0,0,0V50.19a1.22,1.22,0,0,0-2.44,0v1.38c-.31.06-.63.11-1,.15V44.81a3.56,3.56,0,0,0,1.9,0l.21-.08A4.32,4.32,0,0,0,48.59,44l.27-.14.25-.13,2.48-1.29.07,0,0,0,0,0,1.63-.84.12-.06L55,40.64h0a1.24,1.24,0,0,0,.81.8,1.4,1.4,0,0,0,.41,0,3.64,3.64,0,0,1,2.64.85c.69.68.77,1.53.87,3.13S60,49.91,58.33,51a3.4,3.4,0,0,1-2.12.48,1.05,1.05,0,0,0-.31,0,1.2,1.2,0,0,0-1,1.12,1.22,1.22,0,0,0,1,1.27l.15,0h.44a5.63,5.63,0,0,0,3.17-.9c2.83-1.9,2.58-5.85,2.47-7.77C62,43.65,61.94,42,60.56,40.6A5.91,5.91,0,0,0,56.08,39l-.18,0a1.18,1.18,0,0,0-.5.22.74.74,0,0,0-.84-.1l-.28.15-1.49.78h0L51.05,41l-.07,0,0,0-2.52,1.31-.1,0A4.32,4.32,0,0,0,40,43.67l-.15-.06a3.56,3.56,0,0,0-1.9,0V12.78a1,1,0,0,0-1-1,.78.78,0,0,0-.22,0,1.13,1.13,0,0,1,.4-.32l-.18-.09a17.79,17.79,0,0,0-10.66-.08,79.23,79.23,0,0,1-9.82,2.58,8.25,8.25,0,0,1-3.24.2c-2.18-.55-3.49.74-3,3A7,7,0,0,0,11.72,20c.43.5.32.63-.21.86a24.14,24.14,0,0,0-9,6.76,2.23,2.23,0,0,0-.5,2.55A2.25,2.25,0,0,0,4.4,31.37l1.41-.08c-.28.33-.49.57-.67.81a.49.49,0,0,0-.13.12,23.54,23.54,0,0,0-3.85,6.85,2.09,2.09,0,0,0,0,.21h0c-.05.12-.1.26-.15.4a30.75,30.75,0,0,0-.91,3.88,2.13,2.13,0,0,0,1,2.31,2.44,2.44,0,0,0,2.3,0c.58-.25.74-.13.8.51A22.12,22.12,0,0,0,8.11,57.06c1.31,1.89,3,3.41,4.49,5.15,1.29,1.54,3.05,2.78,3,5.23,0,1,.75,1.55,1.77,1.66A3.62,3.62,0,0,0,18.59,69c1.12-.27,1.12-.27,1.48.84,0,0,0,0,0,.06.26.52.08.66-.47.66-2.38,0-4.75,0-7.12,0A7.44,7.44,0,0,0,5,76.26c-.07.35-.21.46-.56.49-.94.08-1.4.51-1.42,1.23s.44,1.2,1.34,1.31c.33,0,.44.12.46.47,0,.55,0,.82-.72.79-1,0-1.62.51-1.62,1.28s.64,1.26,1.63,1.28a.75.75,0,0,0,.15,0c.3,0,.58,0,.56.42s0,.62-.5.66a1.25,1.25,0,1,0,0,2.5.74.74,0,0,1,.81.7,2.34,2.34,0,0,0,.23.69,1,1,0,0,1,0,1.2,3.21,3.21,0,0,0-.47,1.81c0,.56-.07.87-.74.9a1.12,1.12,0,0,0-1.05,1.19A1.06,1.06,0,0,0,4,94.38c.88.06.91.54.84,1.19,0,.19,0,.38,0,.58a2.51,2.51,0,0,0,2.75,2.77c9.94,0,19.88,0,29.82,0h3a.42.42,0,0,0,.16,0l30.51,0a1.53,1.53,0,0,0,.3,0l.11,0A1.25,1.25,0,0,0,72,98.8,1.23,1.23,0,0,0,72.63,97.21ZM40.1,58.79a.58.58,0,0,1,.57-.58h1.54a.58.58,0,0,1,.58.58v1.09a.58.58,0,0,1-.58.58H40.67a.58.58,0,0,1-.57-.58Zm-1.83-.09a.49.49,0,0,1,.49-.49h.54a.49.49,0,0,1,.49.49V60a.49.49,0,0,1-.49.49h-.54a.49.49,0,0,1-.49-.49Zm0,3.95h2.58a6.17,6.17,0,0,1-.77.48l0,0,0,0c-.13.07-.27.12-.4.18H38.32c-.21,0-.4,0-.4-.36S38.11,62.65,38.31,62.65ZM10.76,96.24c-1,.13-1.93,0-2.89.06-.31,0-.36-.14-.35-.4,0-.41,0-.82.05-1.23s.4-.2.6-.28A1.23,1.23,0,0,0,9,93.22a1.22,1.22,0,0,0-.73-1.16c-.81-.38-.89-.56-.6-1.42a1.35,1.35,0,0,1,.27-.5,1.7,1.7,0,0,0,.17-2.51c-.33-.44-.54-.91.28-1.13.35-.09.36-.46.49-.73a.47.47,0,0,1,0-.59,1.5,1.5,0,0,0-.47-.69c-.34-.07-.66-.26-1,0,.09-1.77.18-1.88,1.23-1.59a1.23,1.23,0,0,0-.42-2.33c-.66,0-.75-.32-.7-.86,0-.31.13-.44.44-.41a2.12,2.12,0,0,0,.43,0A1.32,1.32,0,0,0,9.58,78a1.23,1.23,0,0,0-1.17-1.25c-.74,0-.76-.27-.48-.85a4.73,4.73,0,0,1,2.51-2.39c.31-.13.45-.09.43.28s0,.78,0,1.16V95.56C10.86,95.79,11,96,10.76,96.24ZM18,35.58c0,.15.35,0,.24.25s-.35.14-.54,0a1.77,1.77,0,0,0-.55,1.43q0,.95,0,1.89c0,.36-.11.5-.49.5a3.87,3.87,0,0,0-1.84.27.8.8,0,0,1-.78.28A5,5,0,0,0,11.33,43a.58.58,0,0,1,.09.32c0,.32-.25.62-.26,1s-.15.42-.08.63c.47,1.17.2,2.38.27,3.58,0,.41,0,.82,0,1.24-.27,0,0-.35-.33-.43v0a13.81,13.81,0,0,0,.78,2.73l.06,0c.18-.07.36-.27.49-.12s.29.42-.12.56c-.15,0,0,.26,0,.39a5.29,5.29,0,0,0,4.35,1.93c.41,0,.64.06.6.55-.28,3.4.57,6.63,1.5,9.85.08.3.53.83-.06,1s-.33-.51-.45-.8a17.49,17.49,0,0,0-3.41-4.76c-1.78-2-3.76-3.79-5.14-6.11a19.11,19.11,0,0,1-2.78-8.62c0-.18,0-.36,0-.54a3.56,3.56,0,0,1-.08-1.22,1.4,1.4,0,0,0-2-1.44c-.61.18-1.22.4-1.9.62a16.39,16.39,0,0,1,.72-3.07c0-.12.06-.22.08-.32s0,0,0,0a20.17,20.17,0,0,1,1.56-3.37,21.31,21.31,0,0,1,1.84-2.69l0,0a35.27,35.27,0,0,1,3-3,1.21,1.21,0,0,0,.41-1.49,1.3,1.3,0,0,0-1.34-.81c-.77,0-1.55,0-2.32,0l-.54,0a3.06,3.06,0,0,1-1.15.05,21.1,21.1,0,0,1,3.14-3c.1-.82.77-.83,1.34-1a.6.6,0,0,1,.71-.45h0c0-.11-.33-.23-.11-.28.38-.1.71-.5,1.16-.28L15,22.23c.24-.32.59-.58.25-1.06-.11-.16.15-.26.32-.26.33,0,.57-.09.61-.45-.79.29-.43-.55-.73-.74-.39.3-.37-.07-.45-.28a1.74,1.74,0,0,1-1.43-1.36c-.12-.43-.68-.82-.44-1.21.12-.21.79-.08,1.22-.11a48.58,48.58,0,0,0,11.23-2.52,19.15,19.15,0,0,1,6.92-1.05,17.89,17.89,0,0,1,3,.5H36V38.87a8.8,8.8,0,0,1-5.82-3.58l-.1-.14a1.21,1.21,0,0,0-1.61-.35,2.06,2.06,0,0,0-1.13,1.12c-.33.75-.62,1.52-.88,2.3-.14.39-.31.43-.7.32a14.53,14.53,0,0,1-4.85-2.69A2.1,2.1,0,0,0,18,35.58ZM17.18,51.7c0,.43-.1.62-.57.59a3,3,0,0,1-2.82-1.68c-.18-.12-.1-.29-.12-.44a4.87,4.87,0,0,1-.12-1.86c0-.37,0-.75,0-1.13,0-.73,0-1.47,0-2.21a2.89,2.89,0,0,1,3.29-2.7c.3,0,.34.19.34.43q0,1.38,0,2.76c0,.3-.09.45-.42.43a3.58,3.58,0,0,0-.65,0,1.23,1.23,0,0,0-1.17,1.24h0A1.27,1.27,0,0,0,16,48.42c.37.1.91-.16,1.08.19a3.17,3.17,0,0,1,.08,1.28C17.18,50.5,17.16,51.1,17.18,51.7Zm2.67-12.92a3.31,3.31,0,0,1,.07-.34,22.92,22.92,0,0,0,3.15,1.9l.09,0c.82.27,1.64.56,2.48.81a3,3,0,0,0,1.08.14,2.31,2.31,0,0,0,2-1.6c.18-.42.32-.86.48-1.29l.09-.22c0-.07,0-.14,0-.22a11.09,11.09,0,0,0,1.6,1.38A11.46,11.46,0,0,0,36,41.33V51.72c-.32,0-.63-.09-.94-.15V45.41a1.23,1.23,0,0,0-1.23-1.22,1.21,1.21,0,0,0-1.19,1,.93.93,0,0,0,0,.24v4.47a17.62,17.62,0,0,0-3.08,0c-1.78.17-2.95.29-4,1.15a4.73,4.73,0,0,0-1.52,2.73.25.25,0,0,0,0,.07c-.14.52-.27,1.1-.4,1.78a24.48,24.48,0,0,0-.34,2.6,14.79,14.79,0,0,1-2-3.3A15.43,15.43,0,0,1,20,50.78a22.5,22.5,0,0,1-.17-2.26C19.58,43.32,19.85,41.6,19.85,38.78ZM36,83.67v4.74h0v7.9a.59.59,0,0,1-.19,0,.53.53,0,0,1-.2,0c-.37,0-.33-.28-.34-.52s0-.63,0-.94a1.35,1.35,0,0,0-1.32-1.29,1.43,1.43,0,0,0-1.31,1.32c-.05.46.14,1-.15,1.39h0c-2.66,0-5.32.07-8,0-.26-.41-.08-.87-.12-1.31a1.33,1.33,0,1,0-2.65-.06c-.06.47.15,1-.16,1.39H17.32c-1.09,0-2.18,0-3.27,0-.43,0-.52-.18-.52-.57q0-11,0-22c0-.31,0-.6.42-.59h6.9c.08,0,.17.08.25.12a8.46,8.46,0,0,0,.56,1,1.87,1.87,0,0,0,.94.72,1.79,1.79,0,0,0,1.23,0v-.27a1.61,1.61,0,0,0,.45-.3l.09-.09.07-.06.06,0,0,0,.07,0h0a.26.26,0,0,0,.08-.05l.16-.11.05,0,.1-.08.07,0,.13-.1.1-.07.07,0a.46.46,0,0,1,.22,0c.47.08,1.08,1.16,1.49,1.88.7,1.25,1.5,2.65,3,2.56a2.69,2.69,0,0,0,2.07-1.57,3.2,3.2,0,0,1,.32-.49c.2,0,1.24.44,3.42,3.65l0,0Zm-4-21h3.27c.23,0,.36.05.35.4s-.16.32-.35.32H32c-.21,0-.4,0-.4-.36S31.81,62.65,32,62.65Zm-.59-2.55V60s0-.08,0-.12.19-.26.29-.38l0,0,0,0a3.65,3.65,0,0,1,.68-.61,2.64,2.64,0,0,1,.35-.23.65.65,0,0,0,.18-.15,1.05,1.05,0,0,0,.24-.06,4,4,0,0,1,.44-.17.56.56,0,0,1,.43.53V59.9a.57.57,0,0,1-.56.56H31.77A.36.36,0,0,1,31.42,60.1Zm4.06.35h-.54a.48.48,0,0,1-.49-.49V58.7a.49.49,0,0,1,.49-.5h.54a.5.5,0,0,1,.48.47V60A.5.5,0,0,1,35.48,60.45Zm.39-4.38a7.1,7.1,0,0,0-3.43.55,1,1,0,0,0-.28.2,1,1,0,0,0-.33.11,5,5,0,0,0-.51.34,6.21,6.21,0,0,0-1,.9l0,0-.06.05a7.29,7.29,0,0,0-1.18,2s0,.07,0,.1a.37.37,0,0,0-.05.11c-.16.44-.27.83-.36,1.16a9.65,9.65,0,0,0-.31,3.26,1,1,0,0,0,1,.9H36v7.35h0v2.18c-1.57-1.68-2.91-2.28-4.19-1.92A3.22,3.22,0,0,0,29.93,75c-.17-.26-.35-.59-.49-.83C28.7,72.89,27.78,71.26,26,71a3.5,3.5,0,0,0-2.58.68,3.86,3.86,0,0,1-.33-1c-1-3.22-2-6.46-2.83-9.74,0-.15,0-.29-.06-.43L20,58.31a19.26,19.26,0,0,0,3.29,3.92l.06.05.13.13h0a1.15,1.15,0,0,0,.65.24h.08a1.22,1.22,0,0,0,1.22-1.14,46.8,46.8,0,0,1,.54-5.4c.11-.62.23-1.15.36-1.61.32-1.21.56-1.4.71-1.53.49-.38,1.15-.46,2.74-.62a15.28,15.28,0,0,1,2.79,0h0v.19s0,0,0,0v.13a.43.43,0,0,1,0,.11s0,.08,0,.12,0,.07,0,.11l.06.1.06.1.08.09a.3.3,0,0,0,.08.08l.09.08.1.06.1.06.12,0,0,0a11.67,11.67,0,0,0,2.53.49v1.92Zm2,14.28c.89,0,2.16-.07,3.69-.1l1.46,0h.41a6.86,6.86,0,0,0,2.36-.29,10.1,10.1,0,0,0,4.58-3.73v4.38a27,27,0,0,1-3.71,1.26c-.51.13-1.05.25-1.66.37a27.6,27.6,0,0,1-7,.43h-.08Zm12.5,2.33v.6a29.58,29.58,0,0,1-4.67,1.34,30,30,0,0,1-7.75.52.16.16,0,0,0-.07,0v-.55c.64,0,1.28.06,1.91.06a29.75,29.75,0,0,0,5.59-.53c.65-.13,1.23-.26,1.77-.4A28.09,28.09,0,0,0,50.41,72.68ZM69.11,96H64.46c-4.27.23-8.54.12-12.8.14-4.17.17-8.34.17-12.52.14H37.91V88.41h0V77.09q1,.06,2,.06A31.61,31.61,0,0,0,51.45,75l.65-.26a.88.88,0,0,0,.34-.26.84.84,0,0,0,.19-.31,1.23,1.23,0,0,0,.23-.71v-.86c5.49-.46,9.26.46,11.21,2.72,1.2,1.41,1.44,3,1.87,5.92.25,1.62.55,3.64,1.1,6.15A69.92,69.92,0,0,0,69.54,96,2.63,2.63,0,0,1,69.11,96Z" transform="translate(0 -10.56)"/><path d="M47.63,37.21c-.08-.18-.15-.33-.2-.46a1.73,1.73,0,0,0-.54-.82,2,2,0,0,0-1.46-.18,21.4,21.4,0,0,0-2.23.32l-1.08.24c-1.79.39-2.27.5-2.42,1a1.87,1.87,0,0,0,.12,1,1.23,1.23,0,0,0,.53.87.75.75,0,0,0,.29.06,1.53,1.53,0,0,0,.7-.23s.22-.09,2-.68a5.4,5.4,0,0,1,2.4-.3,5.15,5.15,0,0,1,1.55.45c.39.17.7.3.89,0s0-.38-.11-.57A7,7,0,0,1,47.63,37.21Zm-.15.86a6.3,6.3,0,0,0-1.69-.49,5.91,5.91,0,0,0-2.62.33c-1.19.39-2,.66-2.08.72s-.4.21-.53.15-.2-.31-.27-.57a1.61,1.61,0,0,1-.12-.74h0c.07-.25.65-.38,2-.68l1.09-.24a21.65,21.65,0,0,1,2.17-.32l.6,0a.84.84,0,0,1,.53.13c.14.1.2.22.37.62.06.13.12.28.21.46a5.9,5.9,0,0,0,.37.7Z" transform="translate(0 -10.56)"/></svg>