<svg id="Layer_1" data-name="Layer 1" xmlns="http://www.w3.org/2000/svg" viewBox="0 0 413.82 502.95"><defs><style>.cls-1{fill:none;}.cls-2{fill:#383838;}.cls-3{fill:#4e4c4b;}.cls-4{fill:#fcc6a9;}.cls-5{fill:#a56c53;}.cls-6{fill:#9e7466;}.cls-7{fill:#e3a8a3;}.cls-8{fill:#960606;}.cls-9{fill:#fff;}.cls-10{fill:#89511f;}.cls-11{fill:#fe8b7e;}.cls-12{fill:#f8921f;}.cls-13{fill:#010000;}.cls-14{fill:#010101;}.cls-15{fill:#090611;}.cls-16{fill:#dd7a22;}.cls-17{fill:#010100;}.cls-18{fill:#070403;}.cls-19{fill:#0f0807;}.cls-20{fill:#060202;}.cls-21{fill:#0b0506;}.cls-22{fill:#fdb88a;}.cls-23{fill:#f9c29b;}.cls-24{fill:#0a0708;}.cls-25{fill:#020101;}</style></defs><title>tribarb-logo-mobile-home</title><path class="cls-1" d="M400.56,484.78a2.59,2.59,0,0,0-.33-.17,2,2,0,0,1,.08.23A.76.76,0,0,0,400.56,484.78Z" transform="translate(-333.09 -248.54)"/><path class="cls-1" d="M614.43,371.3a.1.1,0,0,0,.06,0,.1.1,0,0,1,0-.06A0,0,0,0,1,614.43,371.3Z" transform="translate(-333.09 -248.54)"/><path class="cls-1" d="M663.23,463s0,0,.06,0,0,0-.06-.05Z" transform="translate(-333.09 -248.54)"/><path class="cls-1" d="M595.61,543.6v-.2a.5.5,0,0,1-.12.14A.23.23,0,0,1,595.61,543.6Z" transform="translate(-333.09 -248.54)"/><path class="cls-1" d="M598.86,595.79a7.36,7.36,0,0,0-2,.31l1.67-.17A.82.82,0,0,1,598.86,595.79Z" transform="translate(-333.09 -248.54)"/><path class="cls-1" d="M634.18,498.27V498a3.45,3.45,0,0,0-.14.34S634.15,498.3,634.18,498.27Z" transform="translate(-333.09 -248.54)"/><path class="cls-2" d="M708.39,650.65c-2.47-16.57-3.83-25.7-10.69-33.67-11.09-12.91-32.55-18.11-63.8-15.5v4.91a6.91,6.91,0,0,1-1.29,4,5.59,5.59,0,0,1-1.05,1.79c24.4,6.75,36.33,18.53,42.27,26.35,7.56,9.93,9.26,18.44,18.32,50.89,5.48,19.58,10.13,35.34,13.1,45.27,1.53,0,3.09,0,4.62,0h3.34c1.08,0,2.19,0,3.3,0,3.29,0,6.59.09,9.88.06a16.57,16.57,0,0,0,2.45-.17,397.77,397.77,0,0,1-14.19-48.85C711.47,671.34,709.76,659.87,708.39,650.65Z" transform="translate(-333.09 -248.54)"/><path class="cls-3" d="M673.83,638.53c-5.94-7.82-17.87-19.6-42.27-26.35a5.5,5.5,0,0,1-2,1.46c-1.19.5-2.43,1-3.67,1.48A176.58,176.58,0,0,1,595.57,624a180.19,180.19,0,0,1-35.42,3.5c-3.74,0-7.49-.12-11.23-.35v36a1.51,1.51,0,0,1,.3,0c.84,0,1.23.44,1.23,1.33v.47c0,.45-.09.84-.12,1.17s-.05.67-.08,1,0,.72,0,1.14,0,.92,0,1.53a4.37,4.37,0,0,1,1.78-1.17,8.24,8.24,0,0,1,2.33-.3,6.73,6.73,0,0,1,5.45,2.36,9.24,9.24,0,0,1,2,6.17,11.17,11.17,0,0,1-.59,3.7,10.51,10.51,0,0,1-1.56,3,6.83,6.83,0,0,1-2.44,1.92,8.34,8.34,0,0,1-3.26.61,6.05,6.05,0,0,1-4.11-1.34,1.26,1.26,0,0,1-.86,1v6h-.06v44.79l7-.08c23.75.14,47.47.14,71.21-.78,24.28-.16,48.58.51,72.86-.8,1.78,0,3.53,0,5.31,0-3-9.93-7.62-25.69-13.1-45.27C683.09,657,681.39,648.46,673.83,638.53ZM582.06,680.6l0,1.81c-.06,2.31-1.31,3.48-3.79,3.48a3.41,3.41,0,0,1-3.33-1.67A6.53,6.53,0,0,1,570,686a6.88,6.88,0,0,1-4.5-1.36,4.63,4.63,0,0,1-1.67-3.7,4.56,4.56,0,0,1,.67-2.48,5.39,5.39,0,0,1,1.86-1.75,6.87,6.87,0,0,1,1.56-.67l.19,0c.47-.09,1.25-.22,2.39-.36a9.26,9.26,0,0,0,3.23-.7,1.72,1.72,0,0,0,.56-1.5,2,2,0,0,0-.76-1.7,3.22,3.22,0,0,0-2.11-.64,4.16,4.16,0,0,0-2.36.73c-.17.14-.23.22-.23.25h0a1.75,1.75,0,0,1,.7,1.42,1.8,1.8,0,0,1-.61,1.39,2.3,2.3,0,0,1-1,.47,3.21,3.21,0,0,1-.58,0,2.4,2.4,0,0,1-1.78-.69,2.37,2.37,0,0,1-.7-1.73,4,4,0,0,1,2-3.36,7.49,7.49,0,0,1,4.56-1.36c4.23,0,6.31,2,6.31,6v6.36c0,.45,0,.81,0,1.12a3.34,3.34,0,0,0,.05.61c.12.5.28.75.53.75s.56-.53.56-1.59v-1.55a1.31,1.31,0,0,1,1.5-1.45c1.09,0,1.61.67,1.61,2Zm15.21-4.86a2.73,2.73,0,0,1-2.22,1,2.23,2.23,0,0,1-1.61-.59,1.7,1.7,0,0,1-.67-1.39,1.63,1.63,0,0,1,.56-1.19,1.69,1.69,0,0,1,1.25-.53h0v-.17a1.48,1.48,0,0,0-.64-1.25,2.6,2.6,0,0,0-1.61-.5,2.71,2.71,0,0,0-2.81,2,12.88,12.88,0,0,0-.47,3.92v3.64c0,.39,0,.61,0,.7.11,1,.25,1.47.44,1.47h.36c.11,0,.23,0,.34,0a2.58,2.58,0,0,1,.78-.14c1,0,1.52.47,1.52,1.44s-.61,1.56-1.83,1.56h-.11a5.18,5.18,0,0,1-.64,0c-.25,0-.56-.05-.89-.11-.64-.05-1.11-.08-1.36-.08h-1.12c-.3,0-.58,0-.83.05l-1.78.17c-1.25,0-1.84-.53-1.84-1.56s.56-1.42,1.73-1.42h.28a.53.53,0,0,1,.27,0l.42.11h.25s.06,0,.11,0h0c.2,0,.31-.33.34-1,0-.25,0-.53,0-.81a6.69,6.69,0,0,0,0-.78l-.08-7.17c-.06-.83-.17-1.31-.34-1.42a3.12,3.12,0,0,1-.33,0,2.24,2.24,0,0,1-.31.06,4.58,4.58,0,0,1-.83.08c-1.06,0-1.56-.47-1.56-1.47s.61-1.53,1.87-1.53a.92.92,0,0,0,.38.05,4,4,0,0,1,.62.06c.16,0,.36,0,.5.05h.58a1.47,1.47,0,0,0,.28,0c.05,0,.08,0,.11,0h.17a2.56,2.56,0,0,1,.69-.09,1.18,1.18,0,0,1,1.31.89,5.63,5.63,0,0,1,3.89-1.44,6.25,6.25,0,0,1,2.23.36,4.8,4.8,0,0,1,1.75,1,4.94,4.94,0,0,1,1.14,1.53,5.24,5.24,0,0,1,.39,2A3.79,3.79,0,0,1,597.27,675.74Zm17.91,4.75a10.76,10.76,0,0,1-1.55,3,6.79,6.79,0,0,1-2.48,1.92,8.09,8.09,0,0,1-3.23.61,6.05,6.05,0,0,1-4.11-1.34,1.4,1.4,0,0,1-1.56,1.09c-1.11,0-1.67-.7-1.67-2v-.45a1,1,0,0,1,0-.33v-.72a6.27,6.27,0,0,1,0-.75l.11-2.42c0-.45,0-1,0-1.59s0-1.14,0-1.58l-.06-8.46a8.61,8.61,0,0,0-.11-1.22c-.06-.19-.17-.31-.31-.31a3.74,3.74,0,0,0-.75.14l-.33,0h-.34c-1.08,0-1.61-.47-1.61-1.45s.61-1.5,1.81-1.5h.39c.14,0,.25,0,.33,0l.64.11a.34.34,0,0,1,.17,0h.17a1,1,0,0,0,.27,0h.23a2.47,2.47,0,0,0,.41,0l.56-.08a3.7,3.7,0,0,1,1-.11c.81,0,1.23.44,1.23,1.33v.47c0,.45-.09.84-.11,1.17l-.09,1c0,.36,0,.72,0,1.14s-.06.92-.06,1.53a4.66,4.66,0,0,1,1.81-1.17,8.24,8.24,0,0,1,2.33-.3,6.73,6.73,0,0,1,5.45,2.36,9.24,9.24,0,0,1,2,6.17A11.17,11.17,0,0,1,615.18,680.49Z" transform="translate(-333.09 -248.54)"/><path class="cls-4" d="M650.91,453.13v.43l.13-.07C651,453.37,651,453.25,650.91,453.13Z" transform="translate(-333.09 -248.54)"/><path class="cls-4" d="M651.19,445.91l.38.14.13,0,.58,0h.43a6.55,6.55,0,0,1,4.46-1.75,6.65,6.65,0,1,1-3.67,12.15h-.08a1.7,1.7,0,0,0-.39,0,2.24,2.24,0,0,0-.46.12l-.69.19a2.49,2.49,0,0,0-.92.46l.25,24.51a6.6,6.6,0,0,1,1.78-.15c4.82.27,8.86-.64,12-2.73,9.44-6.37,8.42-22.86,7.87-31.73-.56-9.07-1-13.94-4.93-17.78-4.84-4.81-12.11-5-15-4.84a7.16,7.16,0,0,1-2.32-.32l.23,21.6Zm12,17.07v-.08s.06,0,.06.05S663.26,463,663.23,463Z" transform="translate(-333.09 -248.54)"/><path class="cls-5" d="M637.89,332.66a52.61,52.61,0,0,0-8.45,14.27c-.5,1.16-1,2.19-1.38,3.05a25.78,25.78,0,0,1-8.41,9.52c9.64,5.7,15.74,12.57,18.08,20.52,1.55,5.23,1.2,9.7.86,14a34.7,34.7,0,0,0,.17,10,198.57,198.57,0,0,0,7.67-78.21A27,27,0,0,0,637.89,332.66Z" transform="translate(-333.09 -248.54)"/><path class="cls-5" d="M566.47,305.14a4.87,4.87,0,0,1,9.49,2.17,183.18,183.18,0,0,1-14.08,39.83q-2.42,4.88-5.08,9.55c5.18.11,10.06.1,14.61,0a49,49,0,0,0,12.08-11.81,48,48,0,0,0,6.72-13.53,4.87,4.87,0,1,1,9.29,2.9,57.43,57.43,0,0,1-8.08,16.27,58.77,58.77,0,0,1-4,5,87,87,0,0,0,15.12-3.05c6.9-2.18,11.3-5.08,13.06-8.61.33-.67.67-1.48,1.07-2.4a66.05,66.05,0,0,1,10.58-17.71,41.54,41.54,0,0,1,13.66-10.66c1.62-.87,3.16-1.69,3.39-2.22,1.79-4-5-15-14.49-24.15a32.66,32.66,0,0,0-9.47,5.09,34.3,34.3,0,0,0-11.66,17.08,4.85,4.85,0,0,1-4.64,3.44,5.12,5.12,0,0,1-1.44-.21,4.87,4.87,0,0,1-3.22-6.08,44,44,0,0,1,15-21.92,42.3,42.3,0,0,1,7-4.39,72.29,72.29,0,0,0-18.57-9.3A39.26,39.26,0,0,0,587.73,288a4.87,4.87,0,0,1-4.47,2.93,4.75,4.75,0,0,1-1.94-.4,4.87,4.87,0,0,1-2.53-6.4c.57-1.31,1.2-2.59,1.87-3.84a1.24,1.24,0,0,1,.54-1.4.85.85,0,0,1,.33-.05,48.46,48.46,0,0,1,6.81-9.07l.15-.15a5.54,5.54,0,0,1,1.68-2.53c-15.7-2.86-30.95-1.7-41.31-.13v84q2.24-4,4.28-8.14A173,173,0,0,0,566.47,305.14Z" transform="translate(-333.09 -248.54)"/><path class="cls-5" d="M590.93,267.25l-.35-.07c0,.13,0,.27,0,.41Z" transform="translate(-333.09 -248.54)"/><path class="cls-6" d="M637.11,463.27l-4.91,4.63c-5.78,5.45-11.54,10.9-17.35,16.35a33.36,33.36,0,0,1-7.06,3.92,37.35,37.35,0,0,1-13.6,2.62c-10.49.33-20.69.28-27.14.16-.09.14-.2.31-.28.45s-.28.33-.45.5a2.79,2.79,0,0,1-.44.47,3.82,3.82,0,0,1-.53.45c-.17.14-.36.25-.56.39s-.36.19-.55.28a6.14,6.14,0,0,1-.7.3,1.35,1.35,0,0,0-.3.14,67.37,67.37,0,0,1-14.41,2.78,2.42,2.42,0,0,1,0,.25V507.5h34.43a5.38,5.38,0,0,1,.69.07l.14,0a5.54,5.54,0,0,1,6.16,4.89,45.07,45.07,0,0,1-9.1,32.93c-.09.12-.21.2-.31.31s-.09.16-.15.24a45.84,45.84,0,0,1-5.25,5.54,5.55,5.55,0,0,1-1.36.88,5.65,5.65,0,0,1-1.06,1.13,40.85,40.85,0,0,1-6.52,4.17,1.57,1.57,0,0,1-.23.09c-.1.06-.19.14-.29.19a45.48,45.48,0,0,1-17.15,4.86v12.08c5.07-.15,12.19-.34,20.71-.53,3.37-.05,6.11-.11,8.35-.19h.54a4.73,4.73,0,0,1,2.11,0c6.35-.18,7.22-.37,8.85-.92,9.13-3.14,15.11-10.82,19.92-17,1.19-1.54,1.83-2.47,3.1-4.35s3.24-4.77,6.91-9.89l1.49-2.07c2.67-3.69,4.78-6.53,7.12-9.55,2.66-3.49,4.31-5.53,5.43-6.92.57-.71,1-1.21,1.33-1.68,3-4,3.93-10.62,2.84-19.56,0-.12,0-.24,0-.36s0-.26,0-.39Zm-41.5,80.33a.23.23,0,0,0-.12-.06.5.5,0,0,0,.12-.14Zm6.75-19c.28-.7.5-.67,0,0Zm.64-.89c.2-.36.11-.19,0,0Zm31.18-25.47s-.12,0-.14,0a3.45,3.45,0,0,1,.14-.34Zm1.08,21.63a1,1,0,0,0,.11-.28c.06,0,.08-.11.14-.16A3.3,3.3,0,0,1,635.26,519.9Z" transform="translate(-333.09 -248.54)"/><path class="cls-7" d="M632.2,467.9l4.91-4.63-.4-38.79-9.27,4.81-.16.09-.18.12-.42.22c.31.89.64,1.87,1,3.12A111,111,0,0,1,632.2,467.9Z" transform="translate(-333.09 -248.54)"/><path class="cls-7" d="M628.88,393.28c.3-3.76.55-7-.48-10.51-2-6.65-8.21-12.54-18.57-17.51a4.69,4.69,0,0,1-.69-.42c-.8.29-1.59.59-2.44.85-10.64,3.34-24.88,5-43.22,5q-6.91,0-14.62-.32v6a280.46,280.46,0,0,0,31.76.89c19.94-.58,24.75-2.89,30,1.22,7,5.51,3.06,13.44,11.31,38.52.68,2.06,1.24,3.62,1.74,4.92l9.82-5.1a35.41,35.41,0,0,1-2.7-5.54C628,404.11,628.49,398.36,628.88,393.28Zm-14.45-22a0,0,0,0,0,0,0,.1.1,0,0,0,0,.06A.1.1,0,0,1,614.43,371.3Z" transform="translate(-333.09 -248.54)"/><path class="cls-8" d="M635.26,519.9a3.3,3.3,0,0,0,.25-.44c-.06,0-.08.11-.14.16A1,1,0,0,1,635.26,519.9Z" transform="translate(-333.09 -248.54)"/><path class="cls-4" d="M594.19,490.79a37.35,37.35,0,0,0,13.6-2.62,33.36,33.36,0,0,0,7.06-3.92c5.81-5.45,11.57-10.9,17.35-16.35a111,111,0,0,0-4.5-35.06c-.38-1.25-.71-2.23-1-3.12q-7.06,3.69-14.12,7.34l-1.41.73-1.54.81a24.57,24.57,0,0,1-48.74,4.15c-.4.16-.8.31-1.2.44a19.93,19.93,0,0,1-5.93.89,20.48,20.48,0,0,1-4.88-.67v39.33a54,54,0,0,0,5.37-.85v-7.81a7,7,0,1,1,13.9,0v13.2c0,.12,0,.2,0,.31s-.05.5-.08.75-.08.42-.11.64-.14.42-.22.64a3.39,3.39,0,0,1-.25.64,5,5,0,0,1-.31.56.91.91,0,0,0-.08.13C573.5,491.07,583.7,491.12,594.19,490.79Z" transform="translate(-333.09 -248.54)"/><path class="cls-4" d="M610.57,378.44c-5.2-4.11-10-1.8-30-1.22a280.46,280.46,0,0,1-31.76-.89V436.4a20,20,0,0,1,4.88-.66,19.31,19.31,0,0,1,5.93.89c.29.09.57.2.86.31a24.56,24.56,0,0,1,47.6-7l.59-.31q7.15-3.7,14.32-7.44a1.53,1.53,0,0,1,.21-.14l.37-.19c-.5-1.3-1.06-2.86-1.74-4.92C613.63,391.88,617.6,384,610.57,378.44Zm-3.32,29.45c-1.08,1.46-2.84.7-5.06-.24a28.09,28.09,0,0,0-22.52-.86c-10,3.33-11.24,3.85-11.29,3.87a9.18,9.18,0,0,1-4,1.3,3.9,3.9,0,0,1-1.65-.36c-1.86-.89-2.45-3-3-4.94s-1.18-4-.68-5.75c.83-3,3.58-3.63,13.78-5.84l6.14-1.35a111.56,111.56,0,0,1,12.71-1.87c3.73-.36,6.14-.48,8.28,1,1.5,1.07,2.06,2.36,3.07,4.7.31.73.68,1.57,1.14,2.58a33.62,33.62,0,0,0,2.47,4.44C607.35,405.72,608,406.78,607.25,407.89Z" transform="translate(-333.09 -248.54)"/><path class="cls-3" d="M559.77,613.24c-3.61,0-7.23-.12-10.85-.34V616c.12,0,.23,0,.35,0a170.22,170.22,0,0,0,44.13-2.94A164.53,164.53,0,0,0,620,605.44v-3.39A169.68,169.68,0,0,1,601.64,608c-3.08.8-6.38,1.54-10.07,2.27A168.33,168.33,0,0,1,559.77,613.24Z" transform="translate(-333.09 -248.54)"/><path class="cls-4" d="M589.44,599.31c3.45-.68,6.54-1.37,9.42-2.12A158.1,158.1,0,0,0,620,590.06V565.12c-5.3,6.81-13.25,16.81-26.08,21.2-3.66,1.25-6.15,1.48-13.43,1.68l-2.31,0c-2.07.08-4.89.14-8.34.2-8.67.18-15.9.38-21,.53v13a2.82,2.82,0,0,1,.41,0A158.08,158.08,0,0,0,589.44,599.31Zm9.42-3.52a.82.82,0,0,0-.28.14l-1.67.17A7.36,7.36,0,0,1,598.86,595.79Z" transform="translate(-333.09 -248.54)"/><path class="cls-9" d="M608.31,668.26a8.24,8.24,0,0,0-2.33.3,4.66,4.66,0,0,0-1.81,1.17c0-.61,0-1.11.06-1.53s0-.78,0-1.14l.09-1c0-.33.08-.72.11-1.17v-.47c0-.89-.42-1.33-1.23-1.33a3.7,3.7,0,0,0-1,.11l-.56.08a2.47,2.47,0,0,1-.41,0h-.23a1,1,0,0,1-.27,0h-.17a.34.34,0,0,0-.17,0l-.64-.11c-.08,0-.19,0-.33,0h-.39c-1.2,0-1.81.5-1.81,1.5s.53,1.45,1.61,1.45h.34l.33,0a3.74,3.74,0,0,1,.75-.14c.14,0,.25.12.31.31a8.61,8.61,0,0,1,.11,1.22l.06,8.46c0,.44,0,1,0,1.58s0,1.14,0,1.59l-.11,2.42a6.27,6.27,0,0,0,0,.75v.72a1,1,0,0,0,0,.33v.45c0,1.33.56,2,1.67,2a1.4,1.4,0,0,0,1.56-1.09,6.05,6.05,0,0,0,4.11,1.34,8.09,8.09,0,0,0,3.23-.61,6.79,6.79,0,0,0,2.48-1.92,10.76,10.76,0,0,0,1.55-3,11.17,11.17,0,0,0,.59-3.7,9.24,9.24,0,0,0-2-6.17A6.73,6.73,0,0,0,608.31,668.26Zm2.7,13.18a3.6,3.6,0,0,1-3.09,1.61,3.28,3.28,0,0,1-3.25-2.06,13,13,0,0,1-.44-4.11,11.42,11.42,0,0,1,.22-2.75,3.51,3.51,0,0,1,.47-1.17,3.21,3.21,0,0,1,.84-.92,3.76,3.76,0,0,1,1.08-.58,3.3,3.3,0,0,1,1.28-.23,3.43,3.43,0,0,1,3,1.56,7.87,7.87,0,0,1,1,4.34A7.34,7.34,0,0,1,611,681.44Z" transform="translate(-333.09 -248.54)"/><path class="cls-3" d="M608.12,671.23a3.3,3.3,0,0,0-1.28.23,3.76,3.76,0,0,0-1.08.58,3.21,3.21,0,0,0-.84.92,3.51,3.51,0,0,0-.47,1.17,11.42,11.42,0,0,0-.22,2.75,13,13,0,0,0,.44,4.11,3.28,3.28,0,0,0,3.25,2.06,3.6,3.6,0,0,0,3.09-1.61,7.34,7.34,0,0,0,1.11-4.31,7.87,7.87,0,0,0-1-4.34A3.43,3.43,0,0,0,608.12,671.23Z" transform="translate(-333.09 -248.54)"/><path class="cls-5" d="M600.46,398.69c-1-2.27-1.3-2.95-2.13-3.54a4.77,4.77,0,0,0-3-.75c-.86,0-1.94.08-3.38.22a112.89,112.89,0,0,0-12.37,1.81c-2.32.52-4.36,1-6.16,1.35-8,1.74-11.3,2.46-11.68,3.86h0c-.29,1,.24,2.81.67,4.23s.81,2.86,1.54,3.21,2.11-.35,3-.81c.72-.38,5.07-1.88,11.86-4.13a30.87,30.87,0,0,1,24.49.94l.49.21a34.61,34.61,0,0,1-2.14-4C601.15,400.29,600.78,399.43,600.46,398.69Z" transform="translate(-333.09 -248.54)"/><path class="cls-8" d="M603,523.74Z" transform="translate(-333.09 -248.54)"/><path class="cls-8" d="M602.36,524.63c.5-.67.28-.7,0,0Z" transform="translate(-333.09 -248.54)"/><path class="cls-9" d="M596.58,669.62a4.8,4.8,0,0,0-1.75-1,6.25,6.25,0,0,0-2.23-.36,5.63,5.63,0,0,0-3.89,1.44,1.18,1.18,0,0,0-1.31-.89,2.56,2.56,0,0,0-.69.09h-.17s-.06,0-.11,0a1.47,1.47,0,0,1-.28,0h-.58c-.14,0-.34,0-.5-.05a4,4,0,0,0-.62-.06.92.92,0,0,1-.38-.05c-1.26,0-1.87.52-1.87,1.53s.5,1.47,1.56,1.47a4.58,4.58,0,0,0,.83-.08,2.24,2.24,0,0,0,.31-.06,3.12,3.12,0,0,0,.33,0c.17.11.28.59.34,1.42l.08,7.17a6.69,6.69,0,0,1,0,.78c0,.28,0,.56,0,.81,0,.67-.14,1-.34,1h0c-.05,0-.08,0-.11,0h-.25l-.42-.11a.53.53,0,0,0-.27,0h-.28c-1.17,0-1.73.48-1.73,1.42s.59,1.56,1.84,1.56l1.78-.17c.25,0,.53,0,.83-.05h1.12c.25,0,.72,0,1.36.08.33.06.64.08.89.11a5.18,5.18,0,0,0,.64,0h.11c1.22,0,1.83-.53,1.83-1.56s-.52-1.44-1.52-1.44a2.58,2.58,0,0,0-.78.14c-.11,0-.23,0-.34,0h-.36c-.19,0-.33-.47-.44-1.47,0-.09,0-.31,0-.7V677a12.88,12.88,0,0,1,.47-3.92,2.71,2.71,0,0,1,2.81-2,2.6,2.6,0,0,1,1.61.5,1.48,1.48,0,0,1,.64,1.25V673h0a1.69,1.69,0,0,0-1.25.53,1.63,1.63,0,0,0-.56,1.19,1.7,1.7,0,0,0,.67,1.39,2.23,2.23,0,0,0,1.61.59,2.73,2.73,0,0,0,2.22-1,3.79,3.79,0,0,0,.84-2.59,5.24,5.24,0,0,0-.39-2A4.94,4.94,0,0,0,596.58,669.62Z" transform="translate(-333.09 -248.54)"/><path class="cls-10" d="M590.59,267.59c0-.14,0-.28,0-.41l-.41-.09a5.54,5.54,0,0,0-1.68,2.53C589.17,268.92,589.87,268.25,590.59,267.59Z" transform="translate(-333.09 -248.54)"/><path class="cls-8" d="M578.46,574.13l1.82,0h.29a4.73,4.73,0,0,0-2.11,0Z" transform="translate(-333.09 -248.54)"/><path class="cls-10" d="M580.66,280.29c.27-.5.58-1,.87-1.45a.85.85,0,0,0-.33.05A1.24,1.24,0,0,0,580.66,280.29Z" transform="translate(-333.09 -248.54)"/><path class="cls-9" d="M580.45,678.49a1.31,1.31,0,0,0-1.5,1.45v1.55c0,1.06-.2,1.59-.56,1.59s-.41-.25-.53-.75a3.34,3.34,0,0,1-.05-.61c0-.31,0-.67,0-1.12v-6.36c0-4-2.08-6-6.31-6a7.49,7.49,0,0,0-4.56,1.36,4,4,0,0,0-2,3.36,2.37,2.37,0,0,0,.7,1.73,2.4,2.4,0,0,0,1.78.69,3.21,3.21,0,0,0,.58,0,2.3,2.3,0,0,0,1-.47,1.8,1.8,0,0,0,.61-1.39,1.75,1.75,0,0,0-.7-1.42h0s.06-.11.23-.25a4.16,4.16,0,0,1,2.36-.73,3.22,3.22,0,0,1,2.11.64,2,2,0,0,1,.76,1.7,1.72,1.72,0,0,1-.56,1.5,9.26,9.26,0,0,1-3.23.7c-1.14.14-1.92.27-2.39.36l-.19,0a6.87,6.87,0,0,0-1.56.67,5.39,5.39,0,0,0-1.86,1.75,4.56,4.56,0,0,0-.67,2.48,4.63,4.63,0,0,0,1.67,3.7A6.88,6.88,0,0,0,570,686a6.53,6.53,0,0,0,4.9-1.78,3.41,3.41,0,0,0,3.33,1.67c2.48,0,3.73-1.17,3.79-3.48l0-1.81v-.16C582.06,679.16,581.54,678.49,580.45,678.49Zm-6.23.67a3.88,3.88,0,0,1-1.08,2.83,4,4,0,0,1-2.95,1.06,3.06,3.06,0,0,1-2-.58,1.93,1.93,0,0,1-.73-1.56c0-1.31,1.06-2,3.15-2.25a13.14,13.14,0,0,0,2.83-.45,3.13,3.13,0,0,0,.42-.16,1.53,1.53,0,0,1,.39-.14Z" transform="translate(-333.09 -248.54)"/><rect class="cls-9" x="228.23" y="271.17" width="15.29" height="12.79" rx="3.28"/><path class="cls-3" d="M573.44,678.21a13.14,13.14,0,0,1-2.83.45c-2.09.22-3.15.94-3.15,2.25a1.93,1.93,0,0,0,.73,1.56,3.06,3.06,0,0,0,2,.58,4,4,0,0,0,2.95-1.06,3.88,3.88,0,0,0,1.08-2.83l0-1.25a1.53,1.53,0,0,0-.39.14A3.13,3.13,0,0,1,573.44,678.21Z" transform="translate(-333.09 -248.54)"/><path class="cls-11" d="M551.17,549.05h7.44c.77-.33,1.55-.65,2.3-1l.27-.1c.09-.06.17-.13.26-.18a30.88,30.88,0,0,0,4.34-2.74H551.14c-1.17,0-2.25-.09-2.22,2S550,549.05,551.17,549.05Z" transform="translate(-333.09 -248.54)"/><path class="cls-9" d="M549.78,684.66a6.05,6.05,0,0,0,4.11,1.34,8.34,8.34,0,0,0,3.26-.61,6.83,6.83,0,0,0,2.44-1.92,10.51,10.51,0,0,0,1.56-3,11.17,11.17,0,0,0,.59-3.7,9.24,9.24,0,0,0-2-6.17,6.73,6.73,0,0,0-5.45-2.36,8.24,8.24,0,0,0-2.33.3,4.37,4.37,0,0,0-1.78,1.17c0-.61,0-1.11,0-1.53s0-.78,0-1.14.06-.67.08-1,.09-.72.12-1.17v-.47c0-.89-.39-1.33-1.23-1.33a1.51,1.51,0,0,0-.3,0v22.53A1.26,1.26,0,0,0,549.78,684.66Zm.64-10.53a3.51,3.51,0,0,1,.47-1.17,3.32,3.32,0,0,1,.83-.92,3.73,3.73,0,0,1,1.12-.58,3.06,3.06,0,0,1,1.25-.23,3.43,3.43,0,0,1,2.95,1.56,7.87,7.87,0,0,1,1.05,4.34,7.34,7.34,0,0,1-1.11,4.31,3.6,3.6,0,0,1-3.09,1.61,3.22,3.22,0,0,1-3.22-2.06,11.75,11.75,0,0,1-.47-4.11A13.23,13.23,0,0,1,550.42,674.13Z" transform="translate(-333.09 -248.54)"/><path class="cls-9" d="M553.7,532.5h3.06a2.79,2.79,0,0,0,2.78-2.78v-7.23a2.79,2.79,0,0,0-2.78-2.78H553.7a2.79,2.79,0,0,0-2.81,2.78v7.23A2.79,2.79,0,0,0,553.7,532.5Z" transform="translate(-333.09 -248.54)"/><path class="cls-3" d="M553.89,683.05a3.6,3.6,0,0,0,3.09-1.61,7.34,7.34,0,0,0,1.11-4.31,7.87,7.87,0,0,0-1.05-4.34,3.43,3.43,0,0,0-2.95-1.56,3.06,3.06,0,0,0-1.25.23,3.73,3.73,0,0,0-1.12.58,3.32,3.32,0,0,0-.83.92,3.51,3.51,0,0,0-.47,1.17,13.23,13.23,0,0,0-.22,2.75,11.75,11.75,0,0,0,.47,4.11A3.22,3.22,0,0,0,553.89,683.05Z" transform="translate(-333.09 -248.54)"/><path class="cls-12" d="M518.13,621a19.43,19.43,0,0,0-1.86,2.78c-1.92,3.17-5.09,8.48-11.73,8.9-8.71.53-13.24-7.45-17.25-14.51-2.3-4.12-5.78-10.29-8.48-10.74a3,3,0,0,0-1.19.16l-.43.32c-.19.12-.37.26-.56.4s-.5.37-.76.53l-.4.19a2.25,2.25,0,0,1-.58.46l-.25.16c-.3.21-.62.42-.95.62a1.16,1.16,0,0,1-.41.3s0,0-.12.08l0,0-.4.2c.08,0,0,.06-.17.16a2.7,2.7,0,0,0-.3.26l-.41.32-.55.53a7.94,7.94,0,0,1-2.53,1.7v1.52a10,10,0,0,1-7,0,10.47,10.47,0,0,1-5.34-4.06,42.16,42.16,0,0,1-3.2-5.89c-.47-.22-1-.67-1.45-.67-6.39,0-12.79,0-19.16,0v19.8c.45,0,.89,0,1.39,0s1.14,0,1.76.05c3.81,2.23,4.75,5.56,4.39,9.76a95.69,95.69,0,0,0-.06,11.49c.17,4.42-1.78,7.25-6,8.62-.53,0-1-.09-1.51-.11v38.4c.67-.34,1.45-.67,2.37-1l3.22.58c3.76,1.64,5.26,4.51,5.09,8.54s0,7.95,0,11.93c0,6.79-2.22,9-9.06,9.48a10.57,10.57,0,0,1-1.59-.69v14.74c7.68,0,15.38,0,23-.06,1.75-2.45.56-5.23.86-7.87.56-4.34,3.62-7.56,7.37-7.51,4.45.06,7.29,3.12,7.73,7.82.22,2.5-.78,5.11.67,7.48,15.15.52,30.28.36,45.44.08v0c1.66-2.47.58-5.28.83-7.92.45-4.09,3.67-7.46,7.45-7.48a7.63,7.63,0,0,1,7.54,7.31c.14,1.78,0,3.56.05,5.37,0,1.36-.19,2.83,1.92,2.92a3.37,3.37,0,0,0,1.17-.17,3.49,3.49,0,0,0,1.06.3V642a2.11,2.11,0,0,1-.17-.22C525.14,623.49,519.27,621.29,518.13,621Zm-48.69,53.06c-.36,3.67-4.11,6.12-7.87,5.89a7.09,7.09,0,0,1-6.78-7c-.14-2.75,0-5.5,0-8.25h0c0-2.76-.17-5.51,0-8.26a6.8,6.8,0,0,1,6.65-6.59c4-.25,7.37,1.83,7.9,5.67A76.5,76.5,0,0,1,469.44,674.07Zm27.61,34.79a7.51,7.51,0,0,1-7.25,7.48,7.39,7.39,0,0,1-7.65-7.48c-.14-5.12-.17-10.24,0-15.33.14-4.39,3.31-7.53,7.26-7.53,4.39,0,7.45,3,7.67,7.53.14,2.62,0,5.26,0,7.87S497.17,706.38,497.05,708.86Zm18.22-39c-.17,4.48-3.09,7-7.56,7-4.23-.05-7-2.53-7.32-6.78-.11-1.39-.05-2.78-.08-4.15v-4.14h.08c0-2.75-.17-5.53,0-8.26.31-4.06,3.42-6.64,7.54-6.62s7.17,2.73,7.31,6.84C515.44,659.08,515.44,664.48,515.27,669.84Z" transform="translate(-333.09 -248.54)"/><path class="cls-5" d="M537.74,497c0-.08,0-.16,0-.24a67.41,67.41,0,0,1-14.4-2.79,1.35,1.35,0,0,0-.3-.14,6,6,0,0,1-.7-.28l-.56-.33a3.48,3.48,0,0,1-.55-.36,3.82,3.82,0,0,1-.53-.45,3.34,3.34,0,0,1-.45-.47c-.16-.17-.3-.33-.44-.5s-.25-.39-.36-.58a5,5,0,0,1-.31-.56,3.39,3.39,0,0,1-.25-.64,5.39,5.39,0,0,1-.22-.64c0-.22-.08-.42-.11-.64l-.09-.75c0-.11,0-.19,0-.31v-1.06l-.33,0a86.43,86.43,0,0,0-15.85.09c-9,.9-12.82,1.35-15.59,3.55-.86.7-2.21,1.78-4.06,8.71-.71,2.62-1.38,5.62-2.06,9.16-1.44,7.4-2.23,18.29-3,30.73a7,7,0,0,1-6.94,6.5h-.45a6.87,6.87,0,0,1-3.72-1.39v0l-.73-.7c-.11-.11-.23-.2-.34-.32a109.64,109.64,0,0,1-18.73-22.29l1.61,12.35c.14.81.2,1.61.39,2.42,4.53,18.72,10.15,37.12,16.1,55.45.61,1.86.84,4.45,1.84,5.76,4.95-3.34,9.87-4.68,14.68-3.9,9.93,1.62,15.16,10.88,19.35,18.33.84,1.42,1.87,3.28,2.84,4.75,1.89-3.14,4.78-7.56,10.43-9.17,7.28-2.06,14.93,1.36,23.86,10.92V562.86h-36.9c-.16,0-.31,0-.46,0a1,1,0,0,0-.17,0h-.44a5.55,5.55,0,0,1-5.53-5.12A53.93,53.93,0,0,1,496,539.21c.51-1.87,1.12-4.1,2-6.61.08-.22.2-.42.3-.63a5.44,5.44,0,0,1,.15-.54,40,40,0,0,1,6.7-11.38c.1-.12.22-.21.33-.32s.12-.18.19-.26a34,34,0,0,1,5.67-5.15c1-.7,1.95-1.32,2.91-1.88a5.4,5.4,0,0,1,1.88-.68,5.77,5.77,0,0,1,1.61-1.11,40.17,40.17,0,0,1,19.5-3.13c.18,0,.34.07.51.1Z" transform="translate(-333.09 -248.54)"/><path class="cls-5" d="M479.48,407.73c2.2.66,3.2.44,4-1.81,1.5-4.42,3.11-8.82,5-13.1a11.91,11.91,0,0,1,6.43-6.37,6.93,6.93,0,0,1,9.19,2l.54.76a49.92,49.92,0,0,0,12,11.94,50.75,50.75,0,0,0,21.1,8.44V266.38h-2.39a1.47,1.47,0,0,0-.25-.08A98,98,0,0,0,518,263.49c-13.57-.84-26.55,2-39.37,6-20.91,6.53-41.88,12.84-63.9,14.34-2.45.14-6.29-.58-7,.59-1.37,2.22,1.86,4.45,2.5,6.92a61.58,61.58,0,0,0,8.17,7.73,3.42,3.42,0,0,1,2.56,1.59c2.09.69,3.65,1.89,4.12,4.17v0c1.64,5.53-.22,8.34-6.68,10.06Q408.2,319,398,323.22a17.32,17.32,0,0,1-6,3.25,8.34,8.34,0,0,1-4.06,2.62l-.06,0c-2.5,1.81-5,3.62-7.56,5.43-6.15,5.2-12.43,10.26-17.91,17.15a17.35,17.35,0,0,0,6.59-.3l3.06-.09c4.39-.08,8.82-.22,13.21-.25,3.45,0,6.26,1.28,7.62,4.62s.3,6.2-2.34,8.51a196.67,196.67,0,0,0-17.13,16.91.38.38,0,0,1-.11.16,118.54,118.54,0,0,0-19.38,34.48.11.11,0,0,1,0,.09c-.11.55-.28,1.17-.47,1.83-1.64,5.62-3.45,11.18-4.12,17.49,3.9-1.27,7.35-2.5,10.85-3.53,6.78-2,11,1.17,11.32,8.21.08,2.3-.42,4.67.44,6.92.06,1,.11,2.06.14,3.06,1.09,17.71,6.87,33.9,15.82,49.08,7.82,13.21,19.11,23.47,29.26,34.73,7.48,8.29,14.9,16.63,19.38,27.14.67,1.62-.33,5.23,2.56,4.51,3.39-.84.8-3.84.33-5.54-5.25-18.35-10.09-36.73-8.51-56.08.22-2.76-1.11-3.09-3.45-3.15-9.76-.16-18.43-2.92-24.74-10.95a23.63,23.63,0,0,1-7.46-16.49c-.64-10.43-.41-20.91-.05-31.4a19.52,19.52,0,0,1,2.42-8.62c2.92-7.48,8.39-12.4,15.57-15.63a7.11,7.11,0,0,1,4.42-1.58c3.34-1.67,6.95-1.5,10.48-1.5,2.2,0,2.9-.81,2.81-2.9-.11-3.55-.14-7.14,0-10.7.14-3,.45-6.06,3.12-8.15a2.32,2.32,0,0,1,1.72-1.7c5.45-3.64,10.15-3.3,16.13,1.56A83,83,0,0,0,479.48,407.73Z" transform="translate(-333.09 -248.54)"/><path class="cls-9" d="M537.74,529.81v-7.49a2.79,2.79,0,0,0-2.76-2.67h-3.05a2.77,2.77,0,0,0-2.78,2.81v7.2a2.77,2.77,0,0,0,2.78,2.78H535A2.77,2.77,0,0,0,537.74,529.81Z" transform="translate(-333.09 -248.54)"/><path class="cls-11" d="M515.3,549.05q9.3,0,18.6,0c1.06,0,1.92,0,2-1.86s-.66-2.28-2-2.25c-3.08.08-6.2,0-9.29,0h-9.31c-1.17,0-2.23-.09-2.23,2S514.13,549.05,515.3,549.05Z" transform="translate(-333.09 -248.54)"/><path class="cls-9" d="M517.05,532.5h7a3.22,3.22,0,0,0,3.2-3.2v-6.39a3.17,3.17,0,0,0-2.43-3,24.08,24.08,0,0,0-2.51.94,5.52,5.52,0,0,1-1.34.39,5.12,5.12,0,0,1-1.06.83c-.66.39-1.34.82-2,1.29a23.79,23.79,0,0,0-3.82,3.46,3.2,3.2,0,0,1-.27.25c-.06.07-.1.16-.16.23a24.11,24.11,0,0,0-1.65,2.19c0,.21-.06.41-.06.63v.39a2,2,0,0,0,2,2Z" transform="translate(-333.09 -248.54)"/><path class="cls-4" d="M462.55,446.21c0,6.84.13,11.57.25,15.52.05,2.08.27,6.14.72,14.29.3,5.51.44,7.45,1.28,10.12a26.35,26.35,0,0,0,4.52,8.42c2.17-8,4.55-12.25,8.69-15.58,6.11-4.86,12.8-5.53,22.92-6.54a100.84,100.84,0,0,1,17.54-.16V446.85a7.12,7.12,0,0,1,.14-1.39,7,7,0,0,1,13.76,1.39v35c1.78.37,3.56.66,5.37.86v-59.1a64.82,64.82,0,0,1-29.07-11.09,63.54,63.54,0,0,1-9.11-7.81c0,.42,0,.84.05,1.25-.16.39-.33.78-.5,1.25-.92,2.45-1.72,4.95-2.72,7.34-2.34,5.62-6.2,8.71-11.21,9.07a16.94,16.94,0,0,1-6.17-.78c-4.76-1.39-9.43-3.06-14.1-4.61l-.53-.28-1.28,2.42C462.66,430.75,462.55,439.48,462.55,446.21Zm11.06-18c2.73-3.5,6.57-3.61,10-3.69.52,0,1.08,0,1.64-.09a26.89,26.89,0,0,0,6.17-.86,24.2,24.2,0,0,0,7.37-3.45c2.28-1.47,5.09-3.28,8.81-1.94,5.26,1.94,7.82,8.37,7.82,19.66a34.25,34.25,0,0,1-.7,6.89c-2.42,11.9-10.93,20.72-21,20.72-12,0-21.72-12.38-21.72-27.61C472,433,472,430.33,473.61,428.16Z" transform="translate(-333.09 -248.54)"/><path class="cls-13" d="M508,646.87c-4.12,0-7.23,2.56-7.54,6.62-.2,2.73,0,5.51,0,8.26h-.08v4.14c0,1.37,0,2.76.08,4.15.36,4.25,3.09,6.73,7.32,6.78,4.47.06,7.39-2.5,7.56-7,.17-5.36.17-10.76,0-16.13C515.13,649.6,512,646.93,508,646.87Z" transform="translate(-333.09 -248.54)"/><path d="M493.69,465.4c10.09,0,18.6-8.82,21-20.72a34.25,34.25,0,0,0,.7-6.89c0-11.29-2.56-17.72-7.82-19.66-3.72-1.34-6.53.47-8.81,1.94a24.2,24.2,0,0,1-7.37,3.45,26.89,26.89,0,0,1-6.17.86c-.56.06-1.12.06-1.64.09-3.42.08-7.26.19-10,3.69C472,430.33,472,433,472,437.79,472,453,481.7,465.4,493.69,465.4Zm-13.26-32.31a13,13,0,0,1,3.39-.31,41.19,41.19,0,0,0,9.73-1.22,32.25,32.25,0,0,0,9.73-4.51c.53-.33,1.23-.78,1.64-1,.64.64,2.17,3.59,2.17,11.74,0,6.48-2.36,12.32-5.86,15.82a17.61,17.61,0,0,0,.89-5.59c0-6.45-3.17-11.68-7.1-11.68s-7.11,5.23-7.11,11.68a16.48,16.48,0,0,0,2,8.26c-5.5-2.37-9.67-9.87-9.67-18.49C480.29,436.45,480.29,434.06,480.43,433.09Z" transform="translate(-333.09 -248.54)"/><path class="cls-9" d="M490,456.28a16.48,16.48,0,0,1-2-8.26c0-6.45,3.19-11.68,7.11-11.68s7.1,5.23,7.1,11.68a17.61,17.61,0,0,1-.89,5.59c3.5-3.5,5.86-9.34,5.86-15.82,0-8.15-1.53-11.1-2.17-11.74-.41.22-1.11.67-1.64,1a32.25,32.25,0,0,1-9.73,4.51,41.19,41.19,0,0,1-9.73,1.22,13,13,0,0,0-3.39.31c-.14,1-.14,3.36-.14,4.7C480.29,446.41,484.46,453.91,490,456.28Z" transform="translate(-333.09 -248.54)"/><path class="cls-14" d="M497.05,693.53c-.22-4.58-3.28-7.5-7.67-7.53-3.95,0-7.12,3.14-7.26,7.53-.14,5.09-.11,10.21,0,15.33a7.39,7.39,0,0,0,7.65,7.48,7.51,7.51,0,0,0,7.25-7.48c.12-2.48,0-5,0-7.46S497.19,696.15,497.05,693.53Z" transform="translate(-333.09 -248.54)"/><path class="cls-7" d="M453.67,501.1A88,88,0,0,0,465,519.86c.51-5.61,1.13-10.62,1.94-14.8.74-3.86,1.49-7.17,2.28-10.13,0-.13.07-.24.11-.37a26.35,26.35,0,0,1-4.52-8.42c-.84-2.67-1-4.61-1.28-10.12-.45-8.15-.67-12.21-.72-14.29-.12-4-.25-8.68-.25-15.52s.11-15.46.55-25.8l1.28-2.42a130.19,130.19,0,0,1-17.91-10.79,12.89,12.89,0,0,0-.39,1.92c0,16.07-1.55,25.83.06,55.42.42,8,.42,9.42.92,12.84A91.29,91.29,0,0,0,453.67,501.1Z" transform="translate(-333.09 -248.54)"/><path class="cls-14" d="M461.46,649.88a6.8,6.8,0,0,0-6.65,6.59c-.19,2.75,0,5.5,0,8.26h0c0,2.75-.11,5.5,0,8.25a7.09,7.09,0,0,0,6.78,7c3.76.23,7.51-2.22,7.87-5.89a76.5,76.5,0,0,0-.08-18.52C468.83,651.71,465.47,649.63,461.46,649.88Z" transform="translate(-333.09 -248.54)"/><path class="cls-15" d="M434,392.57c1.11.53,2.3,1.39,3.08-.25.62-1.25-1.3-.56-1.36-1.45A2.32,2.32,0,0,0,434,392.57Z" transform="translate(-333.09 -248.54)"/><path class="cls-16" d="M428.2,712.61c.2-3.59,0-7.17.06-10.76,0-3.25.22-5.23,1.19-6.67a7.2,7.2,0,0,1,3.17-2.45v-38.4c-5.59-.67-7.53-3.2-7.59-9.4,0-3.31,0-6.62,0-9.93,0-7.37,1.73-10.09,7.59-10.43V604.74q-10,0-20.07,0c-2.59,0-2.42,1.61-2.42,3.33q0,62.58,0,125.19c0,2.2.5,3.29,3,3.23,6.17-.19,12.37-.14,18.57-.19h1V721.54C429.26,719.76,428,716.73,428.2,712.61Z" transform="translate(-333.09 -248.54)"/><path class="cls-17" d="M429.45,695.18c-1,1.44-1.19,3.42-1.19,6.67,0,3.59.14,7.17-.06,10.76-.25,4.12,1.06,7.15,4.42,8.93a10.57,10.57,0,0,0,1.59.69c6.84-.47,9-2.69,9.06-9.48,0-4-.11-8,0-11.93s-1.33-6.9-5.09-8.54L435,691.7c-.92.36-1.7.69-2.37,1A7.2,7.2,0,0,0,429.45,695.18Z" transform="translate(-333.09 -248.54)"/><path class="cls-14" d="M425,635c0,3.31,0,6.62,0,9.93.06,6.2,2,8.73,7.59,9.4.48,0,1,.08,1.51.11,4.19-1.37,6.14-4.2,6-8.62a95.69,95.69,0,0,1,.06-11.49c.36-4.2-.58-7.53-4.39-9.76-.62,0-1.2-.05-1.76-.05s-.94,0-1.39,0v0C426.76,624.91,425,627.63,425,635Z" transform="translate(-333.09 -248.54)"/><path class="cls-4" d="M430.4,465.07c-1-2-4-.53-6.15-1.09-3.83-1-6.14-3.47-6.14-7.12v-.05c0-3.79,2.58-6.54,6.67-7.07a20.86,20.86,0,0,1,3.7-.14c1.86.12,2.39-.77,2.39-2.47-.05-5.23-.05-10.46,0-15.68,0-1.39-.19-2.23-1.91-2.48-9.43-1.39-18.44,5.9-18.72,15.38q-.16,6.3-.08,12.6c0,2.14,0,4.28.05,6.42.09,3.5-.72,7.12.73,10.54.08.86-.37,1.86.64,2.5,3.28,6.7,9,9.23,16.1,9.59,2.64.14,3.33-.88,3.22-3.33-.14-3.42,0-6.87,0-10.32C430.82,469.88,431.43,467,430.4,465.07Z" transform="translate(-333.09 -248.54)"/><path class="cls-18" d="M425.09,304.84c-.2,2.08-1.59,2.58-3.42,2.56-1,0-2.45.58-1.84,1.5,1.95,2.75-.05,4.22-1.42,6C424.87,313.18,426.73,310.37,425.09,304.84Z" transform="translate(-333.09 -248.54)"/><path class="cls-18" d="M421,300.64a3.42,3.42,0,0,0-2.56-1.59c.45,1.17.31,3.31,2.56,1.62,1.7,1.05-.36,5.84,4.12,4.17v0C424.62,302.53,423.06,301.33,421,300.64Z" transform="translate(-333.09 -248.54)"/><path class="cls-19" d="M417.58,415.82a7.11,7.11,0,0,0-4.42,1.58A4.42,4.42,0,0,0,417.58,415.82Z" transform="translate(-333.09 -248.54)"/><path class="cls-18" d="M410.24,291.32c.47,3.65,4,6.95,8.17,7.73A61.58,61.58,0,0,1,410.24,291.32Z" transform="translate(-333.09 -248.54)"/><path class="cls-20" d="M395.22,473.05a23.63,23.63,0,0,0,7.46,16.49c.16-.75-.87-1.92,0-2.23,2.31-.78,1.28-2.5.67-3.2s-1.75.31-2.81.67a.76.76,0,0,1-.25.06,2,2,0,0,0-.08-.23c-2.14-4.92-3.28-10.09-4.42-15.48a1.28,1.28,0,0,0-.06-.34s.06,0,.08,0c1.64.44.34,2.22,1.87,2.42,0-2.39.11-4.73,0-7.06-.36-6.79,1.17-13.71-1.5-20.36-.45-1.17.39-2.45.42-3.59.08-1.86,1.5-3.56,1.5-5.39a3.5,3.5,0,0,0-.5-1.81,19.52,19.52,0,0,0-2.42,8.62C394.81,452.14,394.58,462.62,395.22,473.05Z" transform="translate(-333.09 -248.54)"/><path class="cls-21" d="M391.36,324.8c-1.25.31.55,1,.61,1.64v0a17.32,17.32,0,0,0,6-3.25C395.39,322,393.55,324.27,391.36,324.8Z" transform="translate(-333.09 -248.54)"/><path class="cls-12" d="M395.81,469.13a1.67,1.67,0,0,0,0-.31s-.05,0-.08,0A1.28,1.28,0,0,1,395.81,469.13Z" transform="translate(-333.09 -248.54)"/><path class="cls-22" d="M394.92,615.2c0-2.2-.09-4.42,0-6.62s-.69-2.31-2.41-1.58a26.8,26.8,0,0,0-14.3,13.59c-1.58,3.29-1.5,4.7,2.73,4.84a7,7,0,0,1,6.64,7.12h7.32Z" transform="translate(-333.09 -248.54)"/><path class="cls-4" d="M394.92,632.55H387.6c-.08,3.62-2.83,6.45-6.84,7a10,10,0,0,1-2.44.16c-1.76-.13-2.34.59-2.51,2.37-.28,3.06.25,4.86,4,4.89a6.21,6.21,0,0,1,6.26,5.56c.55,3.4-.2,6.32-3.87,7.68-.78,1-2,.81-3,1-1.7.33-3.48.08-3.4,2.86.09,2.34.61,3.56,3.09,3.65a2.08,2.08,0,0,1,2.17,1.5,8,8,0,0,1,2.67,3.92c.8,1.17,1,2.28-.17,3.36-.72,1.56-.81,3.65-2.81,4.18-4.67,1.22-3.45,3.89-1.55,6.42,3.83,5.14,3.58,9.79-1,14.29a7.58,7.58,0,0,0-1.53,2.84c-1.64,4.87-1.16,5.89,3.43,8.06a6.87,6.87,0,0,1,4.14,6.59,7,7,0,0,1-4.67,6.68c-1.14.47-2.87-.2-3.4,1.61.59.28,1.87-.7,1.34,1.31-1.59,6-.7,6.87,5.42,7,2.11.06,4.26-.19,6.37-.19a14,14,0,0,1,5,.78c1.2-1.14.56-2.59.56-3.9Q394.94,682.4,394.92,632.55Z" transform="translate(-333.09 -248.54)"/><path class="cls-23" d="M382.93,735.55c-6.12-.16-7-1-5.42-7,.53-2-.75-1-1.34-1.31-.08,2.34-.13,4.67-.27,7-.09,1.47.19,2.36,2,2.28,5.48-.25,11,.39,16.46-.33a14,14,0,0,0-5-.78C387.19,735.36,385,735.61,382.93,735.55Z" transform="translate(-333.09 -248.54)"/><path class="cls-21" d="M387.91,329.09a8.34,8.34,0,0,0,4.06-2.62h0a3.47,3.47,0,0,0-4.06,2.59c-3.25.8-7.06.86-7.59,5.48,2.53-1.81,5.06-3.62,7.56-5.43Z" transform="translate(-333.09 -248.54)"/><path class="cls-24" d="M383.74,673.18c-.67,1.08-1.09,2.2-.17,3.36C384.74,675.46,384.54,674.35,383.74,673.18Z" transform="translate(-333.09 -248.54)"/><path class="cls-24" d="M378.9,667.76c-2.48-.09-3-1.31-3.09-3.65-.08-2.78,1.7-2.53,3.4-2.86,1-.19,2.19,0,3-1-6-1.61-6.45-1-7,9,2.09-1.51,3.95-.45,5.87,0A2.08,2.08,0,0,0,378.9,667.76Z" transform="translate(-333.09 -248.54)"/><path class="cls-25" d="M543.3,255.56a5.56,5.56,0,0,1,5.56,5.56V267c10.36-1.57,25.61-2.73,41.31.13l.41.09.35.07-.34.34c-.72.66-1.42,1.33-2.1,2l-.15.15a48.46,48.46,0,0,0-6.81,9.07c-.29.48-.6,1-.87,1.45-.67,1.25-1.3,2.53-1.87,3.84a4.87,4.87,0,0,0,2.53,6.4,4.75,4.75,0,0,0,1.94.4,4.87,4.87,0,0,0,4.47-2.93,39.26,39.26,0,0,1,15.11-17.61,72.29,72.29,0,0,1,18.57,9.3,42.3,42.3,0,0,0-7,4.39,44,44,0,0,0-15,21.92,4.87,4.87,0,0,0,3.22,6.08,5.12,5.12,0,0,0,1.44.21,4.85,4.85,0,0,0,4.64-3.44,34.3,34.3,0,0,1,11.66-17.08,32.66,32.66,0,0,1,9.47-5.09c9.5,9.17,16.28,20.12,14.49,24.15-.23.53-1.77,1.35-3.39,2.22a41.54,41.54,0,0,0-13.66,10.66,66.05,66.05,0,0,0-10.58,17.71c-.4.92-.74,1.73-1.07,2.4-1.76,3.53-6.16,6.43-13.06,8.61a87,87,0,0,1-15.12,3.05,58.77,58.77,0,0,0,4-5,57.43,57.43,0,0,0,8.08-16.27,4.87,4.87,0,1,0-9.29-2.9,48,48,0,0,1-6.72,13.53,49,49,0,0,1-12.08,11.81c-4.55.14-9.43.15-14.61,0q2.66-4.68,5.08-9.55A183.18,183.18,0,0,0,576,307.31a4.87,4.87,0,0,0-9.49-2.17,173,173,0,0,1-13.33,37.7q-2,4.14-4.28,8.14v19.38q7.7.31,14.62.32c18.34,0,32.58-1.65,43.22-5,.85-.26,1.64-.56,2.44-.85a4.69,4.69,0,0,0,.69.42c10.36,5,16.61,10.86,18.57,17.51,1,3.51.78,6.75.48,10.51-.39,5.08-.85,10.83,1.86,18a35.41,35.41,0,0,0,2.7,5.54l.1,0,8.49-4.44c.58-.29,1.09-.54,1.6-.82a4.15,4.15,0,0,1,4.75.54,6.9,6.9,0,0,1,2.87-1.26,213,213,0,0,0,7.56-97.64,6.49,6.49,0,0,0-.47-1.59c1.94-17-20.62-36.59-23.43-39-28.69-24.23-67.83-22.48-88.61-19.27a7.09,7.09,0,0,0-1.95.64,6.79,6.79,0,0,0-2.31,1.8A5.24,5.24,0,0,1,543.3,255.56ZM647,359.19a198.53,198.53,0,0,1-8.25,44.88,34.7,34.7,0,0,1-.17-10c.34-4.33.69-8.8-.86-14-2.34-7.95-8.44-14.82-18.08-20.52a25.78,25.78,0,0,0,8.41-9.52c.43-.86.88-1.89,1.38-3.05a52.61,52.61,0,0,1,8.45-14.27,27,27,0,0,1,8.54-6.8A199.6,199.6,0,0,1,647,359.19Z" transform="translate(-333.09 -248.54)"/><path class="cls-25" d="M645.64,488.1a7,7,0,0,1,5.57-6.38L651,457.21a8.44,8.44,0,0,0-.93.83l-.14-.15-2.52-1.1.27-.52a2.59,2.59,0,0,1,.74-.87l.15-.15a4,4,0,0,1,.65-.66,4.14,4.14,0,0,1,1.29-.83h0l.28-.1.11-.07.06,0v-.43l0-3.46a3.48,3.48,0,0,1-.43-.18l-.25-.13-.12-.05h0a4.33,4.33,0,0,1-1.51-.41,4.58,4.58,0,0,1-.77-.38,2.64,2.64,0,0,1-.91-1l.92-.54c0-.06-.08-.1-.11-.16l-1.33-3.63,4.33,2.56.15.06-.23-21.6a7,7,0,0,1-4.63-4.54l-.16.09-8.43,4.41-.68.35.4,38.79.4,38.14c0,.13,0,.26,0,.39a6.94,6.94,0,0,1,13.81-1.31c0,.19,0,.36,0,.55l0-5.72A7,7,0,0,1,645.64,488.1Z" transform="translate(-333.09 -248.54)"/><path d="M652.57,456.56a2.24,2.24,0,0,1,.46-.12,1.7,1.7,0,0,1,.39,0h.08a6.63,6.63,0,1,0,3.67-12.15,6.55,6.55,0,0,0-4.46,1.75h-.43l-.58,0-.13,0-.38-.14-.35-.14-.15-.06-4.33-2.56,1.33,3.63c0,.06.08.1.11.16l-.92.54a2.64,2.64,0,0,0,.91,1,4.58,4.58,0,0,0,.77.38,4.33,4.33,0,0,0,1.51.41h0l.12.05.25.13a3.48,3.48,0,0,0,.43.18l0,3.46c.05.12.1.24.14.36l-.13.07-.06,0-.11.07-.28.1h0a4.14,4.14,0,0,0-1.29.83,4,4,0,0,0-.65.66l-.15.15a2.59,2.59,0,0,0-.74.87l-.27.52,2.52,1.1.14.15a8.44,8.44,0,0,1,.93-.83,2.49,2.49,0,0,1,.92-.46Z" transform="translate(-333.09 -248.54)"/><path d="M746.41,741.67a383.16,383.16,0,0,1-18.19-59c-3.07-13.86-4.74-25.06-6.08-34.06-2.66-17.86-4.41-29.67-13.89-40.68-14-16.3-39-23.13-74.35-20.39V546c0-.13,0-.25,0-.38,1.78-2.44,3.39-4.57,5.13-6.81,2.57-3.38,4.14-5.34,5.22-6.66.71-.88,1.22-1.52,1.69-2.14,5.07-6.91,6.92-16.66,5.51-29,0-.19,0-.36,0-.55a6.94,6.94,0,0,0-13.81,1.31c0,.12,0,.24,0,.36,1.09,8.94.12,15.54-2.84,19.56-.34.47-.76,1-1.33,1.68-1.12,1.39-2.77,3.43-5.43,6.92-2.34,3-4.45,5.86-7.12,9.55l-1.49,2.07c-3.67,5.12-5.57,7.92-6.91,9.89s-1.91,2.81-3.1,4.35c-4.81,6.17-10.79,13.85-19.92,17-1.63.55-2.5.74-8.85.92h-.29l-1.82,0h-.54c-2.24.08-5,.14-8.35.19-8.52.19-15.64.38-20.71.53V562.77A45.48,45.48,0,0,0,566,557.91c.1,0,.19-.13.29-.19a1.57,1.57,0,0,0,.23-.09,40.85,40.85,0,0,0,6.52-4.17,5.65,5.65,0,0,0,1.06-1.13,5.55,5.55,0,0,0,1.36-.88,45.84,45.84,0,0,0,5.25-5.54c.06-.08.1-.16.15-.24s.22-.19.31-.31a45.07,45.07,0,0,0,9.1-32.93,5.54,5.54,0,0,0-6.16-4.89l-.14,0a5.38,5.38,0,0,0-.69-.07H548.86V497a2.42,2.42,0,0,0,0-.25,67.37,67.37,0,0,0,14.41-2.78,1.35,1.35,0,0,1,.3-.14,6.14,6.14,0,0,0,.7-.3c.19-.09.36-.2.55-.28s.39-.25.56-.39a3.82,3.82,0,0,0,.53-.45,2.79,2.79,0,0,0,.44-.47c.17-.17.31-.33.45-.5s.19-.31.28-.45a.91.91,0,0,1,.08-.13,5,5,0,0,0,.31-.56,3.39,3.39,0,0,0,.25-.64c.08-.22.16-.42.22-.64s.08-.42.11-.64.06-.5.08-.75,0-.19,0-.31v-13.2a7,7,0,1,0-13.9,0v7.81a54,54,0,0,1-5.37.85V443.41a20.48,20.48,0,0,0,4.88.67,19.93,19.93,0,0,0,5.93-.89c.4-.13.8-.28,1.2-.44a24.57,24.57,0,0,0,48.74-4.15l1.54-.81,1.41-.73q7.07-3.66,14.12-7.34l.42-.22.18-.12.16-.09,9.27-4.81.68-.35,8.43-4.41.16-.09a7,7,0,0,0,4.63,4.54,7.16,7.16,0,0,0,2.32.32c2.93-.15,10.2,0,15,4.84,3.89,3.84,4.37,8.71,4.93,17.78.55,8.87,1.57,25.36-7.87,31.73-3.18,2.09-7.22,3-12,2.73a6.6,6.6,0,0,0-1.78.15,6.92,6.92,0,0,0,.15,13.6c.27,0,.54.11.82.13.84.05,1.68.07,2.5.07a32.16,32.16,0,0,0,18.06-5.11c16.1-10.86,14.71-33.35,14-44.23-.58-9.34-1.18-19-9-26.73-8.45-8.39-19.61-9.13-25.51-8.85a6.38,6.38,0,0,0-1,.15,6.9,6.9,0,0,0-2.87,1.26,4.15,4.15,0,0,0-4.75-.54c-.51.28-1,.53-1.6.82l-8.49,4.44-.1,0-9.82,5.1-.37.19a1.53,1.53,0,0,0-.21.14q-7.17,3.75-14.32,7.44l-.59.31a24.56,24.56,0,0,0-47.6,7c-.29-.11-.57-.22-.86-.31a19.31,19.31,0,0,0-5.93-.89,20,20,0,0,0-4.88.66V261.12a5.56,5.56,0,0,0-5.56-5.56,5.24,5.24,0,0,0-1.26.16,6.79,6.79,0,0,1,2.31-1.8,6.87,6.87,0,0,0-1-.5c-20.19-6.65-40.46-6.23-60.68-.44-18.52,5.28-36.73,11.73-55.87,14.68-6.09.94-12.31,2.61-18.46,1.08-12.4-3.11-19.88,4.26-16.77,16.8A39.08,39.08,0,0,0,399.81,302c2.45,2.84,1.78,3.62-1.19,4.89-20.11,8.71-36.93,21.78-51,38.49-3.73,4.39-5.34,9.12-2.81,14.49s7.48,7.37,13.35,7.06c2.39-.14,4.78-.28,8-.44-1.58,1.89-2.78,3.25-3.83,4.59a4,4,0,0,0-.7.72A134.45,134.45,0,0,0,349.78,389a133,133,0,0,0-10.06,21.77,6.62,6.62,0,0,0-.31,1.2s0,0,0,.06c-.27.66-.52,1.44-.8,2.28a177,177,0,0,0-5.23,22.08,12.06,12.06,0,0,0,5.78,13.09c4.31,2.59,8.76,2.09,13.07.25,3.31-1.41,4.23-.72,4.59,2.9a126,126,0,0,0,22.44,60.53c7.48,10.71,17.24,19.39,25.56,29.29,7.34,8.75,17.35,15.85,16.88,29.75-.2,5.39,4.22,8.81,10.06,9.45a19.9,19.9,0,0,0,7.18-.47c6.37-1.53,6.37-1.53,8.4,4.78a2.93,2.93,0,0,0,.14.39c1.44,2.95.44,3.76-2.67,3.73-13.55-.14-27.06,0-40.58-.08-20.21-.09-38.06,12.65-42.51,32.42-.45,2-1.23,2.59-3.23,2.78-5.31.47-7.95,2.92-8.09,7s2.5,6.81,7.65,7.45c1.86.25,2.53.67,2.64,2.64.19,3.17-.34,4.7-4.15,4.51-5.64-.25-9.17,2.89-9.17,7.28s3.61,7.18,9.26,7.32a4.61,4.61,0,0,0,.83,0c1.73-.08,3.34-.22,3.2,2.42-.11,2,.08,3.5-2.86,3.72-4.73.34-7.46,3.42-7.35,7.35a7.16,7.16,0,0,0,7.32,6.92c3,.08,4.06,1.39,4.59,4a13.47,13.47,0,0,0,1.33,3.89,6,6,0,0,1-.28,6.87,17.86,17.86,0,0,0-2.67,10.26c.06,3.2-.41,5-4.22,5.14s-5.84,3.09-6,6.76,1.81,6.62,5.31,6.84c5,.34,5.14,3.09,4.78,6.76-.11,1.08.09,2.2,0,3.31-1.08,9.4,6.23,15.82,15.66,15.79,56.56-.3,113.15-.19,169.71-.16l17.1,0a2.25,2.25,0,0,0,1,.23l173.6-.2a8.9,8.9,0,0,0,1.73-.17c.22,0,.42.09.64.09a7,7,0,0,0,6.45-9.54ZM561.32,523a3.26,3.26,0,0,1,3.25-3.28h8.76a3.28,3.28,0,0,1,3.28,3.28v6.23a3.28,3.28,0,0,1-3.28,3.28h-8.76a3.26,3.26,0,0,1-3.25-3.28Zm-10.43-.5a2.79,2.79,0,0,1,2.81-2.78h3.06a2.79,2.79,0,0,1,2.78,2.78v7.23a2.79,2.79,0,0,1-2.78,2.78H553.7a2.79,2.79,0,0,1-2.81-2.78Zm.25,22.5h14.64a30.88,30.88,0,0,1-4.34,2.74c-.09,0-.17.12-.26.18l-.27.1c-.75.39-1.53.71-2.3,1h-7.44c-1.17,0-2.25,0-2.25-2.06S550,545,551.14,545ZM394.33,736.14c-5.48.72-11,.08-16.46.33-1.78.08-2.06-.81-2-2.28.14-2.31.19-4.64.27-7,.53-1.81,2.26-1.14,3.4-1.61a7,7,0,0,0,4.67-6.68,6.87,6.87,0,0,0-4.14-6.59c-4.59-2.17-5.07-3.19-3.43-8.06a7.58,7.58,0,0,1,1.53-2.84c4.59-4.5,4.84-9.15,1-14.29-1.9-2.53-3.12-5.2,1.55-6.42,2-.53,2.09-2.62,2.81-4.18-.92-1.16-.5-2.28.17-3.36a8,8,0,0,0-2.67-3.92c-1.92-.42-3.78-1.48-5.87,0,.53-10.07,1-10.65,7-9,3.67-1.36,4.42-4.28,3.87-7.68a6.21,6.21,0,0,0-6.26-5.56c-3.73,0-4.26-1.83-4-4.89.17-1.78.75-2.5,2.51-2.37a10,10,0,0,0,2.44-.16c4-.59,6.76-3.42,6.84-7a7,7,0,0,0-6.64-7.12c-4.23-.14-4.31-1.55-2.73-4.84A26.8,26.8,0,0,1,392.53,607c1.72-.73,2.55-.53,2.41,1.58s0,4.42,0,6.62v17.35q0,49.85,0,99.69C394.89,733.55,395.53,735,394.33,736.14Zm41.38-345.27c.06.89,2,.2,1.36,1.45-.78,1.64-2,.78-3.08.25-2.67,2.09-3,5.15-3.12,8.15-.14,3.56-.11,7.15,0,10.7.09,2.09-.61,2.9-2.81,2.9-3.53,0-7.14-.17-10.48,1.5a4.42,4.42,0,0,1-4.42,1.58c-7.18,3.23-12.65,8.15-15.57,15.63a3.5,3.5,0,0,1,.5,1.81c0,1.83-1.42,3.53-1.5,5.39,0,1.14-.87,2.42-.42,3.59,2.67,6.65,1.14,13.57,1.5,20.36.14,2.33,0,4.67,0,7.06-1.53-.2-.23-2-1.87-2.42a1.67,1.67,0,0,1,0,.31c1.14,5.39,2.28,10.56,4.42,15.48a2.59,2.59,0,0,1,.33.17c1.06-.36,2.09-1.5,2.81-.67s1.64,2.42-.67,3.2c-.89.31.14,1.48,0,2.23,6.31,8,15,10.79,24.74,10.95,2.34.06,3.67.39,3.45,3.15-1.58,19.35,3.26,37.73,8.51,56.08.47,1.7,3.06,4.7-.33,5.54-2.89.72-1.89-2.89-2.56-4.51-4.48-10.51-11.9-18.85-19.38-27.14-10.15-11.26-21.44-21.52-29.26-34.73-9-15.18-14.73-31.37-15.82-49.08,0-1-.08-2-.14-3.06-.86-2.25-.36-4.62-.44-6.92-.28-7-4.54-10.18-11.32-8.21-3.5,1-6.95,2.26-10.85,3.53.67-6.31,2.48-11.87,4.12-17.49.19-.66.36-1.28.47-1.83a.11.11,0,0,0,0-.09,118.54,118.54,0,0,1,19.38-34.48.38.38,0,0,0,.11-.16,196.67,196.67,0,0,1,17.13-16.91c2.64-2.31,3.73-5.17,2.34-8.51s-4.17-4.62-7.62-4.62c-4.39,0-8.82.17-13.21.25l-3.06.09a17.35,17.35,0,0,1-6.59.3c5.48-6.89,11.76-11.95,17.91-17.15.53-4.62,4.34-4.68,7.59-5.48a3.47,3.47,0,0,1,4.06-2.59h0v0c-.06-.66-1.86-1.33-.61-1.64,2.19-.53,4-2.83,6.62-1.58q10.22-4.17,20.43-8.32c1.37-1.78,3.37-3.25,1.42-6-.61-.92.86-1.5,1.84-1.5,1.83,0,3.22-.48,3.42-2.56-4.48,1.67-2.42-3.12-4.12-4.17-2.25,1.69-2.11-.45-2.56-1.62-4.19-.78-7.7-4.08-8.17-7.73-.64-2.47-3.87-4.7-2.5-6.92.69-1.17,4.53-.45,7-.59,22-1.5,43-7.81,63.9-14.34,12.82-4,25.8-6.82,39.37-6a98,98,0,0,1,17.11,2.81,1.47,1.47,0,0,1,.25.08h2.39V409.61a50.75,50.75,0,0,1-21.1-8.44,49.92,49.92,0,0,1-12-11.94l-.54-.76a6.93,6.93,0,0,0-9.19-2,11.91,11.91,0,0,0-6.43,6.37c-1.89,4.28-3.5,8.68-5,13.1-.78,2.25-1.78,2.47-4,1.81a83,83,0,0,1-27.64-15.3C445.86,387.57,441.16,387.23,435.71,390.87Zm-4.84,91.8c.11,2.45-.58,3.47-3.22,3.33-7.12-.36-12.82-2.89-16.1-9.59-1-.64-.56-1.64-.64-2.5-1.45-3.42-.64-7-.73-10.54,0-2.14-.05-4.28-.05-6.42q-.09-6.3.08-12.6c.28-9.48,9.29-16.77,18.72-15.38,1.72.25,1.94,1.09,1.91,2.48,0,5.22,0,10.45,0,15.68,0,1.7-.53,2.59-2.39,2.47a20.86,20.86,0,0,0-3.7.14c-4.09.53-6.64,3.28-6.67,7.07v.05c0,3.65,2.31,6.12,6.14,7.12,2.12.56,5.18-.89,6.15,1.09s.42,4.81.44,7.28C430.87,475.8,430.73,479.25,430.87,482.67Zm15.21-73.55a12.89,12.89,0,0,1,.39-1.92A130.19,130.19,0,0,0,464.38,418l.53.28c4.67,1.55,9.34,3.22,14.1,4.61a16.94,16.94,0,0,0,6.17.78c5-.36,8.87-3.45,11.21-9.07,1-2.39,1.8-4.89,2.72-7.34.17-.47.34-.86.5-1.25,0-.41,0-.83-.05-1.25a63.54,63.54,0,0,0,9.11,7.81,64.82,64.82,0,0,0,29.07,11.09v59.1c-1.81-.2-3.59-.49-5.37-.86v-35a7,7,0,0,0-13.76-1.39,7.12,7.12,0,0,0-.14,1.39v25.43a100.84,100.84,0,0,0-17.54.16c-10.12,1-16.81,1.68-22.92,6.54-4.14,3.33-6.52,7.59-8.69,15.58,0,.13-.08.24-.11.37-.79,3-1.54,6.27-2.28,10.13-.81,4.18-1.43,9.19-1.94,14.8a88,88,0,0,1-11.32-18.76,91.29,91.29,0,0,1-6.61-23.72c-.5-3.42-.5-4.83-.92-12.84C444.53,435,446.08,425.19,446.08,409.12Zm91.66,255.49v71.91a3.49,3.49,0,0,1-1.06-.3,3.37,3.37,0,0,1-1.17.17c-2.11-.09-1.89-1.56-1.92-2.92,0-1.81.09-3.59-.05-5.37a7.63,7.63,0,0,0-7.54-7.31c-3.78,0-7,3.39-7.45,7.48-.25,2.64.83,5.45-.83,7.92v0c-15.16.28-30.29.44-45.44-.08-1.45-2.37-.45-5-.67-7.48-.44-4.7-3.28-7.76-7.73-7.82-3.75-.05-6.81,3.17-7.37,7.51-.3,2.64.89,5.42-.86,7.87-7.65,0-15.35.06-23,.06h-1c-6.2.05-12.4,0-18.57.19-2.48.06-3-1-3-3.23q.09-62.61,0-125.19c0-1.72-.17-3.36,2.42-3.33q10,0,20.07,0c6.37,0,12.77,0,19.16,0,.48,0,1,.45,1.45.67a42.16,42.16,0,0,0,3.2,5.89,10.47,10.47,0,0,0,5.34,4.06,10,10,0,0,0,7,0v-1.52a7.94,7.94,0,0,0,2.53-1.7l.55-.53.41-.32a2.7,2.7,0,0,1,.3-.26c.15-.1.25-.19.17-.16l.4-.2,0,0c.09,0,.14-.08.12-.08a1.16,1.16,0,0,0,.41-.3c.33-.2.65-.41.95-.62l.25-.16a2.25,2.25,0,0,0,.58-.46l.4-.19c.26-.16.51-.35.76-.53s.37-.28.56-.4l.43-.32a3,3,0,0,1,1.19-.16c2.7.45,6.18,6.62,8.48,10.74,4,7.06,8.54,15,17.25,14.51,6.64-.42,9.81-5.73,11.73-8.9a19.43,19.43,0,0,1,1.86-2.78c1.14.28,7,2.48,19.44,20.75a2.11,2.11,0,0,0,.17.22ZM515.27,545h9.31c3.09,0,6.21,0,9.29,0,1.34,0,2.06.3,2,2.25s-.91,1.86-2,1.86q-9.3,0-18.6,0c-1.17,0-2.26,0-2.26-2.06S514.1,545,515.27,545Zm-3.37-14.52v-.39c0-.22.05-.42.06-.63a24.11,24.11,0,0,1,1.65-2.19c.06-.07.1-.16.16-.23a3.2,3.2,0,0,0,.27-.25,23.79,23.79,0,0,1,3.82-3.46c.66-.47,1.34-.9,2-1.29a5.12,5.12,0,0,0,1.06-.83,5.52,5.52,0,0,0,1.34-.39,24.08,24.08,0,0,1,2.51-.94,3.17,3.17,0,0,1,2.43,3v6.39a3.22,3.22,0,0,1-3.2,3.2H513.91A2,2,0,0,1,511.9,530.47Zm23.08,2h-3.05a2.77,2.77,0,0,1-2.78-2.78v-7.2a2.77,2.77,0,0,1,2.78-2.81H535a2.79,2.79,0,0,1,2.76,2.67v7.49A2.77,2.77,0,0,1,535,532.44Zm2.25-24.92a40.17,40.17,0,0,0-19.5,3.13,5.77,5.77,0,0,0-1.61,1.11,5.4,5.4,0,0,0-1.88.68c-1,.56-1.94,1.18-2.91,1.88a34,34,0,0,0-5.67,5.15c-.07.08-.12.18-.19.26s-.23.2-.33.32a40,40,0,0,0-6.7,11.38,5.44,5.44,0,0,0-.15.54c-.1.21-.22.41-.3.63-.9,2.51-1.51,4.74-2,6.61a53.93,53.93,0,0,0-1.73,18.53,5.55,5.55,0,0,0,5.53,5.12h.44a1,1,0,0,1,.17,0c.15,0,.3,0,.46,0h36.9v54.31c-8.93-9.56-16.58-13-23.86-10.92-5.65,1.61-8.54,6-10.43,9.17-1-1.47-2-3.33-2.84-4.75-4.19-7.45-9.42-16.71-19.35-18.33-4.81-.78-9.73.56-14.68,3.9-1-1.31-1.23-3.9-1.84-5.76-5.95-18.33-11.57-36.73-16.1-55.45-.19-.81-.25-1.61-.39-2.42l-1.61-12.35a109.64,109.64,0,0,0,18.73,22.29c.11.12.23.21.34.32l.73.7v0a6.87,6.87,0,0,0,3.72,1.39h.45a7,7,0,0,0,6.94-6.5c.8-12.44,1.59-23.33,3-30.73.68-3.54,1.35-6.54,2.06-9.16,1.85-6.93,3.2-8,4.06-8.71,2.77-2.2,6.55-2.65,15.59-3.55a86.43,86.43,0,0,1,15.85-.09l.33,0v1.06c0,.12,0,.2,0,.31l.09.75c0,.22.08.42.11.64a5.39,5.39,0,0,0,.22.64,3.39,3.39,0,0,0,.25.64,5,5,0,0,0,.31.56c.11.19.25.39.36.58s.28.33.44.5a3.34,3.34,0,0,0,.45.47,3.82,3.82,0,0,0,.53.45,3.48,3.48,0,0,0,.55.36l.56.33a6,6,0,0,0,.7.28,1.35,1.35,0,0,1,.3.14,67.41,67.41,0,0,0,14.4,2.79c0,.08,0,.16,0,.24v10.66C537.57,507.59,537.41,507.54,537.23,507.52Zm11.63,81.24c5.07-.15,12.3-.35,21-.53,3.45-.06,6.27-.12,8.34-.2l2.31,0c7.28-.2,9.77-.43,13.43-1.68,12.83-4.39,20.78-14.39,26.08-21.2v24.94a158.1,158.1,0,0,1-21.13,7.13c-2.88.75-6,1.44-9.42,2.12a158.08,158.08,0,0,1-40.17,2.47,2.82,2.82,0,0,0-.41,0ZM620,602.05v3.39a164.53,164.53,0,0,1-26.59,7.64A170.22,170.22,0,0,1,549.27,616c-.12,0-.23,0-.35,0V612.9c3.62.22,7.24.34,10.85.34a168.33,168.33,0,0,0,31.8-3c3.69-.73,7-1.47,10.07-2.27A169.68,169.68,0,0,0,620,602.05Zm106.4,132.64c-3.29,0-6.59,0-9.88-.06-1.11,0-2.22,0-3.3,0h-3.34c-1.53,0-3.09,0-4.62,0-1.78,0-3.53,0-5.31,0-24.28,1.31-48.58.64-72.86.8-23.74.92-47.46.92-71.21.78l-7,.08V691.59h.06V627.14c3.74.23,7.49.35,11.23.35a180.19,180.19,0,0,0,35.42-3.5,176.58,176.58,0,0,0,30.34-8.87c1.24-.47,2.48-1,3.67-1.48a5.5,5.5,0,0,0,2-1.46,5.59,5.59,0,0,0,1.05-1.79,6.91,6.91,0,0,0,1.29-4v-4.91c31.25-2.61,52.71,2.59,63.8,15.5,6.86,8,8.22,17.1,10.69,33.67,1.37,9.22,3.08,20.69,6.26,35a397.77,397.77,0,0,0,14.19,48.85A16.57,16.57,0,0,1,726.39,734.69Z" transform="translate(-333.09 -248.54)"/><path d="M604.15,400.16c-.46-1-.83-1.85-1.14-2.58-1-2.34-1.57-3.63-3.07-4.7-2.14-1.51-4.55-1.39-8.28-1A111.56,111.56,0,0,0,579,393.72l-6.14,1.35c-10.2,2.21-12.95,2.81-13.78,5.84-.5,1.8.13,3.91.68,5.75s1.16,4,3,4.94a3.9,3.9,0,0,0,1.65.36,9.18,9.18,0,0,0,4-1.3s1.26-.54,11.29-3.87a28.09,28.09,0,0,1,22.52.86c2.22.94,4,1.7,5.06.24.79-1.11.1-2.17-.63-3.29A33.62,33.62,0,0,1,604.15,400.16Zm-.87,4.93a30.87,30.87,0,0,0-24.49-.94c-6.79,2.25-11.14,3.75-11.86,4.13-.9.46-2.26,1.16-3,.81s-1.12-1.73-1.54-3.21-1-3.2-.67-4.23h0c.38-1.4,3.69-2.12,11.68-3.86,1.8-.39,3.84-.83,6.16-1.35a112.89,112.89,0,0,1,12.37-1.81c1.44-.14,2.52-.22,3.38-.22a4.77,4.77,0,0,1,3,.75c.83.59,1.15,1.27,2.13,3.54.32.74.69,1.6,1.17,2.64a34.61,34.61,0,0,0,2.14,4Z" transform="translate(-333.09 -248.54)"/></svg>