<svg id="_x33_0" enable-background="new 0 0 64 64" height="512" viewBox="0 0 64 64" width="512" xmlns="http://www.w3.org/2000/svg"><g><path d="m37.754 15c-1.492 0-2.788 1.011-3.149 2.459l-.124.496-1.272-.363-2.247-7.866-1.923.55 1.905 6.669-6.669-1.905-.55 1.923 7.866 2.247.363 1.272-.496.124c-1.447.36-2.458 1.656-2.458 3.148 0 1.79 1.456 3.246 3.246 3.246 1.519 0 2.754-1.236 2.754-2.754 0-.254-.036-.508-.106-.757l-1.038-3.633 3.635 1.039c.246.069.501.105.755.105 1.519 0 2.754-1.235 2.754-2.754 0-1.79-1.456-3.246-3.246-3.246zm-5.508 10c-.687 0-1.246-.559-1.246-1.246 0-.573.388-1.07.944-1.209l.56-.14.466 1.632c.02.068.03.139.03.209 0 .416-.338.754-.754.754zm5.793-6.029-1.634-.467.14-.56c.139-.556.636-.944 1.209-.944.687 0 1.246.559 1.246 1.246 0 .485-.496.857-.961.725z"/><path d="m61 23h-.656l2.808-9.359-.527-.421c-9.85-7.881-22.221-12.22-34.834-12.22h-10.791v8.805c-9.209 1.623-15.216 5.159-15.515 5.338l-.714.429 2.786 7.428h-.557c-1.103 0-2 .897-2 2v2c0 1.103.897 2 2 2v21.551c-1.22.706-2 2.012-2 3.449 0 .624.16 1.225.432 1.773-.266.34-.432.762-.432 1.227v6h60v-8c1.103 0 2-.897 2-2v-14c0-.659-.324-1.24-.817-1.604.506-.67.817-1.494.817-2.396 0-1.474-.81-2.75-2-3.444v-2.556c1.103 0 2-.897 2-2v-2c0-1.103-.897-2-2-2zm-42-20h8.791c11.937 0 23.648 4.03 33.056 11.364l-2.591 8.636h-3.256v-6.521l-.426-.299c-.167-.117-4.115-2.837-11.47-4.907-2.283-3.752-6.399-6.273-11.104-6.273-3.737 0-7.101 1.594-9.475 4.127-1.215.084-2.39.209-3.525.365zm13 26c-6.065 0-11-4.935-11-11s4.935-11 11-11 11 4.935 11 11-4.935 11-11 11zm-22.279-6-1.571-4.712c.678-.254 1.414-.512 2.199-.767l1.37 5.479zm4.06 0-1.516-6.062c.646-.183 1.326-.357 2.024-.525l1.465 6.587zm4.021 0-1.56-7.021c.965-.193 1.97-.364 3.009-.508-.162.818-.251 1.663-.251 2.529 0 1.771.359 3.46 1.003 5zm35.198-3.774c-1.58-.879-4.342-2.225-8.204-3.447-.124-.714-.306-1.407-.541-2.076 4.697 1.495 7.689 3.191 8.745 3.843zm-8.003-1.279c.001 0 .002.001.003.001v.052 5h-1.003c.644-1.54 1.003-3.229 1.003-5 0-.018-.003-.035-.003-.053zm2.003.718c.728.28 1.392.556 2 .824v3.511h-2zm4 1.769c.933.475 1.604.867 2 1.112v1.454h-2zm-30.103-9.161c-.405.666-.751 1.368-1.033 2.105-7.387.895-13.179 3.211-16.066 4.569l-.558-1.488c2.127-1.116 8.758-4.248 17.657-5.186zm-16.394 8.554c.5-.238 1.094-.507 1.785-.799l1.324 3.972h-1.919zm-1.503 5.173h18.063c.461.718.989 1.388 1.578 2h-19.641zm1.347 27.123.718-.25-.049-.759-.016-.114c0-1.103.897-2 2-2 .842 0 1.597.542 1.877 1.347l.25.718.759-.049.114-.016c1.103 0 2 .897 2 2s-.897 2-2 2h-6.727c-.175-.302-.273-.645-.273-1 0-.842.542-1.597 1.347-1.877zm21.306 0c.805.28 1.347 1.035 1.347 1.877 0 .355-.097.698-.273 1h-6.727c-1.103 0-2-.897-2-2s.897-2 1.965-2l.907.065.25-.718c.281-.805 1.036-1.347 1.878-1.347 1.103 0 2 .897 2 1.965l-.065.907zm-6.665-2.98c-1.715.451-2.988 2.003-2.988 3.857 0 .732.212 1.409.556 2h-3.113c.345-.591.557-1.268.557-2 0-2.048-1.547-3.741-3.534-3.973-.204-.36-.465-.676-.762-.952.563-.668 1.399-1.075 2.296-1.075.75 0 1.472.288 2.034.81l.769.715.676-.803c.387-.459.941-.722 1.521-.722 1.103 0 2 .897 2 2 0 .048-.009.095-.012.143zm8.012 11.857h-24v-4h24zm2-2h24v2h-24zm20-2h-2v-20h-10v8.184c-.314-.112-.648-.184-1-.184s-.686.072-1 .184v-10.184h14zm-4-12h-2v-2h2zm0 2v2h-2v-2zm-4 2h-2v-2h2zm-2 2h2v2h-2zm4 0h2v2h-2zm2-10h-2v-2h2zm-4 0h-2v-2h2zm-2 2h2v2h-2zm0 12h2v2h-2zm4 0h2v2h-2zm-6-7c0 .551-.449 1-1 1s-1-.449-1-1 .449-1 1-1 1 .449 1 1zm-2 2.816c.314.112.648.184 1 .184s.686-.072 1-.184v6.184h-2zm22 2.184v-2h4.001v2zm0-18c0-1.103.897-2 2-2s2 .897 2 2-.897 2-2 2-2-.897-2-2zm4 4v2h-4v-2zm.001 9.132-4.001-2.667v-1.596l4.001 2.667zm-1.698-5.132h1.697v1.132zm-.606 6h-1.697v-1.132zm.303-18c-2.206 0-4 1.794-4 4 0 .902.311 1.726.817 2.396-.493.364-.817.945-.817 1.604v14c0 1.103.897 2 2 2h2v6h-4v-2c0-1.103-.897-2-2-2h-2v-24h-18v24h-4c0-.465-.166-.887-.432-1.227.272-.548.432-1.149.432-1.773 0-1.448-.791-2.765-2.027-3.466-.232-1.987-1.925-3.534-3.973-3.534-.817 0-1.588.259-2.235.701-.543-1.566-2.017-2.701-3.765-2.701-.85 0-1.667.275-2.346.773-.793-.503-1.709-.773-2.654-.773-1.634 0-3.145.812-4.072 2.117-.301-.073-.61-.117-.928-.117-.73 0-1.41.203-2 .546v-18.546h20.103c2.002 1.26 4.362 2 6.897 2s4.895-.74 6.897-2h20.103zm2-4h-19.641c.589-.612 1.117-1.282 1.578-2h18.063z"/><path d="m11 43h18v-10h-18zm16-2h-6v-6h6zm-14-6h6v6h-6z"/></g></svg>