<svg id="Layer_1" data-name="Layer 1" xmlns="http://www.w3.org/2000/svg" viewBox="0 0 47.05 45.04"><defs><style>.cls-1{fill:none;stroke:#000;stroke-miterlimit:10;stroke-width:2px;}</style></defs><title>card</title><rect class="cls-1" x="1" y="1" width="45.05" height="29.53" rx="4.72"/><rect class="cls-1" x="5.69" y="5.24" width="8" height="8" rx="1.38"/><path d="M123.7,58.12a.67.67,0,1,1,.65-.67A.64.64,0,0,1,123.7,58.12Z" transform="translate(-117.95 -34.27)"/><path d="M125.73,58.12a.67.67,0,1,1,.66-.67A.64.64,0,0,1,125.73,58.12Z" transform="translate(-117.95 -34.27)"/><path d="M127.76,58.12a.67.67,0,1,1,.66-.67A.64.64,0,0,1,127.76,58.12Z" transform="translate(-117.95 -34.27)"/><path d="M129.79,58.12a.67.67,0,0,1,0-1.33.67.67,0,0,1,0,1.33Z" transform="translate(-117.95 -34.27)"/><path d="M133.51,58.12a.67.67,0,0,1,0-1.33.67.67,0,0,1,0,1.33Z" transform="translate(-117.95 -34.27)"/><path d="M135.55,58.12a.67.67,0,1,1,.65-.67A.64.64,0,0,1,135.55,58.12Z" transform="translate(-117.95 -34.27)"/><path d="M137.58,58.12a.67.67,0,1,1,.65-.67A.64.64,0,0,1,137.58,58.12Z" transform="translate(-117.95 -34.27)"/><path d="M139.61,58.12a.67.67,0,1,1,.66-.67A.64.64,0,0,1,139.61,58.12Z" transform="translate(-117.95 -34.27)"/><path d="M143.33,58.12a.67.67,0,1,1,.66-.67A.64.64,0,0,1,143.33,58.12Z" transform="translate(-117.95 -34.27)"/><path d="M145.36,58.12a.67.67,0,1,1,.66-.67A.64.64,0,0,1,145.36,58.12Z" transform="translate(-117.95 -34.27)"/><path d="M147.39,58.12a.67.67,0,0,1,0-1.33.67.67,0,0,1,0,1.33Z" transform="translate(-117.95 -34.27)"/><path d="M149.42,58.12a.67.67,0,0,1,0-1.33.67.67,0,0,1,0,1.33Z" transform="translate(-117.95 -34.27)"/><path d="M153.14,58.12a.67.67,0,0,1,0-1.33.67.67,0,0,1,0,1.33Z" transform="translate(-117.95 -34.27)"/><path d="M155.18,58.12a.67.67,0,1,1,.65-.67A.64.64,0,0,1,155.18,58.12Z" transform="translate(-117.95 -34.27)"/><path d="M157.21,58.12a.67.67,0,1,1,.65-.67A.64.64,0,0,1,157.21,58.12Z" transform="translate(-117.95 -34.27)"/><path d="M159.24,58.12a.67.67,0,1,1,.66-.67A.64.64,0,0,1,159.24,58.12Z" transform="translate(-117.95 -34.27)"/><circle class="cls-1" cx="33.66" cy="9.24" r="2.41"/><circle class="cls-1" cx="38.48" cy="9.24" r="2.41"/><path d="M135.59,76.18a3,3,0,0,1-3.05,3.13c-2.89,0-3.22-2.53-3.22-5.26,0-3.29,1-5.22,3.33-5.22,2.69,0,2.9,2.31,2.94,3.12h-1.8c0-.35,0-1.58-1.17-1.58s-1.42,1.4-1.42,3.72c0,1.91.19,3.71,1.37,3.71s1.17-1.23,1.21-1.62Z" transform="translate(-117.95 -34.27)"/><path d="M141.89,77.45c0,.38,0,1.34.06,1.69h-1.62a3.79,3.79,0,0,1-.08-.73,1.84,1.84,0,0,1-1.75.86,2.07,2.07,0,0,1-2.07-2.3c0-1.59,1.09-2.55,3.06-2.55h.64v-.84c0-.46-.06-1-.84-1s-.83.49-.87,1h-1.7c0-1.14.57-2.36,2.64-2.36,1.67,0,2.53.76,2.53,2.24Zm-1.72-1.72a3.39,3.39,0,0,0-.58,0c-1,0-1.39.48-1.39,1.11a.9.9,0,0,0,.89,1c.92,0,1.08-.69,1.08-1.84Z" transform="translate(-117.95 -34.27)"/><path d="M143.49,74c0-1.27,0-2.07,0-2.63h1.71a9.91,9.91,0,0,1,0,1.28,2,2,0,0,1,2-1.41v2c-1.27,0-2,.34-2,1.81v4.08h-1.79Z" transform="translate(-117.95 -34.27)"/><path d="M153.61,68.48V77c0,.92,0,1.71,0,2.16H151.9a7.26,7.26,0,0,1-.05-.83,1.63,1.63,0,0,1-1.73,1c-1.64,0-2.29-1.47-2.29-4.08,0-2.38.78-4,2.59-4,.84,0,1.25.31,1.4.61V68.48Zm-4,6.74c0,1.8.32,2.54,1.08,2.54.93,0,1.13-.73,1.13-2.6s-.14-2.4-1.05-2.4C150.09,72.76,149.66,73.31,149.66,75.22Z" transform="translate(-117.95 -34.27)"/></svg>