<svg id="Layer_1" data-name="Layer 1" xmlns="http://www.w3.org/2000/svg" viewBox="0 0 47.05 31.53"><defs><style>.cls-1{fill:none;stroke:#000;stroke-miterlimit:10;stroke-width:2px;}</style></defs><title>card</title><rect class="cls-1" x="1" y="1" width="45.05" height="29.53" rx="4.72"/><rect class="cls-1" x="5.69" y="5.24" width="8" height="8" rx="1.38"/><path d="M23.7,58.12a.67.67,0,1,1,.65-.67A.64.64,0,0,1,23.7,58.12Z" transform="translate(-17.95 -34.27)"/><path d="M25.73,58.12a.67.67,0,1,1,.66-.67A.64.64,0,0,1,25.73,58.12Z" transform="translate(-17.95 -34.27)"/><path d="M27.76,58.12a.67.67,0,1,1,.66-.67A.64.64,0,0,1,27.76,58.12Z" transform="translate(-17.95 -34.27)"/><path d="M29.79,58.12a.67.67,0,0,1,0-1.33.67.67,0,0,1,0,1.33Z" transform="translate(-17.95 -34.27)"/><path d="M33.51,58.12a.67.67,0,0,1,0-1.33.67.67,0,0,1,0,1.33Z" transform="translate(-17.95 -34.27)"/><path d="M35.55,58.12a.67.67,0,1,1,.65-.67A.64.64,0,0,1,35.55,58.12Z" transform="translate(-17.95 -34.27)"/><path d="M37.58,58.12a.67.67,0,1,1,.65-.67A.64.64,0,0,1,37.58,58.12Z" transform="translate(-17.95 -34.27)"/><path d="M39.61,58.12a.67.67,0,1,1,.66-.67A.64.64,0,0,1,39.61,58.12Z" transform="translate(-17.95 -34.27)"/><path d="M43.33,58.12a.67.67,0,1,1,.66-.67A.64.64,0,0,1,43.33,58.12Z" transform="translate(-17.95 -34.27)"/><path d="M45.36,58.12a.67.67,0,1,1,.66-.67A.64.64,0,0,1,45.36,58.12Z" transform="translate(-17.95 -34.27)"/><path d="M47.39,58.12a.67.67,0,0,1,0-1.33.67.67,0,0,1,0,1.33Z" transform="translate(-17.95 -34.27)"/><path d="M49.42,58.12a.67.67,0,0,1,0-1.33.67.67,0,0,1,0,1.33Z" transform="translate(-17.95 -34.27)"/><path d="M53.14,58.12a.67.67,0,0,1,0-1.33.67.67,0,0,1,0,1.33Z" transform="translate(-17.95 -34.27)"/><path d="M55.18,58.12a.67.67,0,1,1,.65-.67A.64.64,0,0,1,55.18,58.12Z" transform="translate(-17.95 -34.27)"/><path d="M57.21,58.12a.67.67,0,1,1,.65-.67A.64.64,0,0,1,57.21,58.12Z" transform="translate(-17.95 -34.27)"/><path d="M59.24,58.12a.67.67,0,1,1,.66-.67A.64.64,0,0,1,59.24,58.12Z" transform="translate(-17.95 -34.27)"/><circle class="cls-1" cx="33.66" cy="9.24" r="2.41"/><circle class="cls-1" cx="38.48" cy="9.24" r="2.41"/></svg>