<svg id="Layer_1" data-name="Layer 1" xmlns="http://www.w3.org/2000/svg" viewBox="0 0 13.42 24.5"><defs><style>.cls-1{fill:none;stroke:#000;stroke-miterlimit:10;}</style></defs><title>barber pole</title><rect class="cls-1" x="0.5" y="4.42" width="12.42" height="2.35"/><rect class="cls-1" x="0.5" y="17.97" width="12.42" height="2.35"/><line class="cls-1" x1="1.28" y1="6.77" x2="1.28" y2="18.13"/><line class="cls-1" x1="12.14" y1="6.77" x2="12.14" y2="18.13"/><polyline class="cls-1" points="1.28 10.68 1.28 10.68 1.28 10.68"/><path class="cls-1" d="M22.81,20.77" transform="translate(-13 -14)"/><line class="cls-1" x1="1.28" y1="13.03" x2="12.14" y2="6.77"/><path class="cls-1" d="M25.14,27.82" transform="translate(-13 -14)"/><path class="cls-1" d="M15.05,33.3" transform="translate(-13 -14)"/><path class="cls-1" d="M14.28,31" transform="translate(-13 -14)"/><path class="cls-1" d="M21.26,20.77" transform="translate(-13 -14)"/><path class="cls-1" d="M30,22.68" transform="translate(-13 -14)"/><path class="cls-1" d="M19.13,28.16" transform="translate(-13 -14)"/><line class="cls-1" x1="8.26" y1="6.77" x2="1.28" y2="10.68"/><path class="cls-1" d="M19,25.57" transform="translate(-13 -14)"/><path class="cls-1" d="M28.64,50.63" transform="translate(-13 -14)"/><line class="cls-1" x1="12.06" y1="14.03" x2="5.08" y2="17.95"/><line class="cls-1" x1="1.28" y1="18.03" x2="12.14" y2="11.76"/><path class="cls-1" d="M14.28,18.42a5.72,5.72,0,0,1,10.86,0" transform="translate(-13 -14)"/><path class="cls-1" d="M14.28,34.08a5.72,5.72,0,0,0,10.86,0" transform="translate(-13 -14)"/><path class="cls-1" d="M16.6,18.42a2.88,2.88,0,0,1,.78-1.57,2.76,2.76,0,0,1,1.55-.78" transform="translate(-13 -14)"/><path class="cls-1" d="M29.8,27.82" transform="translate(-13 -14)"/><path class="cls-1" d="M18.86,36.43a2.75,2.75,0,0,1-1.56-.78,2.83,2.83,0,0,1-.77-1.57" transform="translate(-13 -14)"/></svg>