<svg id="Layer_1" data-name="Layer 1" xmlns="http://www.w3.org/2000/svg" viewBox="0 0 29 29"><defs><style>.cls-1{fill:#ff2e4a;}.cls-2{fill:#fff;}</style></defs><title>trash</title><circle class="cls-1" cx="14.5" cy="14.5" r="14.5"/><path class="cls-2" d="M22.73,17.3a2,2,0,0,0-2-2H17.53a1.5,1.5,0,0,0,.06-.29,1.29,1.29,0,0,0-1.29-1.28H13.67A1.28,1.28,0,0,0,12.39,15a1.47,1.47,0,0,0,0,.29H9.23A2,2,0,0,0,9,19.26V30.42a2.47,2.47,0,0,0,2.46,2.46h7.07A2.46,2.46,0,0,0,21,30.42V19.26A2,2,0,0,0,22.73,17.3ZM13.39,15a.28.28,0,0,1,.28-.28H16.3a.29.29,0,1,1,0,.57H13.67A.28.28,0,0,1,13.39,15ZM20,30.42a1.47,1.47,0,0,1-1.46,1.46H11.45A1.47,1.47,0,0,1,10,30.42V19.29H20Zm.76-12.13H9.23a1,1,0,0,1,0-2H20.74a1,1,0,1,1,0,2Z" transform="translate(-0.49 -8.81)"/><path class="cls-2" d="M12,29.36a.5.5,0,0,0,.5-.5v-7a.5.5,0,0,0-.5-.5.5.5,0,0,0-.5.5v7A.5.5,0,0,0,12,29.36Z" transform="translate(-0.49 -8.81)"/><path class="cls-2" d="M15,29.36a.5.5,0,0,0,.5-.5v-7a.5.5,0,0,0-.5-.5.5.5,0,0,0-.5.5v7A.5.5,0,0,0,15,29.36Z" transform="translate(-0.49 -8.81)"/><path class="cls-2" d="M18,29.36a.5.5,0,0,0,.5-.5v-7a.5.5,0,0,0-.5-.5.5.5,0,0,0-.5.5v7A.5.5,0,0,0,18,29.36Z" transform="translate(-0.49 -8.81)"/></svg>