<svg id="Layer_1" data-name="Layer 1" xmlns="http://www.w3.org/2000/svg" viewBox="0 0 29 29"><defs><style>.cls-1{fill:#ff2e4a;}.cls-2{fill:#fff;stroke:#fff;stroke-miterlimit:10;stroke-width:3px;}</style></defs><title>x</title><circle class="cls-1" cx="14.5" cy="14.5" r="14.5"/><path class="cls-2" d="M261.78,100.23l4.5-4.51a1,1,0,0,0,0-1.44,1,1,0,0,0-1.45,0l-4.5,4.5-4.5-4.5a1,1,0,0,0-1.45,0,1,1,0,0,0,0,1.44l4.5,4.51-4.5,4.5a1,1,0,0,0,0,1.45,1,1,0,0,0,1.45,0l4.5-4.5,4.5,4.5a1,1,0,0,0,.73.3,1,1,0,0,0,.72-.3,1,1,0,0,0,0-1.45Z" transform="translate(-245.83 -85.73)"/></svg>