<svg id="Layer_1" data-name="Layer 1" xmlns="http://www.w3.org/2000/svg" viewBox="0 0 35 35"><defs><style>.cls-1{fill:#116cff;}.cls-2{fill:#fff;}.cls-3{fill:none;stroke:#116cff;stroke-miterlimit:10;stroke-width:2px;}</style></defs><title>instagram</title><path class="cls-1" d="M56.5,43.28A1.46,1.46,0,1,1,55,41.82,1.46,1.46,0,0,1,56.5,43.28Z" transform="translate(-31.47 -31.84)"/><path class="cls-1" d="M49,31.84a17.5,17.5,0,1,0,17.5,17.5A17.5,17.5,0,0,0,49,31.84Zm9.87,22.87a4.51,4.51,0,0,1-4.5,4.51H43.6a4.5,4.5,0,0,1-4.5-4.51V44a4.5,4.5,0,0,1,4.5-4.51H54.34A4.51,4.51,0,0,1,58.84,44Z" transform="translate(-31.47 -31.84)"/><path class="cls-2" d="M56.5,43.28A1.46,1.46,0,1,1,55,41.82,1.46,1.46,0,0,1,56.5,43.28Z" transform="translate(-31.47 -31.84)"/><path class="cls-3" d="M54.07,49.34a5.11,5.11,0,1,1-5.1-5.1A5.1,5.1,0,0,1,54.07,49.34Z" transform="translate(-31.47 -31.84)"/><path class="cls-1" d="M56.5,43.28A1.46,1.46,0,1,1,55,41.82,1.46,1.46,0,0,1,56.5,43.28Z" transform="translate(-31.47 -31.84)"/></svg>