<svg id="Layer_1" data-name="Layer 1" xmlns="http://www.w3.org/2000/svg" viewBox="0 0 35 35"><defs><style>.cls-1{fill:#116cff;}</style></defs><title>pin</title><circle class="cls-1" cx="17.5" cy="12.9" r="3.99"/><path class="cls-1" d="M58.62,34.89a17.5,17.5,0,1,0,17.5,17.5A17.5,17.5,0,0,0,58.62,34.89ZM65.77,55a2.46,2.46,0,0,1-.23.41L60,63.66a1.55,1.55,0,0,1-2.76,0L51.7,55.45a2.46,2.46,0,0,1-.23-.41,9.12,9.12,0,1,1,14.3,0Z" transform="translate(-41.12 -34.89)"/><circle cx="17.5" cy="12.9" r="3.99"/><circle class="cls-1" cx="17.5" cy="12.9" r="3.99"/></svg>