<svg id="Layer_1" data-name="Layer 1" xmlns="http://www.w3.org/2000/svg" viewBox="0 0 35 35"><defs><style>.cls-1{fill:#116cff;}</style></defs><title>phone</title><path class="cls-1" d="M51,9a17.5,17.5,0,1,0,17.5,17.5A17.51,17.51,0,0,0,51,9ZM44.53,20.52A10.79,10.79,0,0,1,53.06,17a1,1,0,0,1,.94,1,1,1,0,0,1-1.06.94A8.78,8.78,0,0,0,46,21.83a8.63,8.63,0,0,0-2,6.09A1,1,0,0,1,43.08,29H43a1,1,0,0,1-1-.93A10.58,10.58,0,0,1,44.53,20.52Zm3.62,6.42A1,1,0,0,1,47.21,28h-.06a1,1,0,0,1-1-.94,5.69,5.69,0,0,1,1.35-4,5.77,5.77,0,0,1,4.56-1.88,1,1,0,1,1-.12,2A3.82,3.82,0,0,0,49,24.35,3.66,3.66,0,0,0,48.15,26.94Zm-3.72,10.5a4.38,4.38,0,0,1-4.38-4.38,4.31,4.31,0,0,1,.59-2.19l6.7-1.06a4.28,4.28,0,0,1,1.39,2.53,13.12,13.12,0,0,0,8.09-8.09,4.44,4.44,0,0,1-2.13-1l1.16-7.34a4.38,4.38,0,0,1,6.07,4A17.5,17.5,0,0,1,44.43,37.44Z" transform="translate(-33.48 -9)"/></svg>