<svg id="Layer_1" data-name="Layer 1" xmlns="http://www.w3.org/2000/svg" viewBox="0 0 35 35"><defs><style>.cls-1{fill:#d3d3d3;}.cls-2{fill:#fff;}.cls-3{fill:none;stroke:#fff;stroke-linecap:round;stroke-miterlimit:10;stroke-width:2px;}</style></defs><title>phone</title><circle class="cls-1" cx="17.5" cy="17.5" r="17.5"/><path class="cls-2" d="M40.05,33.06a4.31,4.31,0,0,1,.59-2.19l6.7-1.06a4.28,4.28,0,0,1,1.39,2.53,13.12,13.12,0,0,0,8.09-8.09,4.44,4.44,0,0,1-2.13-1l1.16-7.34a4.38,4.38,0,0,1,6.07,4,17.5,17.5,0,0,1-17.49,17.5A4.38,4.38,0,0,1,40.05,33.06Z" transform="translate(-33.48 -9)"/><path class="cls-3" d="M43,28a9.56,9.56,0,0,1,2.27-6.8A9.84,9.84,0,0,1,53,18" transform="translate(-33.48 -9)"/><path class="cls-3" d="M47.15,27a4.7,4.7,0,0,1,1.1-3.31A4.82,4.82,0,0,1,52,22.15" transform="translate(-33.48 -9)"/></svg>