<svg id="Layer_1" data-name="Layer 1" xmlns="http://www.w3.org/2000/svg" viewBox="0 0 52 45.2"><defs><style>.cls-1{fill:none;}.cls-1,.cls-2,.cls-3{stroke:#000;stroke-miterlimit:10;}.cls-1,.cls-2{stroke-width:2px;}.cls-3{stroke-width:0.5px;}</style></defs><title>cash</title><rect class="cls-1" x="1" y="1" width="50" height="29.53"/><path class="cls-1" d="M163.9,52.61H134.23a7,7,0,0,0-7-7V38.52a7,7,0,0,0,7-7H163.9a7,7,0,0,0,7,7v7.09A7,7,0,0,0,163.9,52.61Z" transform="translate(-123.07 -26.3)"/><ellipse class="cls-2" cx="9.38" cy="15.77" rx="1.23" ry="1.52"/><path class="cls-3" d="M147.29,41.72h2.53v.74h-2.53Zm.08,3.52v-.87c.41-.24.57-.79.57-1.65,0-.56-.11-1.1-.11-1.83,0-1.26.49-2,1.47-2s1.37.74,1.39,1.62h-.81c0-.48-.21-.78-.59-.78s-.57.39-.57,1.09.08.93.08,1.66a3.1,3.1,0,0,1-.41,1.82h2.45l-.13.94Z" transform="translate(-123.07 -26.3)"/><ellipse class="cls-2" cx="42.6" cy="15.77" rx="1.23" ry="1.52"/><ellipse class="cls-1" cx="26" cy="15.77" rx="5.21" ry="6.45"/><path d="M142.56,68.37a3,3,0,0,1-3.06,3.13c-2.88,0-3.21-2.53-3.21-5.26,0-3.29,1-5.23,3.32-5.23,2.69,0,2.9,2.31,2.94,3.12h-1.8c0-.34-.05-1.57-1.17-1.57s-1.42,1.39-1.42,3.72c0,1.91.19,3.71,1.37,3.71s1.17-1.23,1.22-1.62Z" transform="translate(-123.07 -26.3)"/><path d="M148.86,69.63c0,.39,0,1.35.06,1.7h-1.63a4.79,4.79,0,0,1-.08-.73,1.82,1.82,0,0,1-1.75.86,2.06,2.06,0,0,1-2.06-2.3c0-1.59,1.09-2.55,3.06-2.55h.63v-.85c0-.45-.05-1-.83-1s-.83.49-.88,1h-1.7c0-1.14.57-2.36,2.65-2.36,1.66,0,2.53.75,2.53,2.24Zm-1.72-1.71a3.51,3.51,0,0,0-.58,0c-1,0-1.4.47-1.4,1.11a.89.89,0,0,0,.9,1c.91,0,1.08-.68,1.08-1.83Z" transform="translate(-123.07 -26.3)"/><path d="M151.64,69a1,1,0,0,0,1,1.12.77.77,0,0,0,.88-.82c0-.55-.25-.85-1.16-1.19-1.83-.68-2.29-1.32-2.29-2.45a2.22,2.22,0,0,1,2.52-2.22,2.27,2.27,0,0,1,2.53,2.41h-1.71c0-.27,0-1-.86-1a.67.67,0,0,0-.73.73c0,.49.28.72,1.21,1.06,1.64.61,2.26,1.23,2.26,2.49,0,1.53-1,2.4-2.72,2.4A2.39,2.39,0,0,1,149.88,69Z" transform="translate(-123.07 -26.3)"/><path d="M158.17,60.67v3.64a1.79,1.79,0,0,1,1.75-.89c1.28,0,1.93.83,1.93,2.42v5.49h-1.8V66.2c0-.76-.13-1.25-.89-1.25s-1,.6-1,1.63v4.75h-1.79V60.67Z" transform="translate(-123.07 -26.3)"/></svg>