<svg id="Layer_1" data-name="Layer 1" xmlns="http://www.w3.org/2000/svg" viewBox="0 0 52 31.53"><defs><style>.cls-1{fill:none;}.cls-1,.cls-2,.cls-3{stroke:#000;stroke-miterlimit:10;}.cls-1,.cls-2{stroke-width:2px;}.cls-3{stroke-width:0.5px;}</style></defs><title>cash</title><rect class="cls-1" x="1" y="1" width="50" height="29.53"/><path class="cls-1" d="M63.9,52.61H34.23a7,7,0,0,0-7-7V38.52a7,7,0,0,0,7-7H63.9a7,7,0,0,0,7,7v7.09A7,7,0,0,0,63.9,52.61Z" transform="translate(-23.07 -26.3)"/><ellipse class="cls-2" cx="9.38" cy="15.77" rx="1.23" ry="1.52"/><path class="cls-3" d="M47.29,41.72h2.53v.74H47.29Zm.08,3.52v-.87c.41-.24.57-.79.57-1.65,0-.56-.11-1.1-.11-1.83,0-1.26.49-2,1.47-2s1.37.74,1.39,1.62h-.81c0-.48-.21-.78-.59-.78s-.57.39-.57,1.09.08.93.08,1.66a3.1,3.1,0,0,1-.41,1.82h2.45l-.13.94Z" transform="translate(-23.07 -26.3)"/><ellipse class="cls-2" cx="42.6" cy="15.77" rx="1.23" ry="1.52"/><ellipse class="cls-1" cx="26" cy="15.77" rx="5.21" ry="6.45"/></svg>