<svg id="Layer_1" data-name="Layer 1" xmlns="http://www.w3.org/2000/svg" viewBox="0 0 30.52 29.15"><defs><style>.cls-1{fill:none;stroke:#000;stroke-miterlimit:10;stroke-width:1.5px;}</style></defs><title>house</title><path class="cls-1" d="M417.44,109.5H414.5v11.39a2.61,2.61,0,0,1-2.61,2.61H408a.41.41,0,0,1-.25,0,.51.51,0,0,1-.27-.45v-8A1.49,1.49,0,0,0,406,113.5h-4A1.49,1.49,0,0,0,400.5,115v8a.52.52,0,0,1-.22.41.46.46,0,0,1-.28.08h-3.89a2.61,2.61,0,0,1-2.61-2.61V109.5h-2.82a1.12,1.12,0,0,1-.73-2l13.38-11.4a1.12,1.12,0,0,1,1.46,0L410.5,101v-2.8a1.69,1.69,0,0,1,1.69-1.69h1a1.69,1.69,0,0,1,1.69,1.69v6.55l3.26,2.78A1.12,1.12,0,0,1,417.44,109.5Z" transform="translate(-388.8 -95.1)"/></svg>