<svg id="Layer_1" data-name="Layer 1" xmlns="http://www.w3.org/2000/svg" viewBox="0 0 69.26 63.35"><defs><style>.cls-1{fill:#fff;}.cls-1,.cls-2,.cls-3{stroke:#000;stroke-miterlimit:10;}.cls-2,.cls-3{fill:none;}.cls-2{stroke-width:3px;}</style></defs><title>cart-big</title><path class="cls-1" d="M204.7,72.11" transform="translate(-227.2 -67.99)"/><path class="cls-1" d="M241.43,72.11" transform="translate(-227.2 -67.99)"/><path class="cls-1" d="M249.3,111.47" transform="translate(-227.2 -67.99)"/><path class="cls-1" d="M244.05,114.09" transform="translate(-227.2 -67.99)"/><polyline class="cls-1" points="8.98 9.37 8.98 9.37 8.98 9.37"/><path class="cls-2" d="M238.8,72.11l7.88,34.11H286a20.75,20.75,0,0,0,7.87-23.61H241.43" transform="translate(-227.2 -67.99)"/><path class="cls-2" d="M246.68,106.22a6.55,6.55,0,0,0,0,10.49H286" transform="translate(-227.2 -67.99)"/><path class="cls-3" d="M259.79,122" transform="translate(-227.2 -67.99)"/><circle class="cls-2" cx="22.1" cy="56.6" r="5.25"/><circle class="cls-2" cx="53.58" cy="56.6" r="5.25"/><path class="cls-3" d="M233.56,69.49" transform="translate(-227.2 -67.99)"/><path class="cls-3" d="M238.8,72.11" transform="translate(-227.2 -67.99)"/><polyline class="cls-2" points="11.6 4.12 6.35 1.5 11.6 1.5 11.6 4.12"/></svg>