<svg id="Layer_1" data-name="Layer 1" xmlns="http://www.w3.org/2000/svg" viewBox="0 0 24 24"><defs><style>.cls-1{fill:none;}.cls-1,.cls-3{stroke:#000;}.cls-1,.cls-2,.cls-3{stroke-miterlimit:10;}.cls-2{stroke:#000217;stroke-width:2px;}</style></defs><title>Calendar</title><rect class="cls-1" x="0.5" y="1.5" width="23" height="22" rx="2.43"/><rect class="cls-2" x="4" y="9" width="1" height="1" rx="0.1"/><line class="cls-1" x1="0.5" y1="5.5" x2="23.5" y2="5.5"/><rect class="cls-3" x="6.5" y="0.5" width="1" height="3"/><rect class="cls-3" x="16.5" y="0.5" width="1" height="3"/><rect class="cls-2" x="9" y="9" width="1" height="1" rx="0.1"/><rect class="cls-2" x="14" y="9" width="1" height="1" rx="0.1"/><rect class="cls-2" x="19" y="9" width="1" height="1" rx="0.1"/><rect class="cls-2" x="4" y="14" width="1" height="1" rx="0.1"/><rect class="cls-2" x="9" y="14" width="1" height="1" rx="0.1"/><rect class="cls-2" x="14" y="14" width="1" height="1" rx="0.1"/><rect class="cls-2" x="19" y="14" width="1" height="1" rx="0.1"/><rect class="cls-2" x="14" y="19" width="1" height="1" rx="0.1"/><rect class="cls-2" x="9" y="19" width="1" height="1" rx="0.1"/><rect class="cls-2" x="4" y="19" width="1" height="1" rx="0.1"/></svg>